<?xml version="1.0" encoding="utf-8"?>
<!-- Garden Gnome Software - Skin Buttons -->
<!DOCTYPE svg PUBLIC "-//W3C//DTD SVG 1.1 Basic//EN" "http://www.w3.org/Graphics/SVG/1.1/DTD/svg11-basic.dtd">
<svg version="1.1" baseProfile="basic" id="Layer_1" xmlns="http://www.w3.org/2000/svg" xmlns:xlink="http://www.w3.org/1999/xlink"
			x="0px" y="0px" width="32px" height="32px" viewBox="0 0 32 32" xml:space="preserve">
	<g opacity="0.4" stroke="#3C3C3C" stroke-width="1.5" transform="translate(16,16) scale(1.1) translate(-16,-16)">
		<path d="M3.5,16C3.5,9.096,9.096,3.501,16,3.5l0,0c6.905,0,12.5,5.595,12.5,12.5l0,0
			c-0.001,6.903-5.596,12.498-12.5,12.5l0,0C9.096,28.498,3.5,22.903,3.5,16L3.5,16z M8.853,8.853
			C7.022,10.686,5.894,13.205,5.893,16l0,0c0,2.795,1.129,5.314,2.96,7.146l0,0c1.833,1.831,4.352,2.96,7.146,2.96l0,0
			c2.795,0,5.315-1.129,7.148-2.96l0,0c1.83-1.833,2.959-4.352,2.96-7.146l0,0c-0.001-2.795-1.13-5.314-2.96-7.147l0,0
			C21.314,7.022,18.795,5.894,16,5.893l0,0C13.205,5.894,10.686,7.022,8.853,8.853L8.853,8.853z"/>
		<g>
			<path d="M19.916,22.616l-5.895-5.76c-0.232-0.227-0.36-0.532-0.36-0.856l0,0c0-0.324,0.128-0.629,0.36-0.855l0,0
				l5.895-5.761c0.344-0.336,0.858-0.434,1.301-0.247l0,0c0.442,0.186,0.732,0.622,0.732,1.103l0,0v11.521
				c0,0.479-0.29,0.917-0.732,1.103l0,0c-0.149,0.063-0.307,0.094-0.463,0.094l0,0C20.447,22.957,20.145,22.839,19.916,22.616
				L19.916,22.616z M16.569,16l2.988,2.919v-5.838L16.569,16L16.569,16z"/>
			<path d="M14.011,22.616l-5.896-5.761c-0.234-0.229-0.363-0.54-0.36-0.868l0,0
				c0.004-0.329,0.139-0.637,0.379-0.861l0,0l6.161-5.761c0.482-0.452,1.24-0.426,1.691,0.057l0,0
				c0.451,0.482,0.426,1.239-0.056,1.69l0,0l-5.248,4.907l5,4.886v0.001c0.472,0.461,0.481,1.219,0.02,1.691l0,0
				c-0.235,0.239-0.545,0.359-0.856,0.359l0,0C14.546,22.957,14.244,22.844,14.011,22.616L14.011,22.616z"/>
		</g>
	</g>
	<g fill="#FFFFFF" stroke="#000000" stroke-width="0.2" transform="translate(16,16) scale(1.1) translate(-16,-16)">
		<path d="M3.5,16C3.5,9.096,9.096,3.501,16,3.5l0,0c6.905,0,12.5,5.595,12.5,12.5l0,0
			c-0.001,6.903-5.596,12.498-12.5,12.5l0,0C9.096,28.498,3.5,22.903,3.5,16L3.5,16z M8.853,8.853
			C7.022,10.686,5.894,13.205,5.893,16l0,0c0,2.795,1.129,5.314,2.96,7.146l0,0c1.833,1.831,4.352,2.96,7.146,2.96l0,0
			c2.795,0,5.315-1.129,7.148-2.96l0,0c1.83-1.833,2.959-4.352,2.96-7.146l0,0c-0.001-2.795-1.13-5.314-2.96-7.147l0,0
			C21.314,7.022,18.795,5.894,16,5.893l0,0C13.205,5.894,10.686,7.022,8.853,8.853L8.853,8.853z"/>
		<g>
			<path d="M19.916,22.616l-5.895-5.76c-0.232-0.227-0.36-0.532-0.36-0.856l0,0c0-0.324,0.128-0.629,0.36-0.855l0,0
				l5.895-5.761c0.344-0.336,0.858-0.434,1.301-0.247l0,0c0.442,0.186,0.732,0.622,0.732,1.103l0,0v11.521
				c0,0.479-0.29,0.917-0.732,1.103l0,0c-0.149,0.063-0.307,0.094-0.463,0.094l0,0C20.447,22.957,20.145,22.839,19.916,22.616
				L19.916,22.616z M16.569,16l2.988,2.919v-5.838L16.569,16L16.569,16z"/>
			<path d="M14.011,22.616l-5.896-5.761c-0.234-0.229-0.363-0.54-0.36-0.868l0,0
				c0.004-0.329,0.139-0.637,0.379-0.861l0,0l6.161-5.761c0.482-0.452,1.24-0.426,1.691,0.057l0,0
				c0.451,0.482,0.426,1.239-0.056,1.69l0,0l-5.248,4.907l5,4.886v0.001c0.472,0.461,0.481,1.219,0.02,1.691l0,0
				c-0.235,0.239-0.545,0.359-0.856,0.359l0,0C14.546,22.957,14.244,22.844,14.011,22.616L14.011,22.616z"/>
		</g>
	</g>
</svg>