<?xml version="1.0" encoding="utf-8"?>
<!-- Garden Gnome Software - Skin Buttons -->
<!DOCTYPE svg PUBLIC "-//W3C//DTD SVG 1.1 Basic//EN" "http://www.w3.org/Graphics/SVG/1.1/DTD/svg11-basic.dtd">
<svg version="1.1" baseProfile="basic" id="Layer_1" xmlns="http://www.w3.org/2000/svg" xmlns:xlink="http://www.w3.org/1999/xlink"
			x="0px" y="0px" width="32px" height="32px" viewBox="0 0 32 32" xml:space="preserve">
	<g opacity="0.4" stroke="#3C3C3C" stroke-width="1.5" transform="translate(16,16) scale(1.1) translate(-16,-16)">
		<path d="M3.5,16C3.501,9.096,9.096,3.501,16,3.5l0,0c6.904,0,12.499,5.596,12.5,12.5l0,0
			c-0.001,6.903-5.596,12.498-12.5,12.5l0,0C9.096,28.498,3.501,22.903,3.5,16L3.5,16z M5.893,16c0,2.795,1.129,5.313,2.96,7.146
			l0,0c1.833,1.831,4.352,2.96,7.147,2.96l0,0c2.794,0,5.314-1.129,7.147-2.96l0,0c1.83-1.832,2.959-4.352,2.96-7.146l0,0
			c-0.001-2.795-1.13-5.313-2.96-7.147l0,0C21.314,7.022,18.795,5.894,16,5.893l0,0c-2.795,0-5.314,1.129-7.147,2.96l0,0
			C7.022,10.687,5.894,13.205,5.893,16L5.893,16L5.893,16z"/>
		<g>
			<path d="M10.784,22.864c-0.443-0.187-0.732-0.622-0.732-1.103l0,0V10.239c0-0.48,0.29-0.917,0.732-1.103l0,0
				c0.442-0.186,0.957-0.088,1.3,0.247l0,0l5.895,5.761c0.232,0.226,0.36,0.531,0.36,0.855l0,0c0,0.324-0.128,0.629-0.36,0.856l0,0
				l-5.895,5.76c-0.228,0.224-0.53,0.341-0.837,0.341l0,0C11.09,22.957,10.933,22.927,10.784,22.864L10.784,22.864z M12.444,18.92
				L15.432,16l-2.987-2.919V18.92L12.444,18.92z"/>
			<path d="M16.013,22.578c-0.451-0.482-0.426-1.239,0.057-1.69l0,0l5.247-4.907l-5-4.887
				c-0.473-0.461-0.482-1.219-0.02-1.691l0,0c0.462-0.473,1.219-0.482,1.692-0.02l0,0l5.895,5.761
				c0.235,0.229,0.364,0.54,0.36,0.869l0,0c-0.004,0.329-0.14,0.636-0.379,0.861l0,0l-6.161,5.761
				c-0.23,0.216-0.524,0.323-0.817,0.323l0,0C16.567,22.958,16.249,22.83,16.013,22.578L16.013,22.578z"/>
		</g>
	</g>
	<g fill="#FFFFFF" stroke="#000000" stroke-width="0.2" transform="translate(16,16) scale(1.1) translate(-16,-16)">
		<path d="M3.5,16C3.501,9.096,9.096,3.501,16,3.5l0,0c6.904,0,12.499,5.596,12.5,12.5l0,0
			c-0.001,6.903-5.596,12.498-12.5,12.5l0,0C9.096,28.498,3.501,22.903,3.5,16L3.5,16z M5.893,16c0,2.795,1.129,5.313,2.96,7.146
			l0,0c1.833,1.831,4.352,2.96,7.147,2.96l0,0c2.794,0,5.314-1.129,7.147-2.96l0,0c1.83-1.832,2.959-4.352,2.96-7.146l0,0
			c-0.001-2.795-1.13-5.313-2.96-7.147l0,0C21.314,7.022,18.795,5.894,16,5.893l0,0c-2.795,0-5.314,1.129-7.147,2.96l0,0
			C7.022,10.687,5.894,13.205,5.893,16L5.893,16L5.893,16z"/>
		<g>
			<path d="M10.784,22.864c-0.443-0.187-0.732-0.622-0.732-1.103l0,0V10.239c0-0.48,0.29-0.917,0.732-1.103l0,0
				c0.442-0.186,0.957-0.088,1.3,0.247l0,0l5.895,5.761c0.232,0.226,0.36,0.531,0.36,0.855l0,0c0,0.324-0.128,0.629-0.36,0.856l0,0
				l-5.895,5.76c-0.228,0.224-0.53,0.341-0.837,0.341l0,0C11.09,22.957,10.933,22.927,10.784,22.864L10.784,22.864z M12.444,18.92
				L15.432,16l-2.987-2.919V18.92L12.444,18.92z"/>
			<path d="M16.013,22.578c-0.451-0.482-0.426-1.239,0.057-1.69l0,0l5.247-4.907l-5-4.887
				c-0.473-0.461-0.482-1.219-0.02-1.691l0,0c0.462-0.473,1.219-0.482,1.692-0.02l0,0l5.895,5.761
				c0.235,0.229,0.364,0.54,0.36,0.869l0,0c-0.004,0.329-0.14,0.636-0.379,0.861l0,0l-6.161,5.761
				c-0.23,0.216-0.524,0.323-0.817,0.323l0,0C16.567,22.958,16.249,22.83,16.013,22.578L16.013,22.578z"/>
		</g>
	</g>
</svg>