<?xml version="1.0" encoding="utf-8"?>
<!-- Generator: Adobe Illustrator 17.1.0, SVG Export Plug-In . SVG Version: 6.00 Build 0)  -->
<!DOCTYPE svg PUBLIC "-//W3C//DTD SVG 1.1//EN" "http://www.w3.org/Graphics/SVG/1.1/DTD/svg11.dtd">
<svg version="1.1" id="Layer_1" xmlns="http://www.w3.org/2000/svg" xmlns:xlink="http://www.w3.org/1999/xlink" x="0px" y="0px"
	 viewBox="0 0 50 50" enable-background="new 0 0 50 50" xml:space="preserve">
<path fill="#3C5A98" d="M40,0H10C4.5,0,0,4.5,0,10v30c0,5.5,4.5,10,10,10h14V31h-3v-5h3v-1.4c0-3.1,1.1-6.5,3.4-8.5
	c2-1.9,4.8-2.5,7.1-2.5c1.8,0,3.2,0.2,4.3,0.5l-0.3,6.1c-0.7-0.2-1.6-0.4-2.7-0.4c-2.6,0-3.8,2-3.8,4.5V26h5v5h-5v19h8
	c5.5,0,10-4.5,10-10V10C50,4.5,45.5,0,40,0z"/>
</svg>
