<svg xmlns="http://www.w3.org/2000/svg" viewBox="0 0 24 24"><linearGradient id="a" gradientUnits="userSpaceOnUse" x1="259.037" y1="-2.53" x2="259.037" y2="-547.68" gradientTransform="translate(.718 24.04) scale(.04355)"><stop offset="0" stop-color="#e09b3d"/><stop offset=".3" stop-color="#c74c4d"/><stop offset=".6" stop-color="#c21975"/><stop offset="1" stop-color="#7024c4"/></linearGradient><path fill="url(#a)" d="M21 0H3C1.3 0 0 1.3 0 3v18c0 1.7 1.3 3 3 3h18c1.7 0 3-1.3 3-3V3c0-1.7-1.3-3-3-3z"/><g fill="#FFF"><path d="M15.8 2.5H8.2C5.1 2.5 2.6 5 2.6 8.1v7.6c0 3.1 2.5 5.6 5.6 5.6h7.6c3.1 0 5.6-2.5 5.6-5.6V8.2c.1-3.1-2.5-5.7-5.6-5.7zm3.8 13.3c0 2.1-1.7 3.7-3.7 3.7H8.2c-2.1 0-3.7-1.7-3.7-3.7V8.2c0-2.1 1.7-3.7 3.7-3.7h7.6c2.1 0 3.7 1.7 3.7 3.7l.1 7.6z"/><path d="M12 7.1c-2.7 0-4.9 2.2-4.9 4.9s2.2 4.9 4.9 4.9 4.9-2.2 4.9-4.9-2.2-4.9-4.9-4.9zm0 7.9c-1.7 0-3-1.3-3-3s1.3-3 3-3 3 1.3 3 3-1.3 3-3 3z"/><circle cx="16.9" cy="7.1" r="1.2"/></g></svg>