<?xml version="1.0" encoding="utf-8"?>
<!-- Generator: Adobe Illustrator 17.1.0, SVG Export Plug-In . SVG Version: 6.00 Build 0)  -->
<!DOCTYPE svg PUBLIC "-//W3C//DTD SVG 1.1//EN" "http://www.w3.org/Graphics/SVG/1.1/DTD/svg11.dtd">
<svg version="1.1" id="Layer_1" xmlns="http://www.w3.org/2000/svg" xmlns:xlink="http://www.w3.org/1999/xlink" x="0px" y="0px"
	 viewBox="-103 -16 400 60" enable-background="new -103 -16 400 60" xml:space="preserve">
<g>
	<defs>
		<rect id="SVGID_1_" x="-99.6" y="-12.5" width="393.1" height="55.4"/>
	</defs>
	<clipPath id="SVGID_2_">
		<use xlink:href="#SVGID_1_"  overflow="visible"/>
	</clipPath>
	<g clip-path="url(#SVGID_2_)">
		<path d="M-89.6,30.4h-1.2l-3.9,4.5h-1.2v-4.5h-0.8v10h0.8v-4.7h1.4l4.1,4.7h1l-4.3-5.1L-89.6,30.4z"/>
		<path d="M-82,35.1c0,1.2-0.2,2.2-0.2,2.9c-0.2,0.6-0.4,1-0.6,1.4c-0.2,0.2-0.6,0.4-1,0.4h-0.2v0.6h0.4c0.6,0,1-0.2,1.4-0.4
			c0.4-0.2,0.6-0.8,0.8-1.4c0-0.8,0.2-1.8,0.2-3.3l0.2-4.1h4.3v9.2h0.8v-10h-5.9L-82,35.1z"/>
		<path d="M-68,39v-8.6h-0.8v10h0.8l5.7-8.6v8.6h0.8v-10h-0.8L-68,39z"/>
		<path d="M-47.6,34.9h-5.7v-4.5h-0.8v10h0.8v-4.9h5.7v4.9h0.8v-10h-0.8V34.9z"/>
		<path d="M-38.9,39v-8.6h-0.8v10h0.8l5.7-8.6v8.6h0.8v-10h-0.8L-38.9,39z"/>
		<path d="M-18.1,30.4h-1l-3.9,4.5h-1.4v-4.5h-0.8v10h0.8v-4.7h1.4l4.1,4.7h1l-4.3-5.1L-18.1,30.4z"/>
		<path d="M-9,30.4l-3.7,10h0.8l1-2.9h4.5l1,2.9h0.8l-3.7-10H-9z M-10.6,36.9l2-5.5l2,5.5H-10.6z"/>
		<path d="M13,30.2c-1,0-1.8,0.2-2.4,0.8c-0.6,0.6-1,1.4-1,2.4h0.8c0.2-1.6,1.2-2.4,2.9-2.4c0.8,0,1.6,0.4,2.2,1
			c0.6,0.6,0.8,1.6,0.8,2.9v0.2h-4.1v0.6h4.1v0.2c0,1.2-0.2,2-0.8,2.9c-0.6,0.6-1.2,1-2,1c-0.8,0-1.4-0.2-2-0.6
			c-0.4-0.4-0.8-1-0.8-1.8H9.8c0.2,1,0.4,1.8,1,2.4c0.6,0.6,1.4,0.8,2.6,0.8c0.8,0,1.4-0.2,2-0.6c0.6-0.4,1-0.8,1.2-1.6
			c0.4-0.6,0.4-1.4,0.4-2.4v-1.2c0-1.4-0.4-2.4-1-3.3C15.1,30.6,14,30.2,13,30.2z"/>
		<path d="M24.8,32c0.6-0.6,1.2-1,2.2-1c1.6,0,2.4,0.8,2.9,2.4h0.8c0-1-0.4-1.8-1-2.4c-0.6-0.6-1.4-0.8-2.4-0.8
			c-0.8,0-1.4,0.2-2,0.6c-0.6,0.4-1,0.8-1.4,1.6c-0.4,0.6-0.4,1.4-0.4,2.4v1.2c0,0.8,0.2,1.6,0.4,2.2c0.4,0.6,0.8,1.2,1.2,1.6
			c0.6,0.4,1.2,0.6,2,0.6c1,0,1.8-0.2,2.4-0.8c0.6-0.6,1-1.4,1.2-2.4h-0.8c-0.2,0.8-0.4,1.4-0.8,1.8c-0.4,0.4-1,0.6-2,0.6
			c-0.8,0-1.6-0.4-2-1c-0.6-0.6-0.8-1.6-0.8-2.6v-1.2C24,33.7,24.2,32.7,24.8,32z"/>
		<path d="M36,31h3.5v9.4h0.8V31h3.5v-0.6H36V31z"/>
		<path d="M50.7,35.5h4.7v-0.6h-4.7V31h5.5v-0.6h-6.3v10h6.3v-0.8h-5.5V35.5z"/>
		<path d="M61.7,31h3.5v9.4H66V31h3.5v-0.6h-7.7V31z"/>
		<path d="M76.5,39v-8.6h-1v10h1l5.5-8.6v8.6h1v-10h-1L76.5,39z"/>
		<path d="M95.9,35.1c-1,0.2-1.8,0.4-2.6,0.4c-0.8,0-1.4-0.2-1.8-0.6c-0.4-0.4-0.6-1-0.6-1.8v-2.9h-1v2.9c0,1,0.2,1.8,0.8,2.2
			c0.6,0.4,1.4,0.8,2.4,0.8c0.8,0,1.8-0.2,2.6-0.4v4.7h0.8v-10h-0.6V35.1z"/>
		<path d="M104.6,35.5h4.7v-0.6h-4.7V31h5.3v-0.6h-6.1v10h6.1v-0.8h-5.3V35.5z"/>
		<path d="M117.7,32c0.6-0.6,1.2-1,2.2-1c1.6,0,2.4,0.8,2.9,2.4h0.8c0-1-0.4-1.8-1-2.4c-0.6-0.6-1.4-0.8-2.4-0.8
			c-0.8,0-1.4,0.2-2,0.6c-0.6,0.4-1,0.8-1.4,1.6c-0.4,0.6-0.4,1.4-0.4,2.4v1.2c0,0.8,0.2,1.6,0.4,2.2c0.4,0.6,0.8,1.2,1.2,1.6
			c0.6,0.4,1.2,0.6,2,0.6c1,0,1.8-0.2,2.4-0.8s1-1.4,1.2-2.4h-0.8c-0.2,0.8-0.4,1.4-0.8,1.8c-0.4,0.4-1,0.6-2,0.6
			c-0.8,0-1.6-0.4-2-1c-0.6-0.6-0.8-1.6-0.8-2.6v-1.2C116.8,33.7,117.1,32.7,117.7,32z"/>
		<path d="M137.2,30.4h-1l-3.9,4.5h-1.4v-4.5h-0.8v10h0.8v-4.7h1.4l4.1,4.7h1l-4.3-5.1L137.2,30.4z"/>
		<path d="M148.8,30.8c-0.6-0.4-1.2-0.6-2-0.6c-0.8,0-1.4,0.2-2,0.6c-0.6,0.4-1,0.8-1.4,1.6c-0.4,0.6-0.4,1.4-0.4,2.4v1
			c0,1.4,0.4,2.4,1,3.5c0.8,0.8,1.6,1.2,2.9,1.2c0.8,0,1.4-0.2,2-0.6c0.6-0.4,1-0.8,1.4-1.6c0.4-0.6,0.4-1.4,0.4-2.4v-1.2
			c0-0.8-0.2-1.6-0.4-2.4C149.8,31.6,149.4,31.2,148.8,30.8z M149.8,35.9c0,1.2-0.2,2.2-0.8,2.9c-0.6,0.6-1.2,1-2.2,1
			c-1,0-1.6-0.4-2.2-1c-0.6-0.6-0.8-1.6-0.8-2.9v-1c0-1.2,0.2-2.2,0.8-2.9c0.6-0.6,1.2-1,2.2-1c1,0,1.6,0.4,2.2,1
			c0.6,0.6,0.8,1.6,0.8,2.9V35.9z"/>
		<path d="M162.7,29.2c0.4-0.4,0.6-0.8,0.6-1.2h-0.6c0,0.4-0.2,0.6-0.4,0.8c-0.2,0.2-0.6,0.4-1,0.4s-0.8,0-1-0.2
			c-0.2-0.2-0.4-0.4-0.4-0.8h-0.6c0,0.6,0.2,1,0.6,1.2c0.4,0.4,0.8,0.4,1.4,0.4C161.8,29.8,162.2,29.6,162.7,29.2z"/>
		<path d="M158.4,39v-8.6h-0.8v10h0.8l5.7-8.6v8.6h0.8v-10h-0.8L158.4,39z"/>
		<path d="M184.8,39.2l-3.7-8.8H180v10h0.8v-4.5v-4.3l3.7,8.8h0.6l3.9-8.8l-0.2,4.3v4.5h0.8v-10h-1L184.8,39.2z"/>
		<path d="M197.7,35.5h4.5v-0.6h-4.5V31h5.3v-0.6h-6.3v10h6.3v-0.8h-5.3V35.5z"/>
		<path d="M216.6,30.4h-5.5l-0.2,3.7c0,1.2-0.2,2.2-0.6,3.3c-0.4,1-0.8,1.8-1.2,2.2h-0.6v3.1h0.8v-2.2h7.5v2.4h0.8v-3.1h-1V30.4z
			 M215.8,39.6h-5.7c0.4-0.6,0.8-1.4,1.2-2.4c0.2-1,0.4-2,0.6-3.3l0.2-2.9h3.9v8.6H215.8z"/>
		<path d="M224.9,39v-8.6h-0.8v10h0.8l5.7-8.6v8.6h0.8v-10h-0.8L224.9,39z"/>
		<path d="M245.9,30.4h-0.8v9.2h-5.7v-9.2h-0.8v10h7.3v2.4h0.8v-3.3h-0.8V30.4z"/>
		<path d="M254.1,39v-8.6h-0.8v10h0.8l5.7-8.6v8.6h0.8v-10h-0.8L254.1,39z"/>
		<path d="M274.2,34.9h-5.7v-4.5h-0.8v10h0.8v-4.9h5.7v4.9h0.8v-10h-0.8V34.9z"/>
		<path d="M291.3,30.4h-0.8v10h0.8V30.4z"/>
		<path d="M287.2,35.1c-0.4-0.2-1-0.4-1.8-0.4H283v-4.3h-0.8v10h3.3c1,0,1.8-0.2,2.4-0.8c0.6-0.4,0.8-1.2,0.8-2c0-0.6-0.2-1-0.4-1.4
			C288.1,35.5,287.8,35.3,287.2,35.1z M287.2,39c-0.4,0.4-1,0.6-1.8,0.6H283v-4.3h2.4c0.8,0,1.4,0.2,1.8,0.6s0.6,0.8,0.6,1.4
			C287.8,38.2,287.6,38.8,287.2,39z"/>
		<path d="M53.3,10.1c0.6-1.8,1-3.9,1-5.9c0-2.2-0.4-4.1-1-5.9c-0.8-1.8-1.8-3.5-3.3-4.9c-0.8-0.8-1.6-1.4-2.9-2
			c-1-0.6-2.4-1.2-4.1-1.6c-1.4-0.4-3.3-0.6-5.5-1c-2-0.2-4.5-0.2-7.1-0.2H10.4v32h20.4c2.6,0,5.1,0,7.1-0.4c2-0.2,3.9-0.6,5.5-1
			c1.6-0.4,2.9-1,4.1-1.6c1-0.6,2-1.2,2.9-2C51.5,13.7,52.5,12.1,53.3,10.1z M48.7,10.3c-0.4,0.8-1,1.4-1.6,2
			c-0.6,0.6-1.6,1.2-3.1,1.8c-1.4,0.6-3.3,1.2-5.3,1.6c-2.2,0.4-4.9,0.8-8.1,0.8H14.5V-7.9h16.3c3.1,0,5.9,0.2,8.1,0.6
			c2,0.2,3.9,0.8,5.3,1.4c1.2,0.6,2.2,1.2,3.1,1.8c0.6,0.6,1.2,1.2,1.6,2c0.4,0.8,0.8,1.6,1,2.6s0.4,2.2,0.4,3.5
			c0,1.2-0.2,2.4-0.4,3.5C49.5,8.6,49.1,9.4,48.7,10.3z"/>
		<path d="M-47.8-11.7h-1.4l-23,27.5l-22.6-27.5h-1.6h-1.4h-1.6v32h4.3V-5.4l21.6,25.7h3.1l21-25.7v25.7h4.3v-32h-1.4H-47.8z"/>
		<path d="M-37.9,20.2H2v-3.9h-35.6V5.8h35V2.1h-35V-8.1H2v-3.7h-39.9V20.2z"/>
		<path d="M293.5-8.1v-3.7h-40.3v32h40.3v-3.9h-36.6V5.8h35.6V2.1h-35.6V-8.1H293.5z"/>
		<path d="M213.3-11.7h-4.7v32h38.7v-3.9h-34V-11.7z"/>
		<path d="M99.5,5.6c-0.4-0.4-0.8-0.6-1.2-1c-0.4-0.4-1-0.6-1.6-0.8c-0.6-0.2-1.4-0.4-2.2-0.6c-0.8-0.2-2-0.4-3.3-0.6
			c-1.2-0.2-2.6-0.2-4.3-0.4c-1.6-0.2-3.5-0.2-5.7-0.4c-2.4-0.2-4.5-0.2-6.1-0.4c-1.6-0.2-3.3-0.2-4.5-0.4s-2.2-0.4-3.1-0.6
			c-0.6-0.2-1.2-0.4-1.8-0.6c-0.4,0-0.6-0.2-0.8-0.4c-0.2-0.2-0.4-0.6-0.6-0.8C64.1-2,64.1-2.4,64.1-3c0-0.6,0-1.2,0.2-1.6
			c0.2-0.4,0.4-0.8,0.8-1.2c0.4-0.4,0.8-0.6,1.4-1c0.6-0.4,1.4-0.6,2.6-0.8c1-0.2,2.4-0.4,4.1-0.6c1.6-0.2,3.7-0.2,6.1-0.2
			c2.4,0,4.7,0.2,6.7,0.4c2.2,0.2,4.3,0.6,6.1,1c1.8,0.4,3.7,0.8,5.1,1.4l2,0.6v-4.5l-1-0.4c-1.2-0.4-2.9-0.8-4.9-1.2
			c-1.8-0.4-4.1-0.8-6.3-1c-2.6-0.2-5.1-0.4-7.7-0.4c-2.4,0-4.5,0-6.5,0.2c-1.8,0.2-3.5,0.4-4.9,0.8c-1.4,0.4-2.6,0.8-3.5,1.2
			c-1,0.4-1.8,1-2.4,1.6C61.3-7.9,60.7-7,60.5-6c-0.4,1-0.4,2-0.4,3.1s0.2,1.8,0.4,2.6c0.4,0.8,0.8,1.8,1.4,2.4
			c0.4,0.4,1,0.8,1.8,1.2c0.6,0.4,1.4,0.6,2.4,0.8c1,0.2,2,0.4,3.5,0.6C71,5,72.5,5.2,74.3,5.4c1.6,0.2,3.7,0.2,6.1,0.4
			C83.1,6,85.1,6,86.9,6.2c1.8,0.2,3.3,0.4,4.5,0.4c1.2,0.2,2,0.4,2.9,0.6c0.6,0.2,1.2,0.4,1.4,0.6c0.4,0.2,0.6,0.4,0.6,0.4
			c0.2,0.2,0.4,0.4,0.4,0.6c0.2,0.2,0.2,0.6,0.2,0.8c0,0.4,0,0.8,0,1c0,0.6,0,1-0.2,1.6c-0.2,0.4-0.4,0.8-0.8,1.4
			c-0.2,0.2-0.4,0.4-0.8,0.6c-0.2,0.2-0.8,0.4-1.4,0.8C93,15.4,92,15.6,91,15.8c-1,0.2-2.4,0.4-4.1,0.6c-1.6,0.2-3.7,0.2-5.9,0.2
			c-2,0-3.9,0-5.9-0.2c-1.8-0.2-3.9-0.4-5.5-0.8c-1.8-0.4-3.5-0.6-4.9-1c-1.4-0.4-3.1-0.8-4.3-1.2l-2.2-0.8V17l1.2,0.4
			c1.6,0.6,3.7,1.2,5.9,1.8c2.2,0.6,4.7,0.8,7.3,1.2c2.6,0.2,5.5,0.4,8.6,0.4c2.4,0,4.7,0,6.5-0.2c1.8-0.2,3.5-0.4,4.7-0.6
			c1.2-0.2,2.4-0.6,3.3-0.8c0.8-0.4,1.6-0.8,2.2-1c0.6-0.4,1-0.8,1.4-1.2c0.6-0.6,1-1.2,1.2-1.8c0.4-0.6,0.6-1.2,0.6-2
			c0.2-0.6,0.2-1.4,0.2-2c0-1-0.2-1.8-0.4-2.9S100.2,6.4,99.5,5.6z"/>
		<path d="M180.8,3.7l-19.3-15.5h-6.5l23.4,18.9v13h4.7v-13l23.4-18.9h-6.5L180.8,3.7z"/>
		<path d="M105-8.1h20.6v28.3h4.3V-8.1h21.4v-3.7H105V-8.1z"/>
	</g>
</g>
</svg>
