<?xml version="1.0" encoding="utf-8"?>
<!-- Generator: Adobe Illustrator 17.1.0, SVG Export Plug-In . SVG Version: 6.00 Build 0)  -->
<!DOCTYPE svg PUBLIC "-//W3C//DTD SVG 1.1//EN" "http://www.w3.org/Graphics/SVG/1.1/DTD/svg11.dtd">
<svg version="1.1" id="Layer_1" xmlns="http://www.w3.org/2000/svg" xmlns:xlink="http://www.w3.org/1999/xlink" x="0px" y="0px"
	 viewBox="0 0 64 64" enable-background="new 0 0 64 64" xml:space="preserve">
<g>
	<path fill="#FFFFFF" stroke="#1A1A1A" stroke-linecap="round" stroke-linejoin="round" stroke-miterlimit="10" d="M32,51l-0.2-0.2
		c-10.6-10.6-10.6-27.9,0-38.5l0.2-0.2l0.2,0.2c10.6,10.6,10.6,27.9,0,38.5L32,51z"/>
	
		<ellipse fill="#FFFFFF" stroke="#1A1A1A" stroke-linecap="round" stroke-linejoin="round" stroke-miterlimit="10" cx="32" cy="49.8" rx="7.4" ry="2"/>
	<g>
		<g>
			<path fill="#FFFFFF" stroke="#1A1A1A" stroke-linecap="round" stroke-linejoin="round" stroke-miterlimit="10" d="M32.3,48.4
				l0-0.2c-1.8-12,6.6-23.2,18.6-25l0.2,0l0,0.2c1.8,12-6.6,23.2-18.6,25L32.3,48.4z"/>
		</g>
		<g>
			<path fill="#FFFFFF" stroke="#1A1A1A" stroke-linecap="round" stroke-linejoin="round" stroke-miterlimit="10" d="M31.7,48.4
				l0-0.2c1.8-12-6.6-23.2-18.6-25l-0.2,0l0,0.2c-1.8,12,6.6,23.2,18.6,25L31.7,48.4z"/>
		</g>
	</g>
	<g>
		<path fill="#FFFFFF" stroke="#1A1A1A" stroke-linecap="round" stroke-linejoin="round" stroke-miterlimit="10" d="M32,48.4
			l-0.2,0.1C20.7,53.6,7.6,48.8,2.4,37.7l-0.1-0.2l0.2-0.1c11.1-5.1,24.2-0.3,29.4,10.8L32,48.4z"/>
		<path fill="#FFFFFF" stroke="#1A1A1A" stroke-linecap="round" stroke-linejoin="round" stroke-miterlimit="10" d="M32,48.4
			l0.2,0.1c11.1,5.1,24.2,0.3,29.4-10.8l0.1-0.2l-0.2-0.1c-11.1-5.1-24.2-0.3-29.4,10.8L32,48.4z"/>
	</g>
</g>
</svg>
