<?xml version="1.0" encoding="utf-8"?>
<!-- Generator: Adobe Illustrator 17.1.0, SVG Export Plug-In . SVG Version: 6.00 Build 0)  -->
<!DOCTYPE svg PUBLIC "-//W3C//DTD SVG 1.1//EN" "http://www.w3.org/Graphics/SVG/1.1/DTD/svg11.dtd">
<svg version="1.1" id="Layer_1" xmlns="http://www.w3.org/2000/svg" xmlns:xlink="http://www.w3.org/1999/xlink" x="0px" y="0px"
	 viewBox="0 0 64 64" enable-background="new 0 0 64 64" xml:space="preserve">
<g>
	<g>
		<path fill="none" stroke="#1A1A1A" stroke-linecap="round" stroke-linejoin="round" stroke-miterlimit="10" d="M46.9,28.4
			c0,0-0.6-1.5-1.8-1.5"/>
		<g>
			<path fill="none" stroke="#1A1A1A" stroke-linecap="round" stroke-linejoin="round" stroke-miterlimit="10" d="M22.3,51.4
				c0.4-1.9,0.7-4.1,0.7-6.8"/>
			<path fill="none" stroke="#1A1A1A" stroke-linecap="round" stroke-linejoin="round" stroke-miterlimit="10" d="M38.2,22.1
				c0,0,2.2-5,10.6-2"/>
			<path fill="none" stroke="#1A1A1A" stroke-linecap="round" stroke-linejoin="round" stroke-miterlimit="10" d="M38.4,27.2
				c0,0,3.9,2,6.6-0.3s4.1-0.2,4.1-0.2"/>
			<path fill="none" stroke="#1A1A1A" stroke-linecap="round" stroke-linejoin="round" stroke-miterlimit="10" d="M29.4,22.1
				c0,0-2.2-5-10.6-2"/>
			<path fill="none" stroke="#1A1A1A" stroke-linecap="round" stroke-linejoin="round" stroke-miterlimit="10" d="M29.2,27.2
				c0,0-3.9,2-6.6-0.3s-4.1-0.2-4.1-0.2"/>
			<path fill="none" stroke="#1A1A1A" stroke-linecap="round" stroke-linejoin="round" stroke-miterlimit="10" d="M20.7,28.4
				c0,0,0.6-1.5,1.8-1.5"/>
			<path fill="none" stroke="#1A1A1A" stroke-linecap="round" stroke-linejoin="round" stroke-miterlimit="10" d="M31.7,36.3
				c0,0,1.8,2,4.3,0"/>
			<path fill="none" stroke="#1A1A1A" stroke-linecap="round" stroke-linejoin="round" stroke-miterlimit="10" d="M29,42.5
				c0,0,2.5-3.9,4.9-2.2c2.1-1.8,4.8,2.2,4.8,2.2S34.3,48.5,29,42.5z"/>
			<path fill="none" stroke="#1A1A1A" stroke-linecap="round" stroke-linejoin="round" stroke-miterlimit="10" d="M16.7,18.1
				c0,0,0,9,0,14.8s3.3,8.7,3.3,8.7l9.3,8.8c0,0,1.3,1.5,4.6,1.5s4.5-1.5,4.5-1.5s5.9-5.7,9.4-9c3.6-3.2,3.4-9.1,3.4-9.1l0-13.8"/>
			<path fill="none" stroke="#1A1A1A" stroke-linecap="round" stroke-linejoin="round" stroke-miterlimit="10" d="M47.8,58.1
				c0,0-3.3-4-3.3-13.6"/>
			<path fill="none" stroke="#1A1A1A" stroke-linecap="round" stroke-linejoin="round" stroke-miterlimit="10" d="M55.8,31.3
				c0.4-5.6-2.2-14-16.2-23.1"/>
			<path fill="none" stroke="#1A1A1A" stroke-linecap="round" stroke-linejoin="round" stroke-miterlimit="10" d="M36.3,4.6
				c0,0-1.8,5-9.7,6.7"/>
			<path fill="none" stroke="#1A1A1A" stroke-linecap="round" stroke-linejoin="round" stroke-miterlimit="10" d="M14.5,14.8
				c0,0-6.3,1.8-8.7,9.8"/>
			<path fill="none" stroke="#1A1A1A" stroke-linecap="round" stroke-linejoin="round" stroke-miterlimit="10" d="M41.4,3.3
				c0,0,0,6-8.6,10.1C24,17.7,11.1,15.5,9.4,25.3s9,19.3,9,27.7s-6.9,7.6-6.9,7.6"/>
		</g>
	</g>
	<g>
		
			<circle fill="#FFFFFF" stroke="#1A1A1A" stroke-linecap="round" stroke-linejoin="round" stroke-miterlimit="10" cx="45.6" cy="41.8" r="4.3"/>
		
			<circle fill="#FFFFFF" stroke="#1A1A1A" stroke-linecap="round" stroke-linejoin="round" stroke-miterlimit="10" cx="55.1" cy="41.8" r="3.1"/>
		
			<circle fill="#FFFFFF" stroke="#1A1A1A" stroke-linecap="round" stroke-linejoin="round" stroke-miterlimit="10" cx="45.2" cy="34.1" r="1.4"/>
		
			<circle fill="#FFFFFF" stroke="#1A1A1A" stroke-linecap="round" stroke-linejoin="round" stroke-miterlimit="10" cx="51" cy="47.2" r="1.4"/>
		
			<circle fill="#FFFFFF" stroke="#1A1A1A" stroke-linecap="round" stroke-linejoin="round" stroke-miterlimit="10" cx="51.5" cy="35" r="2.6"/>
	</g>
</g>
</svg>
