<?xml version="1.0" encoding="utf-8"?>
<!-- Generator: Adobe Illustrator 17.1.0, SVG Export Plug-In . SVG Version: 6.00 Build 0)  -->
<!DOCTYPE svg PUBLIC "-//W3C//DTD SVG 1.1//EN" "http://www.w3.org/Graphics/SVG/1.1/DTD/svg11.dtd">
<svg version="1.1" id="Layer_1" xmlns="http://www.w3.org/2000/svg" xmlns:xlink="http://www.w3.org/1999/xlink" x="0px" y="0px"
	 viewBox="0 0 64 64" enable-background="new 0 0 64 64" xml:space="preserve">
<g>
	<g>
		<path fill="none" stroke="#1A1A1A" stroke-linecap="round" stroke-linejoin="round" stroke-miterlimit="10" d="M46.5,28.4
			c0,0-0.6-1.5-1.8-1.5"/>
		<g>
			<path fill="none" stroke="#1A1A1A" stroke-linecap="round" stroke-linejoin="round" stroke-miterlimit="10" d="M21.9,51.4
				c0.4-1.9,0.7-4.1,0.7-6.8"/>
			<path fill="none" stroke="#1A1A1A" stroke-linecap="round" stroke-linejoin="round" stroke-miterlimit="10" d="M37.7,22.1
				c0,0,2.2-5,10.6-2"/>
			<path fill="none" stroke="#1A1A1A" stroke-linecap="round" stroke-linejoin="round" stroke-miterlimit="10" d="M38,27.2
				c0,0,3.9,2,6.6-0.3c2.7-2.3,4.1-0.2,4.1-0.2"/>
			<path fill="none" stroke="#1A1A1A" stroke-linecap="round" stroke-linejoin="round" stroke-miterlimit="10" d="M29,22.1
				c0,0-2.2-5-10.6-2"/>
			<path fill="none" stroke="#1A1A1A" stroke-linecap="round" stroke-linejoin="round" stroke-miterlimit="10" d="M28.8,27.2
				c0,0-3.9,2-6.6-0.3s-4.1-0.2-4.1-0.2"/>
			<path fill="none" stroke="#1A1A1A" stroke-linecap="round" stroke-linejoin="round" stroke-miterlimit="10" d="M20.3,28.4
				c0,0,0.6-1.5,1.8-1.5"/>
			<path fill="none" stroke="#1A1A1A" stroke-linecap="round" stroke-linejoin="round" stroke-miterlimit="10" d="M31.3,36.3
				c0,0,1.8,2,4.3,0"/>
			<path fill="none" stroke="#1A1A1A" stroke-linecap="round" stroke-linejoin="round" stroke-miterlimit="10" d="M28.5,42.5
				c0,0,2.5-3.9,4.9-2.2c2.1-1.8,4.8,2.2,4.8,2.2S33.9,48.5,28.5,42.5z"/>
			<path fill="none" stroke="#1A1A1A" stroke-linecap="round" stroke-linejoin="round" stroke-miterlimit="10" d="M16.3,18.1
				c0,0,0,9,0,14.8s3.3,8.7,3.3,8.7l9.3,8.8c0,0,1.3,1.5,4.6,1.5s4.5-1.5,4.5-1.5s5.9-5.7,9.4-9c3.6-3.2,3.4-9.1,3.4-9.1l0-13.8"/>
			<path fill="none" stroke="#1A1A1A" stroke-linecap="round" stroke-linejoin="round" stroke-miterlimit="10" d="M47.4,58.1
				c0,0-3.3-4-3.3-13.6"/>
			<path fill="none" stroke="#1A1A1A" stroke-linecap="round" stroke-linejoin="round" stroke-miterlimit="10" d="M52.9,38.4
				c0,0,11.1-14-13.8-30.1"/>
			<path fill="none" stroke="#1A1A1A" stroke-linecap="round" stroke-linejoin="round" stroke-miterlimit="10" d="M35.9,4.6
				c0,0-1.8,5-9.7,6.7"/>
			<path fill="none" stroke="#1A1A1A" stroke-linecap="round" stroke-linejoin="round" stroke-miterlimit="10" d="M14.1,14.8
				c0,0-6.3,1.8-8.7,9.8"/>
			<path fill="none" stroke="#1A1A1A" stroke-linecap="round" stroke-linejoin="round" stroke-miterlimit="10" d="M58.6,29.3
				c0,0,0.7,7.6-3.5,13.2"/>
			<path fill="none" stroke="#1A1A1A" stroke-linecap="round" stroke-linejoin="round" stroke-miterlimit="10" d="M40.9,3.3
				c0,0,0,6-8.6,10.1C23.5,17.7,10.6,15.5,9,25.3s9,19.3,9,27.7S11,60.6,11,60.6"/>
		</g>
	</g>
	<path fill="#FFFFFF" stroke="#1A1A1A" stroke-linecap="round" stroke-linejoin="round" stroke-miterlimit="10" d="M53.5,48.2
		l-8.6-8.6c0.4-1,0.2-2.2-0.7-3c-1.1-1.1-2.9-1.1-4.1,0s-1.1,2.9,0,4.1c0.8,0.8,2,1,3,0.7l6.7,6.7"/>
</g>
</svg>
