<?xml version="1.0" encoding="utf-8"?>
<!-- Generator: Adobe Illustrator 17.1.0, SVG Export Plug-In . SVG Version: 6.00 Build 0)  -->
<!DOCTYPE svg PUBLIC "-//W3C//DTD SVG 1.1//EN" "http://www.w3.org/Graphics/SVG/1.1/DTD/svg11.dtd">
<svg version="1.1" id="Layer_1" xmlns="http://www.w3.org/2000/svg" xmlns:xlink="http://www.w3.org/1999/xlink" x="0px" y="0px"
	 viewBox="0 0 64 64" enable-background="new 0 0 64 64" xml:space="preserve">
<g>
	<path fill="none" stroke="#1A1A1A" stroke-linecap="round" stroke-linejoin="round" stroke-miterlimit="10" d="M20.4,51.4
		c0.4-1.9,0.7-4.1,0.7-6.8"/>
	<path fill="none" stroke="#1A1A1A" stroke-linecap="round" stroke-linejoin="round" stroke-miterlimit="10" d="M36.2,22.1
		c0,0,2.2-5,10.6-2"/>
	<path fill="none" stroke="#1A1A1A" stroke-linecap="round" stroke-linejoin="round" stroke-miterlimit="10" d="M36.4,27.2
		c0,0,3.9,2,6.6-0.3c2.7-2.3,4.1-0.2,4.1-0.2"/>
	<path fill="none" stroke="#1A1A1A" stroke-linecap="round" stroke-linejoin="round" stroke-miterlimit="10" d="M44.9,28.4
		c0,0-0.6-1.5-1.8-1.5"/>
	<path fill="none" stroke="#1A1A1A" stroke-linecap="round" stroke-linejoin="round" stroke-miterlimit="10" d="M27.5,22.1
		c0,0-2.2-5-10.6-2"/>
	<path fill="none" stroke="#1A1A1A" stroke-linecap="round" stroke-linejoin="round" stroke-miterlimit="10" d="M27.2,27.2
		c0,0-3.9,2-6.6-0.3s-4.1-0.2-4.1-0.2"/>
	<path fill="none" stroke="#1A1A1A" stroke-linecap="round" stroke-linejoin="round" stroke-miterlimit="10" d="M18.7,28.4
		c0,0,0.6-1.5,1.8-1.5"/>
	<path fill="none" stroke="#1A1A1A" stroke-linecap="round" stroke-linejoin="round" stroke-miterlimit="10" d="M29.8,36.3
		c0,0,1.8,2,4.3,0"/>
	<path fill="none" stroke="#1A1A1A" stroke-linecap="round" stroke-linejoin="round" stroke-miterlimit="10" d="M27,42.5
		c0,0,2.5-3.9,4.9-2.2c2.1-1.8,4.8,2.2,4.8,2.2S32.4,48.5,27,42.5z"/>
	<path fill="none" stroke="#1A1A1A" stroke-linecap="round" stroke-linejoin="round" stroke-miterlimit="10" d="M14.7,18.1
		c0,0,0,9,0,14.8s3.3,8.7,3.3,8.7l9.3,8.8c0,0,1.3,1.5,4.6,1.5s4.5-1.5,4.5-1.5s5.9-5.7,9.4-9c3.6-3.2,3.4-9.1,3.4-9.1l0-13.8"/>
	<path fill="none" stroke="#1A1A1A" stroke-linecap="round" stroke-linejoin="round" stroke-miterlimit="10" d="M45.9,58.1
		c0,0-3.3-4-3.3-13.6"/>
	<path fill="none" stroke="#1A1A1A" stroke-linecap="round" stroke-linejoin="round" stroke-miterlimit="10" d="M51.4,38.4
		c0,0,11.1-14-13.8-30.1"/>
	<path fill="none" stroke="#1A1A1A" stroke-linecap="round" stroke-linejoin="round" stroke-miterlimit="10" d="M34.4,4.6
		c0,0-1.8,5-9.7,6.7"/>
	<path fill="none" stroke="#1A1A1A" stroke-linecap="round" stroke-linejoin="round" stroke-miterlimit="10" d="M12.5,14.8
		c0,0-6.3,1.8-8.7,9.8"/>
	<path fill="none" stroke="#1A1A1A" stroke-linecap="round" stroke-linejoin="round" stroke-miterlimit="10" d="M57.1,29.3
		c0,0,1,10.5-6.2,15.9"/>
	
		<rect x="47.2" y="37.6" transform="matrix(0.7071 -0.7071 0.7071 0.7071 -16.7128 47.7855)" fill="#FFFFFF" stroke="#1A1A1A" stroke-linecap="round" stroke-linejoin="round" stroke-miterlimit="10" width="4.2" height="12.9"/>
	
		<rect x="42.6" y="36.9" transform="matrix(0.7071 -0.7071 0.7071 0.7071 -14.3786 42.1502)" fill="#FFFFFF" stroke="#1A1A1A" stroke-linecap="round" stroke-linejoin="round" stroke-miterlimit="10" width="2.1" height="3"/>
	
		<line fill="#FFFFFF" stroke="#1A1A1A" stroke-linecap="round" stroke-linejoin="round" stroke-miterlimit="10" x1="56.8" y1="45.7" x2="51" y2="51.6"/>
	
		<line fill="#FFFFFF" stroke="#1A1A1A" stroke-linecap="round" stroke-linejoin="round" stroke-miterlimit="10" x1="60.2" y1="51.3" x2="56.6" y2="54.9"/>
	<path fill="none" stroke="#1A1A1A" stroke-linecap="round" stroke-linejoin="round" stroke-miterlimit="10" d="M39.4,3.3
		c0,0,0,6-8.6,10.1C22,17.7,9.1,15.5,7.4,25.3s9,19.3,9,27.7s-6.9,7.6-6.9,7.6"/>
	
		<line fill="#FFFFFF" stroke="#1A1A1A" stroke-linecap="round" stroke-linejoin="round" stroke-miterlimit="10" x1="53.9" y1="48.6" x2="58.4" y2="53.1"/>
	
		<line fill="#FFFFFF" stroke="#1A1A1A" stroke-linecap="round" stroke-linejoin="round" stroke-miterlimit="10" x1="39.8" y1="34.6" x2="42.5" y2="37.3"/>
	
		<line fill="#FFFFFF" stroke="#1A1A1A" stroke-linecap="round" stroke-linejoin="round" stroke-miterlimit="10" x1="47.7" y1="43.3" x2="52.4" y2="48.1"/>
</g>
</svg>
