<svg id="Capa_1" xmlns="http://www.w3.org/2000/svg" viewBox="0 0 455.7 455.7"><style>.st0{fill:#dc472e}.st1{fill:#fff}</style><path class="st0" d="M398.4 455.7H57.3C25.8 455.7 0 429.9 0 398.4V57.3C0 25.8 25.8 0 57.3 0h341.1c31.5 0 57.3 25.8 57.3 57.3v341.1c0 31.5-25.8 57.3-57.3 57.3z"/><path class="st1" d="M263.3 291.7c0-1.7-.5-3.5-1.1-5.1-.8-2.1-2.6-3.1-4.9-3.4-2.6-.3-4.8.8-6.7 2.5-.8.7-1.1 1.7-1.1 1.7v55.3s.5.6.5.7c1.6 1.7 3.4 3 5.7 3.5 3.8.8 6.5-.8 7.3-4.4.2-.9.3-1.8.3-2.7v-48.1zm0 0c0-1.7-.5-3.5-1.1-5.1-.8-2.1-2.6-3.1-4.9-3.4-2.6-.3-4.8.8-6.7 2.5-.8.7-1.1 1.7-1.1 1.7v55.3s.5.6.5.7c1.6 1.7 3.4 3 5.7 3.5 3.8.8 6.5-.8 7.3-4.4.2-.9.3-1.8.3-2.7v-48.1zm60.4-81.4c-63.9-1.4-127.8-1.4-191.6 0-22.2.5-39.9 18.6-39.9 40.8v99.8c0 22.2 17.7 40.3 39.9 40.8 63.9 1.4 127.8 1.4 191.6 0 22.2-.5 39.9-18.6 39.9-40.8v-99.8c0-22.2-17.7-40.3-39.9-40.8zM150.8 360h-18.4V255.8h-19.1v-17.4h56.6v17.4h-19.1V360zm65.9-43.3V360h-16.3v-9.9c-.6.6-.9 1-1.2 1.3-3.5 4-7.5 7.3-12.6 9-2.5.9-5 1.1-7.6.7-3.6-.6-5.9-2.6-7.4-5.9-1.3-3-1.7-6.2-1.7-9.4v-75.5h16.3c0 .5.1 45.8.1 67.8 0 1.2 0 2.4.3 3.6.6 3 2.9 4.2 5.7 3.2 3.3-1.2 5.8-3.5 7.9-6.2.3-.4.3-1.1.3-1.6v-66.9h16.3c-.1 0-.1 31.6-.1 46.5zm62.1 34.6c-2.2 6.6-7 9.9-13.9 9.8-5.6 0-10.2-2.3-13.9-6.4-.4-.5-1.6-1.7-1.6-1.7v6.8h-16.3V238.4h16.3v40s.9-1.8 1.8-2.8c2.5-2.8 5.6-5 9.4-6 6.3-1.6 13.5.4 16.9 7.7 2 4.3 2.6 9 2.6 13.6v51c0 3.2-.3 6.4-1.3 9.4zm60.3-3.4c-2.8 8.3-8.7 12.9-17.3 14.1-5.3.8-10.6.7-15.6-1.6-6.8-3.1-10.7-8.6-12.4-15.7-.8-3.3-1.1-6.8-1.2-10.1-.1-13.3-.1-26.6 0-39.9 0-7 1.7-13.4 6.4-18.7 5.4-6.1 12.4-8.4 20.4-7.9 2.4.1 4.8.5 7.1 1.3 7.7 2.5 11.9 8.3 13.5 16 .6 3 .9 6 .9 9.1.1 7.1 0 22.8 0 22.8h-31.3v22.4c0 4 3.3 7.3 7.3 7.3s7.3-3.3 7.3-7.3v-11.5H341c0-.1.2 13.5-1.9 19.7zm-14.9-57.2c0-4-3.3-7.3-7.3-7.3s-7.3 3.3-7.3 7.3v12.6h14.6v-12.6zm-62.1-4c-.8-2.1-2.6-3.1-4.9-3.4-2.6-.3-4.8.8-6.7 2.5-.8.7-1.1 1.7-1.1 1.7v55.3s.5.6.5.7c1.6 1.7 3.4 3 5.7 3.5 3.8.8 6.5-.8 7.3-4.4.2-.9.3-1.8.3-2.7v-48.2c0-1.7-.5-3.4-1.1-5zM303.9 95v90.2h-16.7v-9.7c-1.8 1.8-3.4 3.5-5.2 5.1-3.1 2.7-6.6 4.7-10.6 5.5-6.3 1.2-11.6-.8-13.6-7.2-.7-2.2-1.1-4.5-1.1-6.7V95h16.6v68.8c0 .9.1 1.8.2 2.7.5 2.8 2.6 4.2 5.3 3.2 3.3-1.2 5.9-3.5 8-6.2.3-.4.3-1.1.3-1.7V95h16.8zM165.6 110.7l-11.2-47.6h-19s14.6 48.5 21.2 70.1c.2.8.3 1.6.3 2.4v49.6h17.5v-49.6c0-.8.1-1.7.3-2.4 6.5-21.6 21.2-70.1 21.2-70.1h-19c-.1 0-7.7 32.3-11.3 47.6zM218.8 92.7c-13.2 0-23.9 10.7-23.9 23.9v46.9c0 13.2 10.7 23.9 23.9 23.9s23.9-10.7 23.9-23.9v-46.9c0-13.1-10.7-23.9-23.9-23.9zm6.9 71.8c0 3.8-3.1 6.9-6.9 6.9s-6.9-3.1-6.9-6.9v-48.8c0-3.8 3.1-6.9 6.9-6.9s6.9 3.1 6.9 6.9v48.8z"/></svg>