<svg width="93" height="100" viewBox="0 0 93 100" fill="none" xmlns="http://www.w3.org/2000/svg"><path d="M71.248 44.768a.944.944 0 0 1-.858-.514s-.857-2.058-2.23-2.058c-.514 0-.857-.344-.857-.858 0-.515.343-.858.858-.858 2.572 0 3.773 2.916 3.945 3.088.171.514 0 .857-.515 1.029-.171.171-.343.171-.343.171zM29.052 84.22h-.171c-.515-.172-.686-.515-.686-1.03.857-3.773 1.2-7.547 1.2-11.492 0-.514.343-.857.858-.857.515 0 .858.343.858.857 0 4.117-.343 7.89-1.201 11.836-.172.342-.515.685-.858.685zM56.153 33.962h-.343c-.514-.171-.686-.686-.514-1.2 0-.172 4.288-9.263 19.21-3.945.515.171.687.686.515 1.029-.171.514-.686.686-1.029.514-13.55-4.802-17.153 2.916-17.153 2.916 0 .515-.343.686-.686.686z" fill="#C36"/><path d="M62.5 44.082c-3.259 0-6.003-1.372-6.175-1.543-.343-.172-.514-.687-.343-1.201.172-.343.686-.515 1.2-.343 0 0 6.176 3.087 10.293-.343 1.886-1.544 3.602-2.23 5.317-2.059 2.058.343 3.087 1.716 3.087 1.887.343.343.172.858-.171 1.2-.343.344-.858.172-1.2-.17 0 0-.687-.858-1.888-1.03-1.2-.171-2.401.343-3.945 1.544a10.225 10.225 0 0 1-6.175 2.058zM41.23 33.962a.943.943 0 0 1-.857-.514c-.172-.343-3.774-7.719-17.153-2.916-.514.171-.857 0-1.029-.515-.171-.514 0-.857.515-1.029 14.922-5.317 19.21 3.774 19.21 3.945.172.515 0 .858-.514 1.2 0-.17 0-.17-.172-.17zM35.056 44.082c-2.059 0-4.117-.514-6.004-2.058-1.372-1.2-2.744-1.715-3.945-1.544-1.2.172-1.887 1.03-1.887 1.03-.343.343-.857.514-1.2.17-.343-.342-.515-.857-.172-1.2 0 0 1.03-1.543 3.088-1.886 1.715-.172 3.43.514 5.317 2.058 4.117 3.602 10.291.514 10.291.343.344-.172.858 0 1.201.343.343.343 0 .858-.343 1.2-.343.172-3.087 1.544-6.346 1.544z" fill="#C36"/><path d="M26.308 44.769h-.343c-.515-.172-.686-.687-.515-1.03 0-.171 1.201-3.087 3.945-3.087.515 0 .858.343.858.858 0 .514-.343.857-.858.857-1.372 0-2.23 2.058-2.23 2.058a1.31 1.31 0 0 1-.857.344zM48.606 58.148c-1.886 0-3.43-1.03-4.116-1.887a.829.829 0 0 1 0-1.2.829.829 0 0 1 1.2 0c.344.342 2.745 2.743 6.175-.172.343-.344.858-.172 1.201.171.343.343.172.858-.171 1.2-1.373 1.373-2.916 1.888-4.289 1.888zM48.778 73.585c-3.087 0-6.175-1.715-9.09-4.803-.344-.343-.344-.686 0-1.029.17-.171 2.743-4.117 6.002-4.803 1.03-.171 2.059 0 3.088.515.858-.515 1.715-.686 2.573-.515 3.259.515 6.175 4.803 6.346 4.974.172.344.172.687 0 1.03-.171.171-3.43 4.63-8.404 4.974-.172-.343-.343-.343-.515-.343zm-7.376-5.489c2.573 2.573 5.146 3.945 7.72 3.774 3.258-.172 5.831-2.745 6.689-3.774-1.03-1.2-2.916-3.43-4.803-3.602-.686-.171-1.2.172-1.887.515-.343.171-.686.343-1.03 0-.685-.515-1.543-.686-2.229-.515-1.715.343-3.602 2.401-4.46 3.602z" fill="#C36"/><path d="M48.95 85.077c-6.004 0-8.405-2.744-8.577-2.916L24.421 67.067c-.171-.172-6.003-5.317-6.003-15.609V26.072c0-.514.343-.858.857-.858.515 0 .858.344.858.858v25.386c0 9.434 5.317 14.237 5.317 14.237l15.952 15.094s2.23 2.401 7.376 2.401c5.146 0 7.032-2.23 7.032-2.23.172-.171 10.292-9.948 16.124-15.437 5.832-5.146 5.489-14.923 5.489-14.923V26.93c0-.515.343-.858.858-.858.514 0 .857.343.857.858V50.6c0 .343.343 10.635-6.175 16.295-5.832 5.66-15.952 15.266-16.123 15.438.343 0-1.887 2.744-7.89 2.744z" fill="#C36"/><path d="M72.792 95.712c-.172 0-.515-.172-.686-.343-.172-.343-5.832-7.376-5.832-23.842 0-.515.343-.858.857-.858.515 0 .858.343.858.858 0 15.952 5.489 22.641 5.489 22.813.343.343.171.857-.172 1.2-.171.172-.343.172-.514.172zM82.226 61.921c-.172 0-.343 0-.515-.172-.343-.343-.514-.857-.171-1.2 0 0 5.488-7.033 3.773-17.496-1.887-11.32-10.978-22.47-27.101-32.761-.343-.172-.515-.858-.172-1.201.343-.343.858-.515 1.201-.172C75.88 19.554 85.141 31.046 87.2 42.882c1.887 11.32-3.774 18.524-4.117 18.867-.343 0-.686.172-.857.172zM36.428 15.437c-.343 0-.686-.343-.858-.686-.171-.514.172-.857.686-1.029C49.121 10.978 52.208 2.916 52.208 2.744c.172-.514.686-.686 1.03-.514.514.171.686.686.514 1.029-.171.343-3.43 9.09-17.324 12.007.171.171 0 .171 0 .171zM.75 38.25H.58c-.515-.171-.686-.686-.515-1.029C4.352 23.156 15.16 19.897 15.502 19.897c.514-.171.857.172 1.029.515.171.514-.172.857-.515 1.029-.171 0-10.463 3.087-14.408 16.295a.943.943 0 0 1-.858.514z" fill="#C36"/><path d="M81.368 73.585c-.343 0-.515-.172-.686-.343-.343-.343-.172-.858.171-1.2 11.836-8.92 10.292-26.416 10.292-26.587 0-.515.343-.858.858-.858.514 0 .857.343.857.858 0 .686 1.544 18.524-10.978 27.958-.171.172-.343.172-.514.172zM11.214 100h-.858c-.515 0-.858-.514-.686-1.03 0-.514.514-.857 1.03-.685 0 0 4.459.514 7.546-2.402 2.23-2.058 3.43-5.317 3.43-9.777 0-6.175-3.601-12.864-7.375-19.897-4.803-8.92-9.605-18.181-8.062-27.616C8.126 26.93 18.761 24.7 30.082 22.298c5.66-1.2 11.492-2.4 16.466-4.802C60.613 10.806 60.785 1.029 60.785.858c0-.515.343-.858.858-.858.514 0 .857.343.857.858 0 .514-.171 10.977-15.266 18.181-5.145 2.573-11.149 3.774-16.98 4.975-11.15 2.23-20.756 4.288-22.47 14.751-1.545 8.92 3.258 18.01 7.89 26.587 3.945 7.204 7.547 14.065 7.547 20.754 0 4.975-1.373 8.748-4.117 11.15-2.744 2.401-6.347 2.744-7.89 2.744zM69.533 73.07c-.343-.514-.172-1.029.343-1.372 0 0 .686-.514 1.715-1.544.343-.343 1.03-.343 1.373 0 .343.344.343 1.03 0 1.373-1.201 1.2-2.059 1.715-2.059 1.886-.171.172-.343.172-.514.172-.515-.171-.687-.343-.858-.515zm3.774-3.43c-.344-.343-.515-1.03-.172-1.372.515-.686 1.03-1.201 1.715-1.887.343-.343.858-.515 1.373-.172.343.343.514.858.171 1.373-.515.686-1.2 1.372-1.715 2.058a1.31 1.31 0 0 1-.858.343c-.171 0-.343-.172-.514-.343zm3.259-3.945c-.344-.343-.515-.858-.172-1.372.858-1.201 1.2-1.716 1.2-1.887.172-.515.687-.686 1.201-.515.515.172.686.686.515 1.2-.172.515-.686 1.202-1.544 2.23-.171.344-.514.344-.857.344 0 .171-.172.171-.343 0z" fill="#C36"/><path d="M69.361 73.242c-.343-.515-.171-1.2.343-1.544 0 0 .686-.514 1.716-1.543.514-.515 1.2-.515 1.715 0 .514.514.514 1.2 0 1.715-1.372 1.372-2.059 1.886-2.23 1.886-.172.172-.515.172-.686.172-.343-.171-.686-.514-.858-.686zm2.402-2.916c-1.03 1.03-1.716 1.544-1.716 1.544-.343.171-.514.686-.171 1.029.171.343.686.514 1.029.171 0 0 .858-.514 2.058-1.715.343-.343.343-.686 0-1.029-.171-.171-.343-.171-.514-.171-.343 0-.515 0-.686.171zm1.372-.515c-.515-.343-.515-1.2-.172-1.715.515-.686 1.03-1.2 1.544-1.887.343-.514 1.2-.514 1.715-.171.172.171.343.514.343.858 0 .343 0 .686-.343.857-.514.686-1.2 1.372-1.715 2.058-.172.343-.686.515-1.03.343.172 0-.17-.171-.342-.343zm1.887-3.259c-.515.686-1.201 1.373-1.716 1.887-.343.343-.171.858 0 1.03.343.342.858.17 1.03-.172.514-.686 1.029-1.372 1.715-2.058.171-.172.171-.344.171-.515 0-.172-.171-.343-.343-.515-.171-.171-.343-.171-.343-.171l-.514.514zm1.372-.686c-.172-.171-.343-.514-.515-.857 0-.343 0-.686.172-.858.857-1.2 1.2-1.715 1.2-1.887.172-.514.858-.857 1.544-.686.515.172.858.858.686 1.544-.171.514-.686 1.372-1.543 2.401-.172.343-.687.515-1.03.515 0 .171-.343 0-.514-.172zm1.372-3.259c-.172.172-.343.858-1.2 1.887-.172.172-.172.343-.172.515 0 .171.171.343.343.514.343.172.858.172 1.029-.171.858-1.03 1.2-1.716 1.372-2.23.172-.343 0-.858-.343-1.03h-.171a.943.943 0 0 0-.858.515z" fill="#fff"/><path d="M27.166 73.413c-.172 0-.343 0-.515-.171-.171 0-.858-.515-2.23-1.715-.343-.344-.343-1.03 0-1.373.343-.343 1.03-.343 1.372 0 1.03 1.03 1.716 1.544 1.716 1.544.514.343.686.858.343 1.372 0 .172-.343.343-.686.343zm-3.602-3.43c-.343 0-.687 0-.858-.343-.515-.686-1.03-1.2-1.715-1.887-.343-.343-.343-1.03.171-1.372.343-.343 1.03-.343 1.372.171.515.686 1.201 1.372 1.716 1.887.343.343.343 1.03-.172 1.372-.171 0-.343 0-.514.172zm-3.26-3.945a1.31 1.31 0 0 1-.857-.343c-.858-1.03-1.2-1.716-1.544-2.23-.171-.515 0-1.03.515-1.2.514-.172 1.029 0 1.2.514 0 .171.344.686 1.201 1.886.343.344.172 1.03-.171 1.373 0-.172-.172 0-.343 0z" fill="#C36"/><path d="M27.166 73.585c-.172 0-.515 0-.686-.172 0 0-.858-.514-2.23-1.886-.515-.515-.515-1.201 0-1.716.514-.514 1.2-.514 1.715 0 1.03 1.03 1.715 1.372 1.715 1.372.515.344.686 1.03.343 1.544-.171.686-.343.858-.857.858zm-2.059-3.43c-.171 0-.343.17-.514.17-.343.344-.343.687 0 1.03 1.2 1.2 2.058 1.715 2.058 1.715.343.172.858 0 1.03-.343.17-.343.17-.857-.344-1.029 0 0-.686-.514-1.887-1.544h-.343zm-1.543 0c-.343 0-.686-.172-1.03-.344-.514-.686-1.029-1.2-1.715-1.887a1.31 1.31 0 0 1-.343-.857c0-.343.172-.515.343-.858.515-.343 1.2-.343 1.715.172.515.686 1.201 1.372 1.716 1.886.343.515.343 1.201-.172 1.716 0 0-.343.171-.514.171zm-1.887-3.946c-.172 0-.343 0-.343.172-.172.171-.172.343-.343.514 0 .172 0 .343.171.515.515.686 1.2 1.372 1.716 1.887.343.343.686.343 1.029 0 .343-.343.343-.686 0-1.03-.515-.514-1.03-1.2-1.716-1.886 0 0-.343-.172-.514-.172zm-1.372 0c-.343 0-.858-.171-1.03-.514-.857-1.03-1.372-1.716-1.543-2.402-.172-.514 0-1.2.686-1.543.514-.172 1.372 0 1.544.686 0 .171.343.686 1.2 1.886.172.172.343.515.172.858 0 .343-.172.515-.515.858-.171 0-.343.171-.514.171zm-1.544-3.945h-.172c-.343.172-.514.515-.343 1.03.172.514.686 1.2 1.544 2.23.172.342.686.342 1.03.17.17-.17.342-.342.342-.514 0-.171 0-.343-.171-.515-.858-1.2-1.201-1.715-1.201-1.886-.515-.343-.858-.515-1.03-.515z" fill="#fff"/></svg>