<svg width="95" height="100" viewBox="0 0 95 100" fill="none" xmlns="http://www.w3.org/2000/svg"><path d="M73.306 44.769a.943.943 0 0 1-.858-.515s-.857-2.058-2.23-2.058c-.514 0-.857-.343-.857-.858 0-.515.343-.858.858-.858 2.572 0 3.773 2.916 3.945 3.088.171.514 0 .857-.515 1.029-.171.171-.171.172-.343.172zM31.11 84.22h-.171c-.515-.172-.686-.515-.686-1.03.857-3.773 1.2-7.547 1.2-11.492 0-.514.343-.857.858-.857.515 0 .858.343.858.857 0 4.117-.343 7.89-1.201 11.835-.172.343-.515.686-.858.686zM58.212 33.962h-.344c-.514-.171-.686-.686-.514-1.2 0-.172 4.288-9.263 19.21-3.946.515.172.687.687.515 1.03-.171.343-.686.686-1.029.514-13.379-4.803-16.98 2.573-17.152 2.916 0 .515-.343.686-.687.686z" fill="#1A1A1A"/><path d="M64.558 44.082c-3.259 0-6.004-1.372-6.175-1.543-.343-.172-.515-.687-.343-1.201.172-.343.686-.515 1.2-.343 0 0 6.176 3.087 10.292-.343 1.887-1.544 3.602-2.23 5.318-2.059 2.058.343 3.087 1.716 3.087 1.887.343.343.172.858-.171 1.2-.344.344-.858.172-1.201-.17 0 0-.686-.858-1.887-1.03-1.2-.171-2.401.343-3.945 1.544-2.058 1.544-4.117 2.058-6.175 2.058zM43.289 33.962a.943.943 0 0 1-.858-.514c-.172-.343-3.774-7.719-17.153-2.916-.514.171-.857 0-1.029-.515-.171-.514 0-.857.515-1.029 14.923-5.317 19.21 3.774 19.21 3.945.172.515 0 .858-.514 1.2 0-.17 0-.17-.171-.17zM37.114 44.082c-2.058 0-4.117-.514-6.004-2.058-1.372-1.2-2.744-1.715-3.945-1.544-1.2.172-1.887 1.03-1.887 1.03-.343.342-.857.514-1.2.17-.343-.342-.515-.857-.172-1.2 0 0 1.03-1.543 3.088-1.887 1.715-.171 3.43.515 5.317 2.059 4.117 3.602 10.292.514 10.292.343.343-.172.857 0 1.2.343.172.343 0 .858-.343 1.2-.343.172-3.087 1.544-6.346 1.544z" fill="#1A1A1A"/><path d="M28.366 44.769h-.343c-.515-.172-.686-.687-.515-1.03 0-.171 1.201-3.087 3.945-3.087.515 0 .858.343.858.858 0 .514-.343.857-.858.857-1.372 0-2.23 2.058-2.23 2.058a1.31 1.31 0 0 1-.857.344zM50.836 58.148c-1.887 0-3.43-1.03-4.117-1.887a.829.829 0 0 1 0-1.2.829.829 0 0 1 1.2 0c.344.342 2.745 2.743 6.176-.172.343-.344.858-.172 1.2.171.344.343.172.858-.171 1.2-1.544 1.373-3.088 1.888-4.288 1.888zM50.836 73.585c-3.087 0-6.175-1.715-9.09-4.803-.344-.343-.344-.686 0-1.029.17-.172 2.743-4.117 6.002-4.803 1.03-.171 2.059 0 3.088.515.858-.515 1.715-.686 2.573-.515 3.259.515 6.175 4.803 6.346 4.974.172.344.172.687 0 1.03-.171.171-3.43 4.63-8.404 4.974-.172-.343-.343-.343-.515-.343zm-7.376-5.489c2.573 2.573 5.146 3.945 7.719 3.774 3.26-.172 5.832-2.745 6.69-3.774-1.03-1.2-2.916-3.43-4.803-3.602-.686-.172-1.2.171-1.887.514-.343.172-.686.344-1.03 0-.685-.514-1.543-.686-2.229-.514-1.715.343-3.43 2.401-4.46 3.602z" fill="#1A1A1A"/><path d="M51.008 85.077c-6.004 0-8.405-2.744-8.577-2.916L26.48 67.067c-.171-.172-6.003-5.317-6.003-15.609V26.072c0-.514.343-.858.858-.858.514 0 .857.344.857.858v25.386c0 9.434 5.317 14.237 5.317 14.237L43.46 80.789s2.23 2.401 7.376 2.401c5.146 0 7.033-2.23 7.033-2.23.171-.171 10.291-9.948 16.123-15.437 5.832-5.146 5.489-14.923 5.489-14.923V26.93c0-.515.343-.858.858-.858.514 0 .857.343.857.858V50.6c0 .343.343 10.635-6.175 16.295-5.832 5.66-15.952 15.266-16.123 15.438.343 0-1.887 2.744-7.89 2.744z" fill="#1A1A1A"/><path d="M74.85 95.712c-.172 0-.515-.172-.687-.343-.171-.343-5.831-7.376-5.831-23.842 0-.515.343-.858.857-.858.515 0 .858.343.858.858 0 15.952 5.489 22.641 5.489 22.813.343.343.171.857-.172 1.2-.171.172-.343.172-.514.172zM84.284 61.921c-.172 0-.343 0-.515-.171-.343-.343-.515-.858-.172-1.201 0 0 5.49-7.033 3.774-17.496-1.887-11.32-10.978-22.47-27.101-32.761-.343-.172-.515-.858-.172-1.201.172-.343.858-.515 1.201-.172 16.638 10.635 25.9 22.127 27.959 33.963 1.887 11.32-3.774 18.525-4.117 18.868-.343 0-.686.171-.857.171zM38.486 15.437c-.343 0-.686-.343-.858-.686-.171-.514.172-.857.687-1.029C51.178 10.978 54.266 2.916 54.266 2.744c.172-.514.687-.686 1.03-.514.514.171.686.686.514 1.029-.171.343-3.43 9.09-17.324 12.007.172.171 0 .171 0 .171zM2.809 38.25h-.172c-.515-.171-.686-.686-.515-1.029C6.411 23.156 17.217 19.897 17.56 19.897c.514-.171.857.172 1.029.515.172.343-.171.857-.515 1.029-.171 0-10.463 3.087-14.408 16.295a.943.943 0 0 1-.857.515z" fill="#1A1A1A"/><path d="M83.426 73.585c-.343 0-.514-.172-.686-.343-.343-.343-.172-.858.172-1.2 11.835-8.92 10.291-26.416 10.291-26.587 0-.515.343-.858.858-.858.514 0 .857.343.857.858 0 .686 1.544 18.524-10.977 27.958-.172.172-.343.172-.515.172zM13.272 100h-.858c-.514 0-.857-.515-.686-1.03 0-.514.515-.857 1.03-.685 0 0 4.459.514 7.547-2.402 2.23-2.058 3.43-5.317 3.43-9.777 0-6.175-3.602-12.864-7.376-19.897-4.802-8.92-9.605-18.182-8.061-27.616C10.184 26.93 20.819 24.7 32.14 22.298c5.66-1.2 11.492-2.4 16.466-4.802C62.672 10.806 62.843 1.372 62.843.858c0-.515.343-.858.858-.858.514 0 .857.343.857.858 0 .514-.171 10.977-15.266 18.181-5.145 2.573-11.149 3.774-16.98 4.975-11.15 2.23-20.755 4.288-22.47 14.751-1.544 8.92 3.258 18.01 7.89 26.587 3.945 7.204 7.547 14.065 7.547 20.754 0 4.975-1.372 8.748-4.117 11.15-2.744 2.4-6.175 2.744-7.89 2.744z" fill="#1A1A1A"/><path d="M12.323 46.704L5.112 67.623l6.81 2.348 7.212-20.919-6.811-2.348z" fill="#fff"/><path d="M11.9 70.84h-.343l-6.861-2.4c-.172 0-.343-.172-.515-.516-.171-.171-.171-.514 0-.686l7.204-20.926c0-.171.172-.343.515-.514.171-.172.514-.172.686 0l6.861 2.401c.515.172.686.686.515 1.03l-7.204 20.925c-.172.515-.515.687-.858.687zm-5.66-3.773l5.145 1.715 6.69-19.382-5.146-1.716-6.69 19.383z" fill="#1A1A1A"/><path d="M15.681 42.426l-1.677 4.865 3.406 1.174 1.677-4.865-3.406-1.174z" fill="#fff"/><path d="M17.389 49.228h-.344l-3.43-1.2c-.172 0-.343-.172-.515-.515-.171-.172-.171-.515 0-.686l1.716-4.803c.171-.515.686-.686 1.029-.515l3.43 1.201c.172 0 .343.172.515.515.171.171.171.514 0 .686l-1.715 4.803c0 .171-.172.343-.515.514h-.171zm-2.23-2.573l1.715.686 1.2-3.259-1.715-.686-1.2 3.26zM15.33 72.041h-.343l-13.379-4.46c-.514-.171-.686-.686-.514-1.029.171-.514.686-.686 1.029-.514l13.379 4.46c.514.17.686.685.514 1.029 0 .171-.343.514-.686.514zM9.155 81.475h-.343L.58 78.56c-.515-.171-.686-.686-.515-1.029.172-.343.686-.686 1.03-.514l8.233 2.915c.514.172.686.687.514 1.03 0 .343-.343.514-.686.514z" fill="#1A1A1A"/><path d="M5.038 80.103h-.343c-.514-.172-.686-.686-.514-1.03l3.602-10.29c.171-.515.686-.687 1.029-.515.515.171.686.686.515 1.029L5.725 79.588c0 .172-.344.515-.687.515zM17.56 43.568h-.343c-.515-.172-.686-.686-.515-1.03l2.059-6.174c.171-.515.686-.686 1.029-.515.514.172.686.686.514 1.03l-2.058 6.174c0 .343-.343.515-.686.515zM8.298 67.067h-.343c-.515-.172-.686-.686-.515-1.03l3.945-10.805c.172-.515.686-.687 1.03-.515.514.172.685.686.514 1.03L8.984 66.551c0 .172-.343.515-.686.515z" fill="#1A1A1A"/></svg>