<svg width="93" height="100" viewBox="0 0 93 100" fill="none" xmlns="http://www.w3.org/2000/svg"><path d="M25.025 50.306a.943.943 0 0 1-.143-.99c.182-.591.823-.892 1.414-.71.59.183 1.906.44 3.329.83.59.182.916.58.841 1.304-.182.591-.58.916-1.305.842-1.556-.28-2.87-.537-3.57-.853-.242-.024-.35-.157-.566-.423zm6.815 1.307c-.108-.133-.192-.508-.167-.749-.059-.616.473-1.049 1.089-1.108l.965.099c.616-.059 1.473-.093 2.221-.26.616-.06 1.074.231 1.133.847.059.616-.232 1.074-.848 1.133-.99.142-1.846.176-2.462.235-.374.084-.724-.074-1.098.01-.266.216-.616.059-.833-.207zm6.93-.998c-.108-.133-.217-.266-.192-.508-.192-.507.232-1.073.74-1.265 1.87-.418 2.885-.802 3.018-.91.4-.325 1.123-.251 1.448.148.325.399.251 1.123-.148 1.448-.532.433-2.536.96-3.792 1.319-.4.325-.75.167-1.074-.232z" fill="#1A1A1A"/><path d="M24.759 50.522c-.217-.266-.409-.773-.251-1.123.158-.35.315-.699.69-.782.266-.217.64-.3.99-.143.59.182 1.905.439 3.329.828.35.158.59.183.807.449.217.266.3.64.143.99-.158.35-.183.59-.449.807a.943.943 0 0 1-.99.143 33.704 33.704 0 0 1-3.57-.853c-.241-.025-.483-.05-.7-.316zm5.058-.58c-.108-.132-.217-.265-.458-.29a27.354 27.354 0 0 1-3.33-.828c-.24-.025-.482-.05-.615.059-.133.108-.399.325-.424.566-.157.35.143.99.626 1.04.59.182 2.014.571 3.57.852.241.025.483.05.616-.059.133-.108.399-.325.423-.566-.216-.266-.192-.507-.408-.773.108.133.108.133 0 0zm1.89 1.78a1.31 1.31 0 0 1-.275-.883 1.31 1.31 0 0 1 .448-.807c.266-.217.64-.3.882-.276l.965.1c.616-.06 1.473-.094 2.222-.261.615-.06 1.423.39 1.482 1.005a.943.943 0 0 1-.34.94c-.267.217-.532.434-.907.517-.99.143-1.847.177-2.595.344-.375.084-.724-.074-1.099.01-.216-.266-.566-.424-.783-.69zm5.157-1.546c-.216-.266-.458-.29-.699-.315-.857.034-1.605.201-2.221.26-.242-.025-.616.06-1.098.01-.242-.025-.375.083-.64.3-.134.108-.158.35-.183.59a.829.829 0 0 0 .758.932c.483.05.724.074 1.098-.01.724.074 1.606-.201 2.463-.235.241.024.374-.084.64-.3.266-.217.158-.35.183-.592-.084-.374-.192-.507-.3-.64zm1.773.547c-.108-.133-.217-.266-.192-.507-.167-.749.257-1.315.897-1.615 1.872-.418 2.778-.935 2.886-.802a1.172 1.172 0 0 1 1.69.173c.433.532.359 1.256-.306 1.797-.532.434-2.296.985-3.793 1.32-.399.324-.857.033-1.182-.366zm4.99-2.293c-.325-.4-.808-.449-1.207-.124-.133.109-1.147.492-3.019.91-.241-.024-.507.192-.532.434-.025.241-.158.35-.074.724s.541.665.916.581c1.871-.418 3.26-.885 3.66-1.21.531-.434.472-1.05.256-1.315z" fill="#fff"/><path d="M55.37 49.958a.943.943 0 0 1-.06-.998c.23-.574.892-.82 1.466-.59.574.23 1.864.593 3.25 1.098.574.23.865.655.732 1.37-.23.574-.655.865-1.37.732-1.528-.408-2.817-.771-3.488-1.143-.239-.044-.336-.186-.53-.469zm6.686 1.862c-.097-.141-.15-.521-.106-.76-.008-.618.558-1.006 1.176-1.014l.954.177c.619-.008 1.475.028 2.235-.077.619-.008 1.051.32 1.06.938.008.618-.32 1.05-.938 1.059-.998.06-1.855.024-2.474.032-.38.053-.715-.133-1.095-.08-.283.194-.618.008-.812-.275zm6.988-.425c-.097-.142-.194-.283-.15-.522-.15-.521.32-1.05.84-1.2 1.9-.264 2.943-.563 3.084-.66.425-.29 1.14-.158 1.431.267.291.424.158 1.14-.266 1.43-.566.389-2.607.749-3.888 1.004-.425.29-.76.105-1.051-.32z" fill="#1A1A1A"/><path d="M55.087 50.152c-.194-.282-.343-.804-.157-1.14.185-.335.371-.67.751-.723a.943.943 0 0 1 .998-.06c.575.23 1.864.593 3.25 1.098.336.186.574.23.768.513a.943.943 0 0 1 .061.998c-.186.336-.23.574-.513.768a.944.944 0 0 1-.998.061 33.733 33.733 0 0 1-3.489-1.143c-.238-.044-.477-.089-.67-.372zm5.089-.162c-.097-.142-.194-.283-.433-.328-1.527-.407-2.675-.868-3.25-1.098-.238-.045-.476-.09-.618.008-.141.097-.424.291-.468.53-.186.335.06.998.537 1.087a33.7 33.7 0 0 0 3.489 1.143c.238.044.477.089.618-.008.141-.097.424-.291.469-.53-.194-.283-.15-.521-.344-.804.097.141.097.141 0 0zm1.738 1.927a1.31 1.31 0 0 1-.202-.9 1.31 1.31 0 0 1 .513-.769 1.31 1.31 0 0 1 .901-.202l.954.178c.619-.009 1.476.028 2.236-.078.618-.008 1.386.505 1.394 1.124a.943.943 0 0 1-.416.91c-.283.193-.566.387-.946.44-.998.06-1.855.024-2.615.13-.38.052-.715-.134-1.095-.081-.194-.283-.53-.469-.724-.752zm5.267-1.116c-.194-.283-.433-.327-.671-.372-.857-.036-1.617.07-2.236.077-.238-.044-.618.009-1.095-.08-.238-.045-.38.052-.663.246-.141.097-.185.336-.23.574a.829.829 0 0 0 .68.99c.476.09.715.134 1.095.081.715.133 1.616-.069 2.473-.033.239.045.38-.052.663-.246.283-.194.186-.336.23-.574-.052-.38-.15-.522-.246-.663zm1.722.69c-.098-.14-.195-.282-.15-.52-.105-.76.363-1.29 1.026-1.537 1.9-.263 2.846-.703 2.943-.562a1.172 1.172 0 0 1 1.669.31c.388.567.255 1.282-.453 1.767-.565.388-2.368.793-3.888 1.003-.424.291-.856-.036-1.147-.46zm5.16-1.876c-.29-.424-.767-.513-1.192-.222-.141.097-1.184.397-3.084.66-.238-.045-.52.15-.565.388-.045.238-.186.335-.134.715.053.38.486.707.865.655 1.9-.263 3.323-.615 3.747-.906.566-.388.558-1.007.364-1.29z" fill="#fff"/><path d="M71.248 44.768a.943.943 0 0 1-.858-.514s-.858-2.058-2.23-2.058c-.514 0-.858-.344-.858-.858 0-.515.343-.858.858-.858 2.573 0 3.774 2.916 3.945 3.088.172.514 0 .857-.514 1.029-.172.171-.172.171-.343.171zM29.052 84.22h-.171c-.515-.172-.686-.515-.686-1.03.857-3.773 1.2-7.547 1.2-11.492 0-.514.343-.857.858-.857.514 0 .857.343.857.857 0 4.117-.343 7.89-1.2 11.836-.172.342-.515.686-.858.686zM56.154 33.962h-.343c-.515-.171-.686-.686-.515-1.2 0-.172 4.288-9.263 19.211-3.945.515.171.686.686.515 1.029-.172.514-.686.686-1.03.514-13.378-4.802-16.98 2.573-17.152 2.916 0 .515-.343.686-.686.686z" fill="#1A1A1A"/><path d="M62.5 44.082c-3.26 0-6.004-1.372-6.175-1.543-.343-.172-.515-.687-.343-1.201.171-.343.686-.515 1.2-.343 0 0 6.175 3.087 10.292-.343 1.887-1.544 3.602-2.23 5.317-2.059 2.059.343 3.088 1.716 3.088 1.887.343.343.171.858-.172 1.2-.343.344-.857.172-1.2-.17 0 0-.686-.858-1.887-1.03-1.2-.171-2.401.343-3.945 1.544-2.058 1.544-4.117 2.058-6.175 2.058zM41.23 33.962a.943.943 0 0 1-.857-.514c-.172-.343-3.774-7.719-17.153-2.916-.514.171-.857 0-1.029-.515-.171-.514 0-.857.515-1.029 14.922-5.317 19.21 3.774 19.21 3.945.172.515 0 .858-.514 1.2 0-.17 0-.17-.172-.17zM35.056 44.082c-2.059 0-4.117-.514-6.004-2.058-1.372-1.2-2.744-1.715-3.945-1.544-1.2.172-1.887 1.03-1.887 1.03-.343.343-.857.514-1.2.17-.343-.342-.515-.857-.172-1.2 0 0 1.03-1.543 3.088-1.886 1.715-.172 3.43.514 5.317 2.058 4.117 3.602 10.291.514 10.291.343.344-.172.858 0 1.201.343.172.343 0 .858-.343 1.2-.343.172-3.087 1.544-6.346 1.544z" fill="#1A1A1A"/><path d="M26.308 44.769h-.344c-.514-.172-.686-.687-.514-1.03 0-.171 1.2-3.087 3.945-3.087.515 0 .858.343.858.858 0 .514-.343.857-.858.857-1.372 0-2.23 2.058-2.23 2.058a1.31 1.31 0 0 1-.857.344zM48.778 59.863c-1.887 0-3.43-1.03-4.116-1.887a.829.829 0 0 1 0-1.2.83.83 0 0 1 1.2 0c.343.342 2.745 2.744 6.175-.172.343-.343.858-.172 1.2.171.344.343.172.858-.17 1.201-1.544 1.372-3.088 1.887-4.289 1.887zM48.778 73.585c-3.088 0-6.175-1.715-9.091-4.803-.343-.343-.343-.686 0-1.029.171-.172 2.744-4.117 6.003-4.803 1.03-.171 2.059 0 3.088.515.857-.515 1.715-.686 2.572-.515 3.26.515 6.175 4.803 6.347 4.974.172.344.172.687 0 1.03-.172.171-3.43 4.63-8.405 4.974-.171-.343-.343-.343-.514-.343zm-7.376-5.489c2.573 2.573 5.146 3.945 7.719 3.774 3.259-.172 5.832-2.745 6.69-3.774-1.03-1.2-2.917-3.43-4.803-3.602-.687-.171-1.201.171-1.887.514-.343.172-.686.344-1.03 0-.686-.514-1.543-.685-2.23-.514-1.715.343-3.43 2.401-4.459 3.602z" fill="#1A1A1A"/><path d="M48.949 85.077c-6.003 0-8.405-2.744-8.576-2.916L24.42 67.067c-.172-.172-6.004-5.317-6.004-15.609V26.072c0-.514.343-.858.858-.858.514 0 .858.344.858.858v25.386c0 9.434 5.317 14.237 5.317 14.237l15.952 15.094s2.23 2.401 7.375 2.401c5.146 0 7.033-2.23 7.033-2.23.172-.171 10.292-9.948 16.123-15.437 5.832-5.146 5.49-14.923 5.49-14.923V26.93c0-.515.342-.858.857-.858.515 0 .858.343.858.858V50.6c0 .343.343 10.635-6.175 16.295-5.832 5.66-15.952 15.266-16.124 15.438.343 0-1.887 2.744-7.89 2.744z" fill="#1A1A1A"/><path d="M72.792 95.712c-.172 0-.515-.172-.686-.343-.172-.343-5.832-7.376-5.832-23.842 0-.515.343-.858.858-.858.514 0 .857.343.857.858 0 15.952 5.489 22.641 5.489 22.813.343.343.172.857-.171 1.2-.172.172-.344.172-.515.172zM82.225 61.921c-.171 0-.343 0-.514-.172-.343-.343-.515-.857-.172-1.2 0 0 5.49-7.033 3.774-17.496-1.887-11.32-10.978-22.47-27.101-32.761-.343-.172-.515-.858-.172-1.201.172-.343.858-.515 1.2-.172C75.88 19.554 85.142 31.046 87.2 42.882c1.887 11.32-3.774 18.524-4.117 18.867-.343 0-.686.172-.858.172zM36.428 15.437c-.343 0-.686-.343-.858-.686-.171-.514.172-.857.686-1.029C49.121 10.978 52.208 2.916 52.208 2.744c.172-.514.686-.686 1.03-.514.514.171.686.686.514 1.029-.172.343-3.43 9.09-17.324 12.007.171.171 0 .171 0 .171zM.75 38.25H.58c-.515-.171-.686-.686-.515-1.029C4.352 23.156 15.16 19.897 15.502 19.897c.514-.171.857.172 1.029.515.171.514-.172.857-.515 1.029-.171 0-10.463 3.087-14.408 16.295a.943.943 0 0 1-.858.514z" fill="#1A1A1A"/><path d="M81.368 73.585c-.343 0-.514-.172-.686-.343-.343-.343-.171-.858.172-1.2 11.835-8.92 10.291-26.416 10.291-26.587 0-.515.343-.858.858-.858.514 0 .858.343.858.858 0 .686 1.543 18.524-10.978 27.958-.172.172-.343.172-.515.172zM11.213 100h-.857c-.515 0-.858-.514-.686-1.03 0-.514.514-.857 1.029-.685 0 0 4.46.514 7.547-2.402 2.23-2.058 3.43-5.317 3.43-9.777 0-6.175-3.602-12.864-7.375-19.897-4.803-8.92-9.606-18.181-8.062-27.616C8.126 26.93 18.76 24.7 30.081 22.298c5.66-1.2 11.493-2.4 16.467-4.802C60.613 10.806 60.784 1.372 60.784.858c0-.515.344-.858.858-.858.515 0 .858.343.858.858 0 .514-.172 10.977-15.266 18.181-5.146 2.573-11.15 3.774-16.981 4.975-11.15 2.23-20.755 4.288-22.47 14.751-1.544 8.92 3.259 18.01 7.89 26.587 3.945 7.204 7.547 14.065 7.547 20.754 0 4.975-1.372 8.748-4.116 11.15-2.745 2.401-6.175 2.744-7.89 2.744z" fill="#1A1A1A"/></svg>