<svg width="94" height="100" viewBox="0 0 94 100" fill="none" xmlns="http://www.w3.org/2000/svg"><path d="M63.808 55.232c-.515-.858-1.03-1.716-1.716-2.573-.171-.172-.343-.343-.514-.343h-.172c-.171 0-.343 0-.343.171-.171.172-.343.343-.343.515 0 .171 0 .343.172.514a13.81 13.81 0 0 1 1.543 2.402c.172.171.343.343.687.343.171 0 .171 0 .343-.172.171-.171.343-.171.343-.514v-.343zM60.377 50.257c-1.2-1.372-2.058-2.23-2.058-2.23-.172-.171-.343-.171-.515-.171-.171 0-.343 0-.514.171-.343.343-.343.687 0 1.03 0 0 .857.857 1.887 2.23.171.171.343.343.514.343.172 0 .343 0 .515-.172.343-.515.343-.858.171-1.2zM65.523 61.75c.172-.172.172-.343.172-.515-.172-1.2-.343-2.058-.686-2.916-.172-.343-.343-.515-.686-.515h-.172c-.343.172-.686.515-.515.858.172.858.515 1.715.687 2.916 0 .343.343.686.686.686h.171c0-.343.172-.343.343-.514z" fill="#1A1A1A"/><path d="M60.549 50.086c-1.2-1.372-2.059-2.23-2.059-2.402-.171-.171-.514-.343-.686-.343-.343 0-.514.172-.686.343-.343.344-.514 1.03 0 1.544 0 0 .858.858 1.887 2.23.171.172.515.343.858.343.171 0 .514-.172.686-.172.171-.171.343-.514.343-.686 0-.171-.172-.686-.343-.857zm-.172 1.372c-.171.172-.343.172-.514.172-.343 0-.515-.172-.687-.344-1.029-1.372-1.886-2.23-1.886-2.23a.829.829 0 0 1 0-1.2.829.829 0 0 1 1.2 0s.858 1.03 2.059 2.23c.171.343.171 1.029-.172 1.372zM64.15 55.06c-.514-.858-1.028-1.715-1.715-2.573a2.369 2.369 0 0 0-.686-.515c-.343 0-.514 0-.857.172a2.365 2.365 0 0 0-.515.686c0 .343 0 .515.172.858a13.81 13.81 0 0 1 1.544 2.401.943.943 0 0 0 .857.515c.172 0 .343 0 .515-.172.686-.171.857-.857.686-1.372zm-1.028 1.372a.943.943 0 0 1-.858-.514 13.808 13.808 0 0 0-1.544-2.402c-.343-.343-.171-1.029.172-1.2.343-.172 1.029-.172 1.2.171.687.858 1.201 1.887 1.716 2.573.171.515 0 1.03-.343 1.2 0 .172-.172.172-.343.172zM65.009 62.264a.943.943 0 0 0 .857-.514c.172-.343.172-.515.172-.858-.172-1.2-.515-2.23-.686-3.088-.172-.514-.686-.857-1.373-.686-.514.172-.857.686-.686 1.373.172.857.515 1.715.687 2.744 0 .686.514 1.03 1.029 1.03zm-1.03-.858c-.171-1.029-.343-2.058-.686-2.915-.171-.515.172-1.03.687-1.03.514-.171 1.029.172 1.029.687.171.857.514 1.886.686 3.087.171.515-.172 1.03-.686 1.03h-.172c-.343 0-.686-.344-.858-.858z" fill="#fff"/><path d="M65.18 62.264c.515-.171.858-.514.686-1.029-.171-1.2-.343-2.23-.686-3.087-.172-.515-.686-.687-1.03-.687-.514.172-.685.687-.685 1.03.171.857.514 1.715.686 2.916 0 .514.343.857 1.03.857-.172 0-.172 0 0 0zm-1.03-.858c-.17-1.029-.342-2.058-.685-2.915-.172-.343.171-.858.514-.858h.172c.343 0 .686.171.686.514.171.858.515 1.887.686 2.916 0 .172 0 .343-.171.515-.172.172-.344.343-.515.343h-.172c0 .172-.343-.171-.514-.514zM60.377 50.086c-1.2-1.372-2.058-2.23-2.058-2.23a.83.83 0 0 0-1.2 0 .829.829 0 0 0 0 1.2s.857.858 1.886 2.23c.172.172.515.343.686.343.172 0 .343 0 .515-.171.514-.343.514-1.03.171-1.372zm-.171 1.2c-.172 0-.343.172-.515.172-.171 0-.514-.172-.514-.343-1.03-1.372-1.887-2.23-1.887-2.23-.343-.343-.343-.686 0-1.03.171-.17.343-.17.514-.17.172 0 .343 0 .515.17 0 0 .858.859 2.058 2.23.172.515.172.858-.171 1.201zM63.98 55.232c-.515-.858-1.03-1.716-1.716-2.573-.343-.343-.858-.515-1.2-.172-.344.343-.515.858-.172 1.2.686.858 1.2 1.716 1.544 2.402a.943.943 0 0 0 .857.515c.172 0 .343 0 .343-.172.343-.343.515-.857.343-1.2zm-.515 1.029c-.172 0-.172 0-.343.171-.343 0-.515-.171-.686-.343a13.813 13.813 0 0 0-1.544-2.401c-.172-.172-.172-.343-.172-.515 0-.171.172-.343.343-.514.172-.172.343-.172.343-.172h.172c.171 0 .343.172.514.343.687.858 1.201 1.715 1.716 2.573.171.172.171.343 0 .515l-.343.343z" fill="#fff"/><path d="M34.991 53.516c-.171 0-.171-.171-.343-.171h-.171c-.172 0-.343.171-.515.343-.514 1.029-1.029 1.887-1.372 2.744-.172.343 0 .858.343 1.03h.343c.343 0 .515-.172.686-.515.343-.858.858-1.715 1.372-2.573.172-.343 0-.686-.343-.858zM38.079 48.37c-.172 0-.343.172-.515.344-.171.171-.858 1.029-1.887 2.4-.171.172-.171.344-.171.516 0 .171.171.342.343.514.171.172.343.172.515.172.171 0 .514-.172.514-.344.858-1.2 1.544-2.058 1.715-2.4.343-.344.172-.858-.171-1.03 0 0-.172-.172-.343-.172zM32.419 58.834s-.172 0 0 0c-.515 0-.858.171-.858.514a57.427 57.427 0 0 0-.515 3.088c0 .171 0 .343.172.514.171.172.343.172.515.343h.171c.343 0 .686-.343.686-.686.172-1.029.172-2.058.343-2.916 0-.171 0-.343-.171-.514a.369.369 0 0 0-.343-.343z" fill="#1A1A1A"/><path d="M32.418 58.49c-.514-.171-1.2.172-1.2.858a57.628 57.628 0 0 0-.515 3.088c0 .514.343 1.029 1.03 1.2h.17c.515 0 1.03-.343 1.03-1.029.172-1.029.172-2.058.343-2.916 0-.343 0-.514-.172-.857-.171 0-.343-.172-.686-.344zm.687 1.201c-.172.858-.344 1.715-.344 2.916 0 .515-.343.858-.857.858h-.172c-.514 0-.857-.515-.857-1.03.171-1.2.343-2.23.514-3.087.172-.514.515-.857 1.03-.686.514.172.857.686.686 1.03zM35.163 53.173c-.172-.171-.515-.171-.858-.171-.343 0-.514.171-.686.514-.514 1.03-1.029 1.887-1.372 2.745-.172.514 0 1.2.514 1.372.172 0 .344.171.515.171.343 0 .686-.171.858-.686.343-.857.857-1.715 1.372-2.573.343-.343.172-1.029-.343-1.372zm.171 1.372c-.514.858-1.029 1.716-1.372 2.573a.943.943 0 0 1-.857.515h-.343c-.515-.172-.687-.686-.515-1.2.343-.858.858-1.716 1.372-2.745.172-.343.858-.515 1.2-.343.687.171.858.857.515 1.2zM37.221 48.542c-.171.172-.857 1.03-1.886 2.401-.344.515-.172 1.201.343 1.544.171.172.343.172.686.172a.944.944 0 0 0 .857-.515c.858-1.2 1.544-2.058 1.716-2.401.343-.515.343-1.03-.172-1.544-.515-.172-1.2-.172-1.544.343zm1.544 1.2s-.858 1.03-1.715 2.402c-.172.172-.515.343-.686.343-.172 0-.343 0-.515-.171-.343-.344-.514-.858-.171-1.201 1.029-1.372 1.886-2.401 1.886-2.401.343-.343.858-.515 1.201-.172.172.172.172.858 0 1.2z" fill="#fff"/><path d="M32.419 58.662c-.515-.171-1.03.172-1.03.686a57.538 57.538 0 0 0-.514 3.088c0 .514.343.857.857 1.029h.172c.515 0 .857-.343.857-.858.172-1.029.172-2.058.344-2.916.171-.343-.172-.857-.686-1.029zm.514 1.03c-.172.857-.343 1.886-.343 2.915 0 .343-.343.686-.686.686h-.172c-.171 0-.343-.171-.514-.343-.172-.171-.172-.343-.172-.514.172-1.201.343-2.23.515-3.088 0-.343.343-.514.686-.514h.172c.171 0 .343.171.514.343v.514zM37.393 48.542s-.858 1.03-1.887 2.401c-.343.343-.171 1.03.172 1.201.171.172.343.172.514.172.343 0 .515-.172.686-.344a58.976 58.976 0 0 0 1.716-2.4c.343-.344.343-1.03-.172-1.202-.171-.171-.858-.171-1.03.172zm1.2 1.03c-.171.17-.857 1.2-1.715 2.4-.171.172-.343.344-.514.344-.172 0-.343 0-.515-.172-.171-.172-.343-.343-.343-.514 0-.172 0-.344.172-.515.857-1.372 1.715-2.23 1.886-2.401.172-.172.343-.343.515-.343s.343 0 .515.171c.171.343.171.858 0 1.03zM34.992 53.345c-.343-.172-1.03-.172-1.201.343-.515 1.029-1.03 1.887-1.372 2.744-.172.515 0 1.03.514 1.2h.343a.943.943 0 0 0 .858-.514c.343-.857.858-1.715 1.372-2.573.172-.343 0-1.029-.514-1.2zm.171 1.2c-.514.858-1.03 1.716-1.372 2.573-.172.343-.343.515-.686.515h-.343c-.343-.172-.515-.686-.343-1.03.343-.857.857-1.715 1.372-2.744.171-.171.343-.343.514-.343h.172c.172 0 .343 0 .343.172.515 0 .686.343.343.857z" fill="#fff"/><path d="M71.355 44.768a.943.943 0 0 1-.858-.514s-.857-2.058-2.23-2.058c-.514 0-.857-.343-.857-.858 0-.515.343-.858.858-.858 2.572 0 3.773 2.916 3.945 3.088.171.514 0 .857-.515 1.029-.171.171-.171.171-.343.171zM29.16 84.22h-.172c-.515-.172-.686-.515-.686-1.03.857-3.773 1.2-7.547 1.2-11.492 0-.514.344-.857.858-.857.515 0 .858.343.858.857 0 4.117-.343 7.89-1.201 11.835-.171.343-.515.686-.858.686zM56.26 33.962h-.343c-.514-.171-.686-.686-.514-1.2 0-.172 4.288-9.263 19.21-3.945.516.171.687.686.516 1.029-.172.343-.687.686-1.03.514-13.379-4.802-16.98 2.573-17.152 2.916 0 .515-.343.686-.686.686z" fill="#1A1A1A"/><path d="M62.607 44.082c-3.259 0-6.003-1.372-6.175-1.543-.343-.172-.514-.687-.343-1.201.172-.343.686-.515 1.201-.343 0 0 6.175 3.087 10.292-.343 1.886-1.544 3.602-2.23 5.317-2.059 2.058.343 3.087 1.716 3.087 1.887.343.343.172.858-.171 1.201-.343.343-.858.172-1.2-.172 0 0-.687-.857-1.888-1.029-1.2-.171-2.401.343-3.945 1.544-2.058 1.544-4.116 2.058-6.175 2.058zM41.338 33.962a.943.943 0 0 1-.858-.514c-.171-.343-3.773-7.719-17.152-2.916-.515.171-.858 0-1.03-.515-.171-.514 0-.857.515-1.029 14.923-5.317 19.211 3.774 19.211 3.945.172.515 0 .858-.515 1.2 0-.17 0-.17-.171-.17zM35.163 44.082c-2.058 0-4.117-.514-6.004-2.058-1.372-1.2-2.744-1.715-3.945-1.544-1.2.172-1.886 1.03-1.886 1.03-.343.343-.858.514-1.201.171-.343-.343-.515-.858-.172-1.2 0 0 1.03-1.544 3.088-1.888 1.715-.171 3.43.515 5.317 2.059 4.117 3.602 10.292.514 10.292.343.343-.172.857 0 1.2.343.172.343 0 .858-.343 1.2-.343.172-3.087 1.544-6.346 1.544z" fill="#1A1A1A"/><path d="M26.415 44.768h-.343c-.514-.171-.686-.686-.514-1.029 0-.171 1.2-3.087 3.945-3.087.514 0 .857.343.857.857 0 .515-.343.858-.857.858-1.373 0-2.23 2.058-2.23 2.058a1.31 1.31 0 0 1-.858.343zM48.885 59.863c-1.887 0-3.43-1.03-4.117-1.887a.829.829 0 0 1 0-1.2.83.83 0 0 1 1.201 0c.343.342 2.744 2.744 6.175-.172.343-.343.858-.172 1.2.171.344.343.172.858-.17 1.201-1.545 1.372-3.088 1.887-4.29 1.887zM48.885 73.585c-3.087 0-6.175-1.715-9.09-4.803-.344-.343-.344-.686 0-1.029.17-.171 2.744-4.117 6.003-4.803 1.029-.171 2.058 0 3.087.515.858-.515 1.715-.686 2.573-.515 3.259.515 6.175 4.803 6.346 4.974.172.344.172.687 0 1.03-.171.171-3.43 4.63-8.404 4.974-.172-.343-.343-.343-.515-.343zm-7.376-5.489c2.573 2.573 5.146 3.945 7.72 3.774 3.258-.172 5.831-2.745 6.689-3.774-1.03-1.2-2.916-3.43-4.803-3.602-.686-.171-1.2.171-1.887.515-.343.171-.686.343-1.029 0-.686-.515-1.544-.686-2.23-.515-1.715.343-3.43 2.401-4.46 3.602z" fill="#1A1A1A"/><path d="M49.057 85.077c-6.004 0-8.405-2.744-8.577-2.916L24.528 67.067c-.171-.172-6.003-5.317-6.003-15.609V26.244c0-.515.343-.858.858-.858.514 0 .857.343.857.858V51.63c0 9.433 5.318 14.236 5.318 14.236L41.51 80.96s2.23 2.402 7.375 2.402c5.146 0 7.033-2.23 7.033-2.23.171-.172 10.291-9.949 16.123-15.437 5.832-5.146 5.49-14.923 5.49-14.923v-23.67c0-.515.342-.858.857-.858.514 0 .857.343.857.857v23.67c0 .344.343 10.636-6.175 16.296-5.831 5.66-15.952 15.266-16.123 15.437.343-.171-1.887 2.573-7.89 2.573z" fill="#1A1A1A"/><path d="M72.899 95.712c-.172 0-.515-.172-.686-.343-.172-.343-5.832-7.376-5.832-23.842 0-.515.343-.858.857-.858.515 0 .858.343.858.858 0 15.952 5.489 22.641 5.489 22.813.343.343.171.857-.172 1.2-.171.172-.343.172-.514.172zM82.333 61.921c-.172 0-.343 0-.515-.171-.343-.343-.515-.858-.171-1.201 0 0 5.488-7.033 3.773-17.496-1.887-11.492-11.15-22.47-27.273-32.933-.343-.171-.514-.858-.171-1.2.171-.344.857-.515 1.2-.172 16.639 10.635 25.901 22.127 27.96 33.962 1.886 11.32-3.774 18.525-4.117 18.868-.172.172-.515.343-.686.343zM36.535 15.437c-.343 0-.686-.343-.858-.686-.171-.514.172-.857.687-1.029C49.228 10.978 52.316 2.916 52.316 2.744c.171-.514.686-.686 1.029-.514.514.171.686.686.514 1.029-.171.343-3.43 9.09-17.324 12.007.172.171 0 .171 0 .171zM.858 38.25H.686C.171 38.08 0 37.564.171 37.221 4.46 23.156 15.267 19.897 15.61 19.897c.514-.171.857.172 1.03.515.17.514-.172.857-.515 1.029-.172 0-10.464 3.087-14.409 16.295a.943.943 0 0 1-.857.514zM81.475 73.585c-.343 0-.514-.172-.686-.343-.343-.343-.171-.858.172-1.2 11.835-8.92 10.291-26.416 10.291-26.587 0-.515.343-.858.858-.858.514 0 .857.343.857.858 0 .686 1.544 18.524-10.977 27.958-.172.172-.343.172-.515.172z" fill="#1A1A1A"/><path d="M11.32 100h-.857c-.514 0-.858-.515-.686-1.03 0-.514.514-.857 1.03-.685 0 0 4.459.514 7.546-2.402 2.23-2.058 3.43-5.317 3.43-9.777 0-6.175-3.601-12.864-7.375-19.897-4.803-8.92-9.777-18.182-8.233-27.787 1.887-11.664 12.521-13.894 23.842-16.295 5.66-1.2 11.492-2.401 16.467-4.803C60.549 10.634 60.72 1.201 60.72.686 60.892.343 61.235 0 61.75 0c.514 0 .857.343.857.858 0 .514-.171 10.977-15.266 18.181-5.145 2.573-11.149 3.774-16.98 4.975-11.15 2.23-20.756 4.288-22.47 14.751-1.545 8.92 3.258 17.839 7.89 26.587 3.944 7.204 7.547 14.065 7.547 20.754 0 4.975-1.373 8.748-4.117 11.15-2.744 2.401-6.175 2.744-7.89 2.744z" fill="#1A1A1A"/></svg>