<svg width="95" height="100" viewBox="0 0 95 100" fill="none" xmlns="http://www.w3.org/2000/svg"><path d="M73.07 44.769a.944.944 0 0 1-.857-.515s-.858-2.058-2.23-2.058c-.515 0-.858-.343-.858-.858 0-.515.343-.858.858-.858 2.573 0 3.773 2.916 3.945 3.088.172.514 0 .857-.515 1.029-.171.172-.171.172-.343.172zM30.875 84.22h-.172c-.514-.172-.686-.515-.686-1.03.858-3.773 1.2-7.547 1.2-11.492 0-.514.344-.857.858-.857.515 0 .858.343.858.857 0 4.117-.343 7.89-1.2 11.835-.172.343-.515.687-.858.687zM57.976 33.962h-.343c-.515-.171-.686-.686-.515-1.2 0-.172 4.288-9.263 19.211-3.945.515.171.686.686.515 1.029-.172.343-.686.686-1.03.514-13.378-4.802-16.98 2.573-17.152 2.916 0 .515-.343.686-.686.686z" fill="#1A1A1A"/><path d="M64.322 44.082c-3.259 0-6.003-1.372-6.175-1.543-.343-.172-.514-.687-.343-1.201.172-.343.686-.515 1.201-.343 0 0 6.175 3.087 10.292-.343 1.886-1.544 3.602-2.23 5.317-2.059 2.058.343 3.087 1.716 3.087 1.887.344.343.172.858-.171 1.201-.343.343-.858.172-1.2-.172 0 0-.687-.857-1.888-1.029-1.2-.171-2.4.343-3.945 1.544-2.058 1.544-4.116 2.058-6.175 2.058zM43.053 33.962a.943.943 0 0 1-.858-.514c-.171-.343-3.773-7.719-17.152-2.916-.515.171-.858 0-1.03-.515-.171-.514 0-.857.515-1.029 14.923-5.317 19.211 3.774 19.211 3.945.172.515 0 .858-.514 1.2 0-.17 0-.17-.172-.17zM36.878 44.082c-2.058 0-4.117-.514-6.003-2.058-1.372-1.2-2.745-1.715-3.945-1.544-1.201.172-1.887 1.03-1.887 1.03-.343.343-.858.514-1.2.171-.344-.343-.515-.858-.172-1.2 0 0 1.029-1.544 3.087-1.888 1.715-.171 3.43.515 5.317 2.059 4.117 3.602 10.292.514 10.292.343.343-.172.858 0 1.2.343.172.343 0 .858-.342 1.2-.343.172-3.088 1.544-6.347 1.544z" fill="#1A1A1A"/><path d="M28.13 44.768h-.343c-.514-.171-.686-.686-.514-1.029 0-.171 1.2-3.087 3.945-3.087.515 0 .858.343.858.857 0 .515-.343.858-.858.858-1.372 0-2.23 2.058-2.23 2.058a1.31 1.31 0 0 1-.857.343zM50.6 59.863c-1.887 0-3.43-1.03-4.116-1.887a.83.83 0 0 1 0-1.2.83.83 0 0 1 1.2 0c.343.342 2.745 2.744 6.175-.172.343-.343.858-.172 1.2.171.344.343.172.858-.17 1.201-1.544 1.372-3.088 1.887-4.289 1.887zM50.6 73.585c-3.087 0-6.175-1.715-9.09-4.803-.344-.343-.344-.686 0-1.029.171-.171 2.744-4.117 6.003-4.803 1.03-.171 2.058 0 3.087.515.858-.515 1.716-.686 2.573-.515 3.26.515 6.175 4.803 6.347 4.974.171.344.171.687 0 1.03-.172.171-3.43 4.63-8.405 4.974-.172-.343-.343-.343-.515-.343zm-7.375-5.489c2.573 2.573 5.146 3.945 7.718 3.774 3.26-.172 5.832-2.745 6.69-3.774-1.03-1.2-2.916-3.43-4.803-3.602-.686-.171-1.2.171-1.887.515-.343.171-.686.343-1.029 0-.686-.515-1.543-.686-2.23-.515-1.715.343-3.43 2.401-4.46 3.602z" fill="#1A1A1A"/><path d="M50.772 85.077c-6.003 0-8.405-2.744-8.576-2.916L26.244 67.067c-.172-.172-6.004-5.317-6.004-15.609V26.244c0-.515.343-.858.858-.858.514 0 .858.343.858.858V51.63c0 9.433 5.317 14.236 5.317 14.236L43.225 80.96s2.23 2.402 7.375 2.402c5.146 0 7.033-2.23 7.033-2.23.172-.171 10.292-9.949 16.123-15.437 5.832-5.146 5.49-14.923 5.49-14.923v-23.67c0-.515.342-.858.857-.858.515 0 .858.343.858.857v23.5c0 .342.343 10.634-6.175 16.294-5.832 5.66-15.952 15.266-16.124 15.438.343 0-1.887 2.744-7.89 2.744z" fill="#1A1A1A"/><path d="M74.614 95.712c-.172 0-.515-.172-.686-.343-.172-.343-5.832-7.376-5.832-23.842 0-.515.343-.858.858-.858.514 0 .857.343.857.858 0 15.951 5.49 22.641 5.49 22.813.342.343.17.857-.172 1.2-.172.172-.344.172-.515.172zM84.048 61.921c-.172 0-.343 0-.515-.172-.343-.343-.514-.857-.171-1.2 0 0 5.489-7.033 3.773-17.496-1.886-11.32-10.977-22.47-27.1-32.761-.344-.172-.515-.858-.172-1.201.171-.343.857-.515 1.2-.172 16.639 10.635 25.901 22.127 27.96 33.963 1.886 11.32-3.774 18.525-4.117 18.867-.343 0-.686.172-.858.172zM38.25 15.437c-.343 0-.686-.343-.857-.686-.172-.514.171-.857.686-1.029C50.943 10.978 54.03 2.916 54.03 2.744c.171-.514.686-.686 1.029-.514.515.171.686.686.515 1.029-.172.343-3.43 9.09-17.325 12.007.172.171 0 .171 0 .171zM2.573 38.25H2.4c-.514-.171-.686-.686-.514-1.029C6.175 23.156 16.98 19.897 17.324 19.897c.515-.171.858.172 1.03.515.17.514-.172.857-.515 1.029-.172 0-10.463 3.087-14.408 16.295a.943.943 0 0 1-.858.514z" fill="#1A1A1A"/><path d="M83.19 73.585c-.343 0-.514-.172-.686-.343-.343-.343-.171-.858.172-1.2 11.835-8.92 10.291-26.416 10.291-26.587 0-.515.344-.858.858-.858.515 0 .858.343.858.858 0 .686 1.543 18.524-10.978 27.958-.171.172-.343.172-.514.172zM13.036 100h-.857c-.515 0-.858-.515-.687-1.03 0-.514.515-.857 1.03-.685 0 0 4.46.514 7.547-2.402 2.23-2.058 3.43-5.317 3.43-9.777 0-6.175-3.602-12.864-7.375-19.897-4.803-8.92-9.606-18.182-8.062-27.616C9.949 26.93 20.583 24.7 31.904 22.298c5.66-1.2 11.492-2.4 16.467-4.802C62.436 10.806 62.607 1.372 62.607.858c0-.515.343-.858.858-.858.514 0 .858.343.858.858 0 .514-.172 10.977-15.266 18.181-5.146 2.573-11.15 3.774-16.982 4.975-11.149 2.23-20.754 4.288-22.47 14.751-1.543 8.92 3.26 18.01 7.89 26.587 3.946 7.204 7.548 14.065 7.548 20.754 0 4.975-1.372 8.748-4.117 11.15-2.744 2.4-6.175 2.744-7.89 2.744z" fill="#1A1A1A"/><path d="M33.712 59.423L11.9 63.136l1.208 7.102 21.813-3.713-1.209-7.102z" fill="#fff"/><path d="M13.036 71.012c-.343 0-.858-.343-.858-.686l-1.2-7.033c0-.171 0-.514.171-.686.172-.171.343-.343.515-.343l21.784-3.773c.514 0 .857.171 1.029.686l1.2 7.032c0 .172 0 .515-.171.686-.172.172-.343.343-.515.343l-21.955 3.774c.171 0 0 0 0 0zm-.172-7.204l.858 5.489 20.069-3.43-.858-5.49-20.069 3.43z" fill="#1A1A1A"/><path d="M39.112 60.313l-5.073.864.605 3.55 5.072-.863-.604-3.55z" fill="#fff"/><path d="M34.648 65.523c-.343 0-.857-.343-.857-.686l-.686-3.602c0-.172 0-.515.171-.686.172-.172.343-.343.515-.343l5.146-.858c.514 0 .857.172 1.029.686l.686 3.602c0 .172 0 .515-.172.687-.171.171-.343.343-.514.343l-5.318.857zm.343-3.773l.344 1.886 3.43-.514-.343-1.887-3.43.515zM13.55 74.443c-.343 0-.686-.343-.857-.686L10.12 59.863c0-.515.171-.858.686-1.03.515 0 .858.172 1.03.687l2.572 13.893c.172.515-.171 1.03-.858 1.03.172 0 .172 0 0 0zM2.401 73.756c-.343 0-.857-.343-.857-.686L0 64.494c0-.515.172-.858.686-1.03.515 0 .858.172 1.03.687l1.543 8.576c0 .515-.172.858-.858 1.03.172 0 0 0 0 0z" fill="#1A1A1A"/><path d="M1.715 69.468c-.343 0-.857-.343-.857-.686 0-.514.171-.858.686-1.029l10.806-1.887c.514 0 .858.172 1.03.686 0 .515-.172.858-.687 1.03L1.715 69.468zM39.623 62.779c-.343 0-.858-.343-.858-.686 0-.515.172-.858.686-1.03l6.518-1.029c.515 0 .858.172 1.03.686 0 .515-.172.858-.687 1.03l-6.69 1.029zM14.58 66.038c-.343 0-.858-.343-.858-.686 0-.515.172-.858.686-1.03l11.321-1.886c.515 0 .858.171 1.03.686.17.514-.172.857-.687 1.029L14.58 66.038c.171 0 .171 0 0 0z" fill="#1A1A1A"/></svg>