<svg width="93" height="100" viewBox="0 0 93 100" fill="none" xmlns="http://www.w3.org/2000/svg"><path d="M71.248 44.768a.943.943 0 0 1-.858-.514s-.858-2.058-2.23-2.058c-.514 0-.858-.344-.858-.858 0-.515.343-.858.858-.858 2.573 0 3.774 2.916 3.945 3.088.172.514 0 .857-.514 1.029-.172.171-.172.171-.343.171zM29.052 84.22h-.171c-.515-.172-.686-.515-.686-1.03.857-3.773 1.2-7.547 1.2-11.492 0-.514.343-.857.858-.857.514 0 .857.343.857.857 0 4.117-.343 7.89-1.2 11.836-.172.342-.515.685-.858.685zM56.154 33.962h-.343c-.515-.171-.686-.686-.515-1.2 0-.172 4.288-9.263 19.211-3.946.515.172.686.687.515 1.03-.172.514-.686.686-1.03.514-13.378-4.802-16.98 2.573-17.152 2.916 0 .515-.343.686-.686.686z" fill="#C36"/><path d="M62.5 44.082c-3.26 0-6.004-1.372-6.175-1.543-.343-.172-.515-.687-.343-1.201.171-.343.686-.515 1.2-.343 0 0 6.175 3.087 10.292-.343 1.887-1.544 3.602-2.23 5.317-2.059 2.059.343 3.088 1.716 3.088 1.887.343.343.171.858-.172 1.2-.343.344-.857.172-1.2-.17 0 0-.686-.858-1.887-1.03-1.2-.171-2.401.343-3.945 1.544-2.058 1.544-4.117 2.058-6.175 2.058zM41.23 33.962a.943.943 0 0 1-.857-.514c-.172-.343-3.774-7.719-17.153-2.916-.514.171-.857 0-1.029-.515-.171-.514 0-.857.515-1.029 14.922-5.317 19.21 3.774 19.21 3.945.172.515 0 .858-.514 1.2 0-.17 0-.17-.172-.17zM35.056 44.082c-2.059 0-4.117-.514-6.004-2.058-1.372-1.2-2.744-1.715-3.945-1.544a3.166 3.166 0 0 0-1.887 1.03c-.343.343-.857.514-1.2.17-.343-.342-.515-.857-.172-1.2 0 0 1.03-1.543 3.088-1.886 1.715-.172 3.43.514 5.317 2.058 4.117 3.602 10.291.514 10.291.343.344-.172.858 0 1.201.343.172.343 0 .858-.343 1.2-.343.172-3.087 1.544-6.346 1.544z" fill="#C36"/><path d="M26.308 44.768h-.344c-.514-.171-.686-.686-.514-1.029 0-.171 1.2-3.087 3.945-3.087.515 0 .858.343.858.858 0 .514-.343.857-.858.857-1.372 0-2.23 2.058-2.23 2.058a1.31 1.31 0 0 1-.857.343zM48.778 58.148c-1.887 0-3.43-1.03-4.116-1.887a.829.829 0 0 1 0-1.201.83.83 0 0 1 1.2 0c.343.343 2.745 2.744 6.175-.172.343-.343.858-.171 1.2.172.344.343.172.858-.17 1.2-1.544 1.373-3.088 1.888-4.289 1.888zM48.778 73.585c-3.088 0-6.175-1.715-9.091-4.803-.343-.343-.343-.686 0-1.029.171-.171 2.744-4.117 6.003-4.803 1.03-.171 2.059 0 3.088.515.857-.515 1.715-.686 2.572-.515 3.26.515 6.175 4.803 6.347 4.975.172.343.172.686 0 1.029-.172.171-3.43 4.63-8.405 4.974-.171-.343-.343-.343-.514-.343zm-7.376-5.489c2.573 2.573 5.146 3.945 7.719 3.774 3.259-.172 5.832-2.745 6.69-3.774-1.03-1.2-2.917-3.43-4.803-3.602-.687-.171-1.201.172-1.887.515-.343.171-.686.343-1.03 0-.686-.515-1.543-.686-2.23-.515-1.715.343-3.43 2.401-4.459 3.602z" fill="#C36"/><path d="M48.949 85.077c-6.003 0-8.405-2.744-8.576-2.916L24.42 67.067c-.172-.172-6.004-5.317-6.004-15.609V26.072c0-.514.343-.858.858-.858.514 0 .858.344.858.858v25.386c0 9.434 5.317 14.237 5.317 14.237l15.952 15.094s2.23 2.401 7.375 2.401c5.146 0 7.033-2.23 7.033-2.23.172-.17 10.292-9.948 16.123-15.437 5.832-5.146 5.49-14.923 5.49-14.923V26.93c0-.515.342-.858.857-.858.515 0 .858.343.858.858V50.6c0 .343.343 10.635-6.175 16.295-5.832 5.66-15.952 15.266-16.124 15.438.343 0-1.887 2.744-7.89 2.744z" fill="#C36"/><path d="M72.792 95.712c-.172 0-.515-.172-.686-.343-.172-.343-5.832-7.376-5.832-23.842 0-.515.343-.858.858-.858.514 0 .857.343.857.858 0 15.952 5.489 22.641 5.489 22.813.343.343.172.857-.171 1.2-.172.172-.344.172-.515.172zM82.225 61.921c-.171 0-.343 0-.514-.171-.343-.343-.515-.858-.172-1.201 0 0 5.49-7.033 3.774-17.496-1.887-11.32-10.978-22.47-27.101-32.761-.343-.172-.515-.858-.172-1.201.172-.343.858-.515 1.201-.172 16.638 10.635 25.9 22.127 27.959 33.963 1.887 11.32-3.774 18.525-4.117 18.868-.343 0-.686.171-.858.171zM36.428 15.438c-.343 0-.686-.344-.858-.687-.171-.514.172-.857.686-1.029C49.121 10.978 52.208 2.916 52.208 2.744c.172-.514.686-.686 1.03-.514.514.171.686.686.514 1.03-.172.342-3.43 9.09-17.324 12.006.171.171 0 .171 0 .171zM.75 38.25H.58c-.515-.171-.686-.686-.515-1.029C4.352 23.156 15.16 19.897 15.502 19.897c.514-.171.857.172 1.029.515.171.343-.172.857-.515 1.029-.171 0-10.463 3.087-14.408 16.295a.943.943 0 0 1-.858.514z" fill="#C36"/><path d="M81.368 73.585c-.343 0-.514-.172-.686-.343-.343-.343-.171-.858.172-1.2 11.835-8.92 10.291-26.416 10.291-26.587 0-.515.343-.858.858-.858.514 0 .858.343.858.858 0 .686 1.543 18.524-10.978 27.958-.172.172-.343.172-.515.172zM11.213 100h-.857c-.515 0-.858-.514-.686-1.03 0-.514.514-.857 1.029-.685 0 0 4.46.514 7.547-2.402 2.23-2.058 3.43-5.317 3.43-9.777 0-6.175-3.602-12.864-7.375-19.897-4.803-8.92-9.606-18.181-8.062-27.616C8.126 26.93 18.76 24.7 30.081 22.298c5.66-1.2 11.493-2.4 16.467-4.802C60.613 10.806 60.784 1.372 60.784.858c0-.515.344-.858.858-.858.515 0 .858.343.858.858 0 .514-.172 10.977-15.266 18.181-5.146 2.573-11.15 3.774-16.981 4.975-11.15 2.23-20.755 4.288-22.47 14.751-1.544 8.92 3.259 18.01 7.89 26.587 3.945 7.204 7.547 14.065 7.547 20.754 0 4.975-1.372 8.748-4.116 11.15-2.745 2.401-6.175 2.744-7.89 2.744zM61.127 89.194c.172.514 0 1.029-.514 1.2-1.03.344-1.887.687-2.916 1.03-.515.171-1.03-.172-1.201-.515-.172-.515.171-1.03.514-1.2 1.201-.344 2.23-.687 2.745-.858.686-.343 1.2 0 1.372.343zm-5.66 1.715c0 .172 0 .172 0 0 .171.515-.172 1.03-.686 1.2a9.712 9.712 0 0 1-3.088.515c-.514 0-1.029-.343-1.029-.686 0-.514.343-1.029.686-1.029.858-.171 1.715-.343 2.916-.514.515 0 1.03.171 1.2.514zm-6.004.686v.343c0 .515-.514.858-1.029.858-.857 0-1.887-.172-3.087-.515-.515-.171-.858-.514-.686-1.029.171-.514.514-.858 1.029-.686 1.029.172 2.058.343 2.916.343.514.172.686.343.857.686zm-5.832-1.2v.514c-.171.515-.686.686-1.029.686a256.56 256.56 0 0 0-2.916-.857c-.514-.172-.686-.686-.514-1.201.171-.515.686-.686 1.2-.515 0 0 1.201.343 2.745.858l.514.515z" fill="#C36"/><path d="M61.299 89.194c.172.343 0 .514 0 .858-.172.171-.343.514-.514.514-1.03.343-1.887.686-2.916 1.03-.515.17-1.201-.172-1.373-.687v-.858c.172-.171.343-.514.686-.514 1.201-.343 2.23-.686 2.745-.858.514-.343 1.2 0 1.372.515zm-.343.171c-.172-.343-.515-.514-1.03-.514-.685.171-1.715.514-2.744.857-.171 0-.343.172-.514.344-.172.171-.172.342 0 .514.171.343.514.686.858.515.857-.344 1.886-.687 2.915-1.03a.369.369 0 0 0 .343-.343c.343 0 .343-.171.172-.343zm-5.317 1.544s0 .172 0 0c.171.686-.172 1.2-.686 1.372a9.712 9.712 0 0 1-3.088.515 1.29 1.29 0 0 1-1.2-.858c0-.343 0-.514.17-.857.172-.172.344-.343.687-.343.858-.172 1.715-.344 2.916-.515.343 0 .858.171 1.2.686zm-4.632 1.2a.943.943 0 0 0 .858.515 57.628 57.628 0 0 1 3.088-.514c.171 0 .343-.172.514-.343.172-.172.172-.343.172-.515v-.171a.943.943 0 0 0-.858-.515c-1.03.343-2.058.515-2.916.515-.172 0-.343.171-.515.343-.343.171-.514.343-.343.686-.171 0 0 0 0 0zm-1.372-.514v.515c0 .514-.514 1.029-1.2 1.029-.858 0-2.059-.172-3.088-.515-.343 0-.514-.171-.686-.514-.172-.172-.172-.515-.172-.858a1.29 1.29 0 0 1 1.201-.857c1.03.171 2.058.343 2.916.343.515.171.858.514 1.03.857zm-4.631.172s0 .171 0 0c.172.343.343.514.515.514l3.087.515c.343 0 .686-.343.858-.686v-.343c-.172-.343-.343-.515-.686-.515-.858 0-1.887-.171-2.916-.343-.343 0-.858.172-.858.515v.343zm-1.2-1.372v.686c-.172.514-.687.857-1.373.686-1.544-.515-2.744-.858-2.916-.858-.514-.171-.858-.858-.686-1.372.172-.515.858-.858 1.372-.686.343.171 1.373.514 2.745.857.514.172.686.344.857.687zm-4.632-.172c0 .171.172.343.515.515.171 0 1.372.514 2.916.857h.514c.172-.171.343-.171.343-.514v-.515l-.514-.514c-1.372-.344-2.573-.858-2.745-.858-.343-.172-.857 0-1.029.514v.515z" fill="#fff"/><path d="M61.127 92.624c.172.515 0 1.03-.514 1.201-1.03.343-1.887.686-2.916 1.03-.515.17-1.03-.172-1.201-.515-.172-.515.171-1.03.514-1.201 1.201-.343 2.23-.686 2.745-.858.686-.343 1.2 0 1.372.343zm-5.66 1.716c0 .171 0 .171 0 0 .171.514-.172 1.029-.686 1.2a9.714 9.714 0 0 1-3.088.515c-.514 0-1.029-.343-1.029-.686 0-.515.343-1.03.686-1.03a48.602 48.602 0 0 1 2.916-.514c.515 0 1.03.172 1.2.515zm-6.004.686v.343c0 .514-.514.857-1.029.857-.857 0-1.887-.171-3.087-.514-.515-.172-.858-.515-.686-1.03.171-.514.514-.857 1.029-.685 1.029.171 2.058.343 2.916.343.514.171.686.343.857.686zm-5.832-1.2v.514c-.171.514-.686.686-1.029.686-1.715-.515-2.916-.858-2.916-.858-.514-.171-.686-.686-.514-1.2.171-.515.686-.687 1.2-.515 0 0 1.201.343 2.745.858l.514.514z" fill="#C36"/><path d="M61.299 92.624c.172.343 0 .515 0 .858-.172.172-.343.515-.514.515-1.03.343-1.887.686-2.916 1.029-.515.171-1.201-.172-1.373-.686v-.858c.172-.171.343-.514.686-.514a64.99 64.99 0 0 0 2.745-.858c.514-.343 1.2 0 1.372.514zm-.343.172c-.172-.343-.515-.515-1.03-.515-.685.172-1.715.515-2.744.858-.171 0-.343.172-.514.343-.172.172-.172.343 0 .515.171.343.514.686.858.514.857-.343 1.886-.686 2.915-1.029a.369.369 0 0 0 .343-.343c.343 0 .343-.172.172-.343zm-5.317 1.544s0 .171 0 0c.171.686-.172 1.2-.686 1.372a9.715 9.715 0 0 1-3.088.514 1.29 1.29 0 0 1-1.2-.857c0-.343 0-.515.17-.858.172-.171.344-.343.687-.343.858-.171 1.715-.343 2.916-.515.343 0 .858.172 1.2.687zm-4.632 1.2a.943.943 0 0 0 .858.515 57.538 57.538 0 0 1 3.088-.515c.171 0 .343-.171.514-.343.172-.171.172-.343.172-.514v-.172a.943.943 0 0 0-.858-.514c-1.03.343-2.058.514-2.916.514-.172 0-.343.172-.515.343-.343.172-.514.343-.343.686-.171 0 0 0 0 0zm-1.372-.514v.514c0 .515-.514 1.03-1.2 1.03-.858 0-2.059-.172-3.088-.515-.343 0-.514-.172-.686-.515-.172-.171-.172-.514-.172-.857a1.29 1.29 0 0 1 1.201-.858c1.03.172 2.058.343 2.916.343.515.172.858.515 1.03.858zm-4.631.171s0 .172 0 0c.172.343.343.515.515.515l3.087.514c.343 0 .686-.343.858-.686v-.343c-.172-.343-.343-.514-.686-.514-.858 0-1.887-.172-2.916-.343-.343 0-.858.171-.858.514v.343zm-1.2-1.372v.686c-.172.515-.687.858-1.373.686-1.544-.514-2.744-.857-2.916-.857-.514-.172-.858-.858-.686-1.373.172-.514.858-.857 1.372-.686.343.172 1.373.515 2.745.858.514.172.686.343.857.686zm-4.632-.172c0 .172.172.344.515.515.171 0 1.372.515 2.916.858h.514c.172-.172.343-.172.343-.515v-.514l-.514-.515c-1.372-.343-2.573-.858-2.745-.858-.343-.171-.857 0-1.029.515v.514z" fill="#fff"/><path d="M61.127 85.763c.172.515 0 1.03-.514 1.201-1.03.343-1.887.686-2.916 1.03-.515.17-1.03-.172-1.201-.515-.172-.515.171-1.03.514-1.201 1.201-.343 2.23-.686 2.745-.858.686-.343 1.2 0 1.372.343zm-5.66 1.716c0 .171 0 .171 0 0 .171.514-.172 1.029-.686 1.2a9.712 9.712 0 0 1-3.088.515c-.514 0-1.029-.343-1.029-.686 0-.515.343-1.03.686-1.03.858-.17 1.715-.342 2.916-.514.515 0 1.03.172 1.2.515zm-6.004.686v.343c0 .514-.514.857-1.029.857-.857 0-1.887-.171-3.087-.514-.515-.172-.858-.515-.686-1.03.171-.514.514-.857 1.029-.685 1.029.171 2.058.343 2.916.343.514.171.686.343.857.686zm-5.832-1.2v.514c-.171.514-.686.686-1.029.686a256.56 256.56 0 0 0-2.916-.858c-.514-.171-.686-.686-.514-1.2.171-.515.686-.687 1.2-.515 0 0 1.201.343 2.745.858l.514.514z" fill="#C36"/><path d="M61.299 85.763c.172.343 0 .515 0 .858-.172.172-.343.514-.514.514-1.03.344-1.887.687-2.916 1.03-.515.171-1.201-.172-1.373-.686v-.858c.172-.172.343-.515.686-.515 1.201-.343 2.23-.686 2.745-.857.514-.343 1.2 0 1.372.514zm-.343.172c-.172-.343-.515-.515-1.03-.515-.685.172-1.715.515-2.744.858-.171 0-.343.171-.514.343-.172.172-.172.343 0 .514.171.344.514.687.858.515.857-.343 1.886-.686 2.915-1.03a.369.369 0 0 0 .343-.342c.343 0 .343-.172.172-.343zm-5.317 1.544s0 .171 0 0c.171.686-.172 1.2-.686 1.372a9.715 9.715 0 0 1-3.088.514 1.29 1.29 0 0 1-1.2-.857c0-.343 0-.515.17-.858.172-.172.344-.343.687-.343.858-.171 1.715-.343 2.916-.515.343 0 .858.172 1.2.687zm-4.632 1.2a.943.943 0 0 0 .858.515 57.538 57.538 0 0 1 3.088-.515c.171 0 .343-.171.514-.343.172-.171.172-.343.172-.514v-.172a.943.943 0 0 0-.858-.515c-1.03.344-2.058.515-2.916.515-.172 0-.343.172-.515.343-.343.172-.514.343-.343.686-.171 0 0 0 0 0zm-1.372-.514v.514c0 .515-.514 1.03-1.2 1.03-.858 0-2.059-.172-3.088-.515-.343 0-.514-.172-.686-.515-.172-.171-.172-.514-.172-.857a1.29 1.29 0 0 1 1.201-.858c1.03.171 2.058.343 2.916.343.515.172.858.515 1.03.858zm-4.631.171s0 .172 0 0c.172.343.343.515.515.515l3.087.514c.343 0 .686-.343.858-.686v-.343c-.172-.343-.343-.514-.686-.514-.858 0-1.887-.172-2.916-.343-.343 0-.858.171-.858.514v.343zm-1.2-1.372v.686c-.172.515-.687.858-1.373.686-1.544-.514-2.744-.857-2.916-.857-.514-.172-.858-.858-.686-1.373.172-.514.858-.857 1.372-.686.343.172 1.373.515 2.745.858.514.171.686.343.857.686zm-4.632-.172c0 .172.172.344.515.515.171 0 1.372.515 2.916.858h.514c.172-.172.343-.172.343-.515v-.515l-.514-.514c-1.372-.343-2.573-.858-2.745-.858-.343-.171-.857 0-1.029.515v.514z" fill="#fff"/></svg>