<svg width="93" height="100" viewBox="0 0 93 100" fill="none" xmlns="http://www.w3.org/2000/svg"><path d="M60.098 72.213c-.343 0-.514-.172-.686-.343-.343-.343-.171-1.03.172-1.373 0 0 .686-.514 1.543-1.715.343-.343.858-.514 1.373-.171.343.343.514.857.171 1.372-1.029 1.372-1.887 1.887-1.887 2.058-.343.172-.514.172-.686.172zm3.26-3.945c-.172 0-.344 0-.515-.172-.515-.343-.515-.858-.172-1.372.515-.686 1.03-1.372 1.372-2.058.343-.515.858-.515 1.373-.343.514.343.514.857.343 1.372-.515.686-1.03 1.544-1.544 2.058-.343.515-.515.515-.858.515zm2.744-4.117c-.172 0-.343 0-.515-.171-.514-.344-.514-.858-.343-1.373.686-1.2 1.03-1.715 1.03-2.058.17-.515.685-.858 1.2-.686.514.171.858.686.686 1.2-.171.515-.514 1.373-1.2 2.402-.172.514-.515.686-.858.686z" fill="#C36"/><path d="M60.098 72.384a.943.943 0 0 1-.858-.515c-.343-.514-.343-1.2.172-1.715 0 0 .686-.514 1.544-1.715a1.31 1.31 0 0 1 .857-.343c.343 0 .687 0 .858.171.172.172.343.515.343.858 0 .343 0 .686-.343.858-1.03 1.372-1.887 1.886-2.058 2.058 0 .343-.343.343-.515.343zm1.715-3.774c-.343 0-.514.172-.514.343-.858 1.201-1.544 1.716-1.715 1.716-.344.171-.343.686-.172 1.029.172.343.686.343 1.03.171.17-.171.857-.686 1.886-1.886.171-.172.171-.344.171-.515 0-.172-.171-.343-.343-.515a.369.369 0 0 0-.343-.343zm1.544 0c-.171 0-.514 0-.686-.171-.514-.343-.686-1.03-.343-1.715.515-.687 1.03-1.373 1.372-2.059.343-.514 1.03-.686 1.715-.343.344.172.515.515.515.686 0 .343 0 .686-.172.858-.514.686-1.029 1.372-1.372 2.058-.343.515-.686.686-1.029.686zm1.372-4.116c-.343 0-.514.171-.686.343-.514.686-1.029 1.372-1.372 2.058-.171.343-.171.858.172 1.03.343.17.857.17 1.029-.172l1.543-2.059c.172-.171.172-.343.172-.514 0-.172-.172-.343-.343-.515-.171-.171-.343-.171-.515-.171zm1.373-.172c-.172 0-.515 0-.687-.171-.514-.343-.686-1.03-.343-1.544.858-1.2 1.03-1.715 1.03-1.887.171-.686.857-1.03 1.543-.858.686.172 1.03.858.858 1.544-.172.515-.515 1.373-1.2 2.402-.344.343-.687.514-1.201.514zm1.2-4.117c-.343 0-.686.172-.686.515s-.343.858-1.029 2.058c-.172.343-.172.858.171 1.03.344.171.858.171 1.03-.172.686-1.03 1.029-1.887 1.2-2.401.172-.343-.171-.858-.514-.858 0-.171 0-.172-.172-.172z" fill="#fff"/><path d="M37.114 72.213c-.171 0-.343 0-.515-.172 0 0-.857-.686-1.886-2.058-.343-.343-.343-1.03.171-1.372.343-.343 1.03-.343 1.372.171 1.03 1.2 1.544 1.716 1.544 1.716.343.343.515.857.172 1.372-.343.171-.687.343-.858.343zm-3.26-3.945a1.31 1.31 0 0 1-.857-.343l-1.543-2.059c-.344-.514-.172-1.029.343-1.372.514-.343 1.029-.171 1.372.343.514.686 1.029 1.372 1.372 2.058.343.515.172 1.03-.171 1.373h-.515zM30.94 64.15a.943.943 0 0 1-.858-.515c-.686-1.2-1.029-1.886-1.2-2.4-.172-.515.171-1.03.686-1.202.514-.171 1.029.172 1.2.687 0 .171.343.686 1.03 2.058.343.514.171 1.029-.343 1.372-.172-.171-.344 0-.515 0z" fill="#C36"/><path d="M37.114 72.384c-.172 0-.515 0-.686-.172 0 0-.858-.686-2.058-2.058-.343-.514-.343-1.2.171-1.715.515-.343 1.2-.343 1.715.171.858 1.201 1.544 1.716 1.544 1.716.515.343.686 1.2.172 1.715a1.31 1.31 0 0 1-.858.343zm-1.887-3.774c-.171 0-.343 0-.514.172-.343.343-.343.686-.172 1.029 1.2 1.372 1.887 1.887 1.887 1.887.343.171.858.171 1.029-.172.172-.343.172-.857-.172-1.029 0 0-.686-.514-1.715-1.715.172 0 0-.172-.343-.172zm-1.372 0c-.343 0-.686-.171-1.03-.514l-1.543-2.059c-.172-.343-.172-.514-.172-.857 0-.343.172-.515.515-.686.515-.343 1.2-.172 1.715.343.515.686 1.03 1.372 1.372 2.058.344.515.172 1.2-.343 1.715-.171-.171-.343 0-.514 0zm-1.544-4.116c-.171 0-.343 0-.343.171-.171.172-.343.343-.343.515 0 .171 0 .343.172.514.514.686 1.029 1.544 1.543 2.059.172.343.686.343 1.03.171.343-.171.343-.686.171-1.029-.514-.686-1.03-1.372-1.372-2.058-.343-.172-.686-.343-.858-.343zm-1.372-.172c-.343 0-.858-.171-1.03-.514-.685-1.201-1.028-1.887-1.2-2.402-.171-.686.172-1.2.858-1.544.686-.171 1.2.172 1.543.858 0 .172.172.686 1.03 1.887.171.343.171.514.171.858 0 .343-.343.514-.514.686-.515 0-.687.171-.858.171zm-1.2-4.117h-.172c-.343.172-.686.515-.515.858.172.515.515 1.2 1.2 2.401.172.344.687.515 1.03.172.171-.172.343-.343.343-.515 0-.171 0-.343-.171-.514-.687-1.2-1.03-1.715-1.03-2.058 0-.172-.343-.343-.686-.343z" fill="#fff"/><path d="M71.248 44.768a.943.943 0 0 1-.858-.514s-.858-2.058-2.23-2.058c-.515 0-.858-.344-.858-.858 0-.515.343-.858.858-.858 2.573 0 3.774 2.916 3.945 3.088.172.514 0 .857-.514 1.029-.172.171-.172.171-.343.171zM29.052 84.22h-.171c-.515-.172-.686-.515-.686-1.03.857-3.773 1.2-7.547 1.2-11.492 0-.514.343-.857.858-.857.515 0 .858.343.858.857 0 4.117-.343 7.89-1.201 11.836-.172.342-.515.686-.858.686zM56.154 33.962h-.343c-.515-.171-.686-.686-.515-1.2 0-.172 4.288-9.263 19.211-3.946.515.172.686.687.515 1.03-.172.514-.686.686-1.03.514-13.55-4.802-17.152 2.916-17.152 2.916 0 .515-.343.686-.686.686z" fill="#C36"/><path d="M62.5 44.082c-3.26 0-6.004-1.372-6.175-1.543-.343-.172-.515-.687-.343-1.201.171-.343.686-.515 1.2-.343 0 0 6.175 3.087 10.292-.343 1.887-1.544 3.602-2.23 5.317-2.059 2.059.343 3.088 1.716 3.088 1.887.343.343.171.858-.172 1.2-.343.344-.857.172-1.2-.17 0 0-.686-.858-1.887-1.03-1.2-.171-2.401.343-3.945 1.544-2.058 1.544-4.117 2.058-6.175 2.058zM41.23 33.962a.943.943 0 0 1-.857-.514c-.172-.343-3.774-7.719-17.153-2.916-.514.171-.857 0-1.029-.515-.171-.514 0-.857.515-1.029 14.922-5.317 19.21 3.774 19.21 3.945.172.515 0 .858-.514 1.2 0-.17 0-.17-.172-.17zM35.056 44.082c-2.059 0-4.117-.514-6.004-2.058-1.372-1.2-2.744-1.715-3.945-1.544-1.2.172-1.887 1.03-1.887 1.03-.343.343-.857.514-1.2.17-.343-.342-.515-.857-.172-1.2 0 0 1.03-1.543 3.088-1.886 1.715-.172 3.43.514 5.317 2.058 4.117 3.602 10.292.514 10.292.343.343-.172.857 0 1.2.343.172.343 0 .858-.343 1.2-.343.172-3.087 1.544-6.346 1.544z" fill="#C36"/><path d="M26.308 44.769h-.343c-.515-.172-.687-.687-.515-1.03 0-.171 1.2-3.087 3.945-3.087.515 0 .858.343.858.858 0 .514-.343.857-.858.857-1.372 0-2.23 2.058-2.23 2.058a1.31 1.31 0 0 1-.857.344zM48.778 59.863c-1.887 0-3.43-1.03-4.116-1.887a.829.829 0 0 1 0-1.2.829.829 0 0 1 1.2 0c.343.342 2.745 2.744 6.175-.172.343-.343.858-.172 1.2.171.344.343.172.858-.17 1.201-1.544 1.372-3.088 1.887-4.289 1.887zM48.778 73.585c-3.088 0-6.175-1.715-9.091-4.803-.343-.343-.343-.686 0-1.03.171-.17 2.744-4.116 6.003-4.802 1.03-.171 2.058 0 3.088.515.857-.515 1.715-.686 2.572-.515 3.26.515 6.175 4.803 6.347 4.974.171.343.171.687 0 1.03-.172.171-3.43 4.63-8.405 4.974-.172-.343-.343-.343-.514-.343zm-7.376-5.489c2.573 2.573 5.146 3.945 7.719 3.774 3.259-.172 5.831-2.745 6.69-3.774-1.03-1.2-2.917-3.43-4.804-3.602-.686-.172-1.2.171-1.886.514-.343.172-.687.344-1.03 0-.686-.514-1.543-.686-2.23-.514-1.715.343-3.43 2.401-4.46 3.602z" fill="#C36"/><path d="M48.95 85.077c-6.004 0-8.406-2.744-8.577-2.916L24.42 67.067c-.172-.172-6.004-5.317-6.004-15.609V26.072c0-.514.343-.858.858-.858.515 0 .858.344.858.858v25.386c0 9.434 5.317 14.237 5.317 14.237l15.952 15.094s2.23 2.401 7.376 2.401c5.145 0 7.032-2.23 7.032-2.23.172-.17 10.292-9.948 16.124-15.437 5.832-5.146 5.489-14.923 5.489-14.923V26.93c0-.515.343-.858.857-.858.515 0 .858.343.858.858V50.6c0 .343.343 10.635-6.175 16.295-5.832 5.66-15.952 15.266-16.124 15.438.343 0-1.886 2.744-7.89 2.744z" fill="#C36"/><path d="M72.792 95.712c-.172 0-.515-.172-.686-.343-.172-.343-5.832-7.376-5.832-23.842 0-.515.343-.858.858-.858.514 0 .857.343.857.858 0 15.952 5.489 22.641 5.489 22.813.343.343.172.857-.171 1.2-.172.172-.344.172-.515.172zM82.226 61.921c-.172 0-.343 0-.515-.172-.343-.343-.514-.857-.171-1.2 0 0 5.488-7.033 3.773-17.496-1.887-11.32-10.978-22.47-27.101-32.761-.343-.172-.515-.858-.172-1.201.343-.343.858-.515 1.201-.172C75.88 19.554 85.141 31.046 87.2 42.882c1.887 11.32-3.774 18.525-4.117 18.867-.343 0-.686.172-.857.172zM36.428 15.437c-.343 0-.686-.343-.858-.686-.171-.514.172-.857.686-1.029C49.121 10.978 52.208 2.916 52.208 2.744c.172-.514.687-.686 1.03-.514.514.171.686.686.514 1.029-.171.343-3.43 9.09-17.324 12.007.171.171 0 .171 0 .171zM.75 38.25H.58c-.515-.171-.686-.686-.515-1.029C4.352 23.156 15.16 19.897 15.502 19.897c.514-.171.857.172 1.029.515.171.514-.172.857-.515 1.029-.171 0-10.463 3.087-14.408 16.295a.943.943 0 0 1-.858.514z" fill="#C36"/><path d="M81.368 73.585c-.343 0-.514-.172-.686-.343-.343-.343-.171-.858.172-1.2 11.835-8.92 10.291-26.416 10.291-26.587 0-.515.343-.858.858-.858.515 0 .858.343.858.858 0 .686 1.543 18.524-10.978 27.958-.172.172-.343.172-.515.172zM11.213 100h-.857c-.515 0-.858-.514-.686-1.03 0-.514.514-.857 1.029-.685 0 0 4.46.514 7.547-2.402 2.23-2.058 3.43-5.317 3.43-9.777 0-6.175-3.602-12.864-7.375-19.897-4.803-8.92-9.606-18.181-8.062-27.616C8.126 26.93 18.76 24.7 30.081 22.298c5.66-1.2 11.493-2.4 16.467-4.802C60.613 10.806 60.784 1.029 60.784.858c0-.515.344-.858.858-.858.515 0 .858.343.858.858 0 .514-.172 10.977-15.266 18.181-5.146 2.573-11.15 3.774-16.981 4.975-11.15 2.23-20.755 4.288-22.47 14.751-1.544 8.92 3.259 18.01 7.89 26.587 3.945 7.204 7.547 14.065 7.547 20.754 0 4.975-1.372 8.748-4.116 11.15-2.745 2.401-6.175 2.744-7.89 2.744z" fill="#C36"/></svg>