<svg width="93" height="100" viewBox="0 0 93 100" fill="none" xmlns="http://www.w3.org/2000/svg"><path d="M45.69 76.844c-.343.171-.514.171-.857 0-.172 0-.172 0-.343-.172-.515-.171-.858-.857-.515-1.372.172-.514.858-.858 1.372-.514l.172.171c.515.172.858.858.686 1.372l-.514.515zm-3.43-1.715a1.093 1.093 0 0 1-1.03 0l-.17-.172c-.172-.171-.515-.343-.687-.343-.686-.343-1.543-.858-2.23-1.2-.514-.344-.686-1.03-.343-1.544.343-.515 1.03-.686 1.544-.343.686.343 1.2.857 2.058 1.2.172.172.515.343.687.343l.343.172c.514.343.686 1.029.343 1.544-.172 0-.343.171-.515.343zm-5.489-4.46c-.514.343-1.2 0-1.372-.515l-.172-.171c-.514-1.03-.857-2.23-1.2-3.43-.172-.515.171-1.201.857-1.201.515-.172 1.201.171 1.201.857.172 1.03.515 2.059 1.03 2.916v.172c.514.514.17 1.2-.344 1.372zm-1.544-6.861c-.171 0-.343.171-.514.171-.515 0-1.03-.514-1.03-1.029 0-1.543.344-2.916.858-3.945.343-.514.858-.686 1.373-.515.514.344.686.858.514 1.373a6.634 6.634 0 0 0-.686 2.916c.172.514-.171.857-.514 1.029z" fill="#C36"/><path d="M45.176 77.187c-.172 0-.343 0-.515-.171-.171 0-.171 0-.343-.172-.343-.172-.514-.343-.686-.686a1.093 1.093 0 0 1 0-1.03c.172-.342.343-.514.686-.685a1.094 1.094 0 0 1 1.03 0l.17.171c.344.172.515.343.687.686.171.343.171.686 0 1.03-.172.342-.343.514-.686.686 0 .171-.172.171-.343.171zm-.172-2.23h-.343c-.171 0-.343.172-.514.515-.172.514 0 .857.514 1.2 0 0 .172 0 .343.172.172.172.515 0 .686 0 .172-.172.343-.172.343-.515v-.686l-.514-.514-.172-.172h-.343zm-3.259.515c-.171 0-.514 0-.686-.172l-.171-.171c-.172-.172-.515-.343-.687-.343a15.652 15.652 0 0 1-2.23-1.373.943.943 0 0 1-.514-.857c0-.343 0-.686.172-1.03.343-.514 1.2-.685 1.715-.342.686.343 1.372.857 2.058 1.2h.172c.171.172.514.172.686.343l.343.172c.343.171.514.514.686.858.171.343 0 .686-.172 1.029l-.514.514c-.343 0-.686.172-.858.172zm-3.087-3.945c-.343 0-.515.171-.686.343-.172.171-.172.343-.172.686s.172.343.343.514c.686.515 1.372.858 2.23 1.201.172.172.515.343.686.343l.172.172c.171.171.514.171.857 0a.369.369 0 0 0 .343-.343c.172-.172.172-.515 0-.686 0-.172-.171-.344-.343-.515l-.343-.172c-.171-.171-.514-.171-.686-.343h-.171c-.687-.343-1.373-.686-2.059-1.2h-.171zm-2.402-.515c-.514 0-.857-.171-1.2-.686l-.172-.171c-.514-1.03-1.03-2.23-1.2-3.431-.172-.686.343-1.372 1.029-1.544.343 0 .686 0 1.029.172a.943.943 0 0 1 .514.857c.172 1.03.515 2.059 1.03 2.916v.172c.171.343.171.686.171 1.029 0 .343-.343.515-.686.686h-.515zm-1.2-5.489h-.172c-.514.172-.686.515-.686 1.03.343 1.2.686 2.4 1.2 3.43l.172.171c.172.344.686.515 1.2.343.344-.171.515-.686.344-1.2v-.172c-.515-.857-.858-1.887-1.03-2.916 0-.171-.17-.343-.342-.514-.343 0-.515-.172-.686-.172zm-.343-1.372c-.687 0-1.373-.686-1.201-1.372 0-1.544.343-2.916 1.029-3.945.343-.687 1.03-.858 1.715-.515.343.172.515.515.686.686.172.343 0 .686-.171 1.03a6.632 6.632 0 0 0-.686 2.915c0 .515-.343.858-.686 1.03-.172.171-.343.171-.686.171zm.857-5.489c-.343 0-.686.172-.686.515-.514 1.029-.858 2.23-.858 3.773 0 .172 0 .515.172.686.172.172.343.343.515.343.171 0 .343 0 .343-.171.343-.172.514-.343.514-.686 0-1.2.343-2.23.686-3.088.172-.171.172-.514 0-.686 0-.171-.171-.343-.343-.514 0-.172-.171-.172-.343-.172z" fill="#fff"/><path d="M21.943 46.413c.172 0 .515 0 .686.171a23.336 23.336 0 0 0 2.916 2.059c.515.343.686 1.029.343 1.543-.343.515-1.029.686-1.543.343-.858-.514-1.716-1.2-2.916-2.058-.515-.343-.515-1.03-.172-1.544.172-.343.515-.514.686-.514zm6.175 3.602h.343c1.201.343 2.402.686 3.43 1.029.515.172.858.686.687 1.372-.172.515-.686.858-1.372.686-1.03-.343-2.23-.686-3.43-1.029-.515-.171-.858-.858-.687-1.372.172-.343.515-.686 1.03-.686zm10.292.514c.514 0 .858.343 1.029.686.172.515-.172 1.201-.686 1.373-1.2.343-2.401.686-3.43 1.029-.515.171-1.201-.172-1.373-.686-.171-.515.172-1.2.686-1.372 1.03-.343 2.059-.515 3.43-1.03h.344z" fill="#C36"/><path d="M21.944 46.241c.343 0 .514.172.857.343a23.336 23.336 0 0 0 2.916 2.059c.515.343.686 1.2.343 1.715-.343.515-1.2.686-1.715.343a23.327 23.327 0 0 1-2.916-2.058c-.515-.515-.686-1.201-.172-1.716 0-.514.343-.686.686-.686zm2.915 4.117c.343 0 .515-.172.686-.343.344-.343.172-.858-.171-1.2-.858-.515-1.715-1.201-2.916-2.06-.343-.342-.858-.17-1.2.172-.344.343-.172.858.17 1.201 1.202.858 2.06 1.544 2.917 2.058.171.172.343.172.514.172zm3.26-.515h.343c1.2.343 2.4.686 3.43 1.03.343 0 .686.343.858.514.171.172.171.686.171 1.03-.171.685-.858 1.028-1.544.857-1.029-.343-2.23-.686-3.43-1.03-.686-.17-1.03-.857-.858-1.543 0-.515.343-.858 1.03-.858zm3.43 3.088c.343 0 .686-.172.858-.686 0-.172 0-.515-.172-.686-.172-.172-.343-.343-.514-.343a15.31 15.31 0 0 1-3.431-1.03c-.515-.171-.858.172-1.03.515v.686c.172.172.344.343.515.343 1.201.343 2.402.686 3.43 1.03.172.17.172.17.344.17zm6.861-2.573c.515 0 1.03.343 1.2.858.172.686-.17 1.372-.857 1.543-1.372.343-2.401.686-3.43 1.03-.343.171-.687 0-1.03-.172a.943.943 0 0 1-.514-.858c0-.343 0-.686.171-1.029a.943.943 0 0 1 .858-.514c1.03-.343 2.058-.515 3.43-1.03 0 .172 0 .172.172.172zm-3.43 3.087h.171c1.03-.343 2.23-.514 3.43-1.029.515-.171.687-.686.515-1.029-.171-.514-.686-.686-1.029-.514-1.2.343-2.401.686-3.43 1.029-.172 0-.344.171-.515.343-.172.171-.172.343-.172.686 0 .171.172.343.343.514.343-.171.515 0 .687 0z" fill="#fff"/><path d="M51.865 76.33c-.172-.515 0-1.201.686-1.373l.171-.171c.515-.172 1.201 0 1.373.514.171.515 0 1.2-.515 1.372-.171 0-.171 0-.343.172-.343.171-.686.171-.858 0-.343-.172-.514-.343-.514-.515zm3.43-1.716c-.343-.514-.171-1.2.343-1.544l.343-.171c.172-.172.515-.343.687-.343.686-.343 1.372-.686 2.058-1.2.514-.344 1.2-.172 1.544.342.343.515.171 1.2-.343 1.544-.687.514-1.544.858-2.23 1.2-.172.172-.515.344-.686.344l-.172.171a1.094 1.094 0 0 1-1.029 0c-.343 0-.515-.171-.515-.343zm5.832-3.945c-.514-.343-.686-.858-.514-1.372v-.172c.514-.857.857-1.887 1.029-2.916a1.29 1.29 0 0 1 1.2-.857c.515.171.858.686.858 1.2-.343 1.201-.686 2.402-1.2 3.43l-.172.172c0 .687-.686.858-1.2.515zm1.03-7.719c0-1.2-.344-2.23-.687-2.916-.343-.514 0-1.2.515-1.372.514-.343 1.2 0 1.372.515.515 1.029.858 2.401.858 3.945 0 .514-.515 1.029-1.03 1.029-.17 0-.343 0-.514-.172-.343-.343-.515-.686-.515-1.029z" fill="#C36"/><path d="M52.723 77.187c-.172 0-.343 0-.515-.171-.343-.172-.514-.344-.686-.687a1.094 1.094 0 0 1 0-1.029c.172-.343.343-.514.686-.686l.172-.171a1.093 1.093 0 0 1 1.029 0c.343.171.514.343.686.686.172.343.172.686 0 1.029-.172.343-.343.514-.686.686-.172 0-.172 0-.343.172 0 .171-.172.171-.343.171zm-.686-1.03c0 .172.171.344.343.516.171.171.514.171.686 0 .171 0 .171 0 .343-.172.171-.172.343-.172.514-.515.172-.343 0-.514 0-.686-.171-.171-.171-.343-.514-.514h-.686l-.172.171c-.514.343-.686.858-.514 1.2zm4.116-.685c-.171 0-.343 0-.514-.172l-.515-.514c-.171-.343-.171-.686-.171-1.03.171-.343.343-.686.686-.857l.343-.172c.171-.171.514-.171.686-.343.686-.343 1.372-.686 2.058-1.2.343-.172.686-.343 1.03-.172.342 0 .685.172.857.515.172.343.343.686.172 1.029a.943.943 0 0 1-.515.857c-.686.515-1.544.858-2.23 1.373-.171.171-.514.343-.686.343l-.172.171c-.514 0-.857.172-1.029.172zm-.686-.858c0 .172.172.343.343.343.343.172.515.172.858 0l.171-.171c.172-.172.515-.343.687-.343.686-.343 1.543-.858 2.23-1.201.17-.172.342-.343.342-.515 0-.171 0-.514-.171-.686-.172-.171-.343-.343-.515-.343-.171 0-.514 0-.686.172-.686.514-1.372.857-2.058 1.2-.172.172-.515.172-.686.343l-.343.172c-.172.172-.343.343-.343.515 0 .171 0 .343.171.514zm6.175-3.602c-.171 0-.343 0-.514-.171-.687-.343-.858-1.201-.515-1.716v-.171c.343-.858.858-1.887 1.03-2.916.17-.686.857-1.2 1.543-1.03.686.172 1.2.858 1.029 1.544-.343 1.201-.686 2.402-1.2 3.43l-.172.172c-.343.687-.686.858-1.2.858zm1.2-5.489c-.342 0-.685.343-.857.686-.171 1.03-.686 2.059-1.029 2.916v.172c-.172.343 0 .857.343 1.2l-.171.172.171-.171c.343.171.858 0 1.2-.344l.172-.171c.515-1.03.858-2.23 1.201-3.43.171-.515-.172-.858-.686-1.03h-.343zm.344-1.372c-.172 0-.343 0-.515-.171-.343-.172-.686-.687-.686-1.03 0-1.2-.343-2.23-.686-2.916-.343-.686-.171-1.372.515-1.715.686-.343 1.372-.171 1.715.515.514 1.029.858 2.401 1.03 3.945 0 .857-.687 1.372-1.373 1.372zm-.858-5.489c-.171 0-.343 0-.343.172-.343.171-.514.686-.343 1.2.343.858.686 1.887.686 3.088 0 .343.172.514.515.686.171 0 .343.172.343.172.514 0 .857-.344.857-.858 0-1.544-.343-2.745-.857-3.774-.172-.514-.515-.686-.858-.686z" fill="#fff"/><path d="M76.542 46.655c.343.515.343 1.201-.171 1.544-1.201.858-2.059 1.544-2.916 2.058-.515.343-1.201.172-1.544-.343-.343-.514-.172-1.2.343-1.543.858-.515 1.715-1.201 2.916-2.059.171-.171.343-.171.686-.171.172.171.515.343.686.514zm-5.832 4.117c.172.514-.171 1.2-.686 1.372-1.2.343-2.401.686-3.43 1.03-.515.17-1.201-.172-1.373-.687-.171-.514.172-1.2.686-1.372 1.03-.172 2.23-.515 3.43-1.03h.344c.343-.17.858.172 1.03.687zm-11.15-.343c1.202.343 2.402.686 3.431 1.03.515.17.858.685.687 1.371-.172.686-.687.858-1.373.686-1.029-.343-2.23-.514-3.43-1.029-.515-.171-.858-.686-.686-1.372.171-.515.514-.686 1.029-.686h.343z" fill="#C36"/><path d="M75.684 46.14c.344 0 .858.172 1.03.515.343.515.343 1.373-.172 1.716-1.2.857-2.058 1.543-2.916 2.058-.514.343-1.372.171-1.715-.343-.343-.515-.172-1.372.343-1.715.686-.515 1.715-1.201 2.916-2.059 0-.171.171-.171.514-.171zm-2.915 4.117c.171 0 .343 0 .514-.171.858-.515 1.715-1.2 2.916-2.058.343-.343.515-.858.172-1.201-.343-.343-.858-.515-1.201-.172-1.2.858-2.058 1.544-2.916 2.059-.343.343-.515.857-.172 1.2.172.343.515.343.687.343zm-3.088-.514c.515 0 1.03.343 1.2.857.172.343 0 .687 0 1.03-.17.343-.342.514-.685.686-1.201.343-2.402.686-3.43 1.029-.687.171-1.373-.172-1.545-.858 0-.343 0-.686.172-1.029a.943.943 0 0 1 .858-.514 15.32 15.32 0 0 0 3.43-1.03c-.343-.171-.171-.171 0-.171zm-3.43 3.087h.171c1.03-.343 2.23-.686 3.43-1.029.172 0 .344-.171.515-.343.172-.171.172-.514 0-.686-.171-.515-.686-.686-1.029-.515-1.2.343-2.401.687-3.43 1.03-.172 0-.344.171-.515.343-.172.171-.172.343-.172.686.343.343.686.514 1.03.514zm-7.033-2.573h.343c1.2.343 2.401.687 3.43 1.03.344 0 .687.343.858.514.172.172.172.686.172 1.03 0 .342-.343.685-.515.857-.343.171-.686.171-1.029.171-1.03-.343-2.23-.514-3.43-1.029-.687-.171-1.03-.857-.858-1.543 0-.687.514-1.03 1.029-1.03zm3.43 3.088c.172 0 .343 0 .515-.172.172-.171.343-.343.343-.514 0-.172 0-.515-.171-.686-.172-.172-.343-.343-.515-.343-1.03-.344-2.23-.515-3.43-1.03-.515-.171-.858.172-1.03.515-.171.515.172.858.515 1.03 1.372.342 2.401.685 3.43 1.028l.343.172z" fill="#fff"/><path d="M71.248 44.768a.944.944 0 0 1-.858-.514s-.858-2.058-2.23-2.058c-.515 0-.858-.343-.858-.858 0-.515.343-.858.858-.858 2.573 0 3.774 2.916 3.945 3.088.172.514 0 .857-.514 1.029-.172.171-.172.171-.343.171zM29.052 84.22h-.171c-.515-.172-.686-.515-.686-1.03.857-3.773 1.2-7.547 1.2-11.492 0-.514.343-.857.858-.857.515 0 .858.343.858.857 0 4.117-.343 7.89-1.201 11.836-.172.342-.515.685-.858.685zM56.154 33.962h-.343c-.515-.171-.686-.686-.515-1.2 0-.172 4.288-9.263 19.211-3.946.515.172.686.687.515 1.03-.172.514-.686.686-1.03.514-13.378-4.802-16.98 2.573-17.152 2.916 0 .515-.343.686-.686.686z" fill="#C36"/><path d="M62.5 44.082c-3.26 0-6.004-1.372-6.175-1.543-.343-.172-.515-.687-.343-1.201.171-.343.686-.515 1.2-.343 0 0 6.175 3.087 10.292-.343 1.887-1.544 3.602-2.23 5.317-2.059 2.059.343 3.088 1.716 3.088 1.887.343.343.171.858-.172 1.2-.343.344-.857.172-1.2-.17 0 0-.686-.858-1.887-1.03-1.2-.171-2.401.343-3.945 1.544-2.058 1.544-4.117 2.058-6.175 2.058zM41.23 33.962a.943.943 0 0 1-.857-.514c-.172-.343-3.774-7.719-17.153-2.916-.514.171-.857 0-1.029-.515-.171-.514 0-.857.515-1.029 14.922-5.317 19.21 3.774 19.21 3.945.172.515 0 .858-.514 1.2 0-.17 0-.17-.172-.17zM35.056 44.082c-2.059 0-4.117-.514-6.004-2.058-1.372-1.2-2.744-1.715-3.945-1.544-1.2.172-1.887 1.03-1.887 1.03-.343.343-.857.514-1.2.17-.343-.342-.515-.857-.172-1.2 0 0 1.03-1.543 3.088-1.886 1.715-.172 3.43.514 5.317 2.058 4.117 3.602 10.291.514 10.291.343.344-.172.858 0 1.201.343.172.343 0 .858-.343 1.2-.343.172-3.087 1.544-6.346 1.544z" fill="#C36"/><path d="M26.308 44.769h-.343c-.515-.172-.687-.687-.515-1.03 0-.171 1.2-3.087 3.945-3.087.515 0 .858.343.858.858 0 .514-.343.857-.858.857-1.372 0-2.23 2.058-2.23 2.058a1.31 1.31 0 0 1-.857.344zM48.778 59.863c-1.887 0-3.43-1.03-4.116-1.887a.829.829 0 0 1 0-1.2.829.829 0 0 1 1.2 0c.343.342 2.745 2.744 6.175-.172.343-.343.858-.172 1.2.171.344.343.172.858-.17 1.201-1.544 1.372-3.088 1.887-4.289 1.887zM48.778 73.585c-3.088 0-6.175-1.715-9.091-4.803-.343-.343-.343-.686 0-1.029.171-.171 2.744-4.117 6.003-4.803 1.03-.171 2.058 0 3.088.515.857-.515 1.715-.686 2.572-.515 3.26.515 6.175 4.803 6.347 4.974.171.344.171.687 0 1.03-.172.171-3.43 4.63-8.405 4.974-.171-.343-.343-.343-.514-.343zm-7.376-5.489c2.573 2.573 5.146 3.945 7.719 3.774 3.259-.172 5.831-2.745 6.69-3.774-1.03-1.2-2.917-3.43-4.804-3.602-.686-.171-1.2.172-1.886.515-.343.171-.687.343-1.03 0-.686-.515-1.543-.686-2.23-.515-1.715.343-3.43 2.401-4.46 3.602z" fill="#C36"/><path d="M48.95 85.077c-6.004 0-8.406-2.744-8.577-2.916L24.42 67.067c-.172-.172-6.004-5.317-6.004-15.609V26.072c0-.514.343-.858.858-.858.515 0 .858.344.858.858v25.386c0 9.434 5.317 14.237 5.317 14.237l15.952 15.094s2.23 2.401 7.376 2.401c5.145 0 7.032-2.23 7.032-2.23.172-.17 10.292-9.948 16.124-15.437 5.832-5.146 5.489-14.923 5.489-14.923V26.93c0-.515.343-.858.857-.858.515 0 .858.343.858.858V50.6c0 .343.343 10.635-6.175 16.295-5.832 5.66-15.952 15.266-16.124 15.438.343 0-1.886 2.744-7.89 2.744z" fill="#C36"/><path d="M72.792 95.712c-.172 0-.515-.172-.686-.343-.172-.343-5.832-7.376-5.832-23.842 0-.515.343-.858.858-.858.514 0 .857.343.857.858 0 15.952 5.489 22.641 5.489 22.813.343.343.172.857-.171 1.2-.172.172-.344.172-.515.172zM82.226 61.921c-.172 0-.343 0-.515-.172-.343-.343-.514-.857-.171-1.2 0 0 5.488-7.033 3.773-17.496-1.887-11.32-10.978-22.47-27.101-32.761-.343-.172-.515-.858-.172-1.201.172-.343.858-.515 1.201-.172C75.88 19.554 85.141 31.046 87.2 42.882c1.887 11.32-3.774 18.525-4.117 18.867-.343 0-.686.172-.857.172zM36.428 15.437c-.343 0-.686-.343-.858-.686-.171-.514.172-.857.686-1.029C49.121 10.978 52.208 2.916 52.208 2.744c.172-.514.686-.686 1.03-.514.514.171.686.686.514 1.029-.171.343-3.43 9.09-17.324 12.007.171.171 0 .171 0 .171zM.75 38.25H.58c-.515-.171-.686-.686-.515-1.029C4.352 23.156 15.16 19.897 15.502 19.897c.514-.171.857.172 1.029.515.171.514-.172.857-.515 1.029-.171 0-10.463 3.087-14.408 16.295a.943.943 0 0 1-.858.514z" fill="#C36"/><path d="M81.368 73.585c-.343 0-.514-.172-.686-.343-.343-.343-.171-.858.172-1.2 11.835-8.92 10.291-26.416 10.291-26.587 0-.515.343-.858.858-.858.515 0 .858.343.858.858 0 .686 1.543 18.524-10.978 27.958-.172.172-.343.172-.515.172zM11.213 100h-.857c-.515 0-.858-.514-.686-1.03 0-.514.514-.857 1.029-.685 0 0 4.46.514 7.547-2.402 2.23-2.058 3.43-5.317 3.43-9.777 0-6.175-3.602-12.864-7.375-19.897-4.803-8.92-9.606-18.181-8.062-27.616C8.126 26.93 18.76 24.7 30.081 22.298c5.66-1.2 11.493-2.4 16.467-4.802C60.613 10.806 60.784 1.372 60.784.858c0-.515.344-.858.858-.858.515 0 .858.343.858.858 0 .514-.172 10.977-15.266 18.181-5.146 2.573-11.15 3.774-16.981 4.975-11.15 2.23-20.755 4.288-22.47 14.751-1.544 8.92 3.259 18.01 7.89 26.587 3.945 7.204 7.547 14.065 7.547 20.754 0 4.975-1.372 8.748-4.116 11.15-2.745 2.401-6.175 2.744-7.89 2.744z" fill="#C36"/></svg>