<svg width="93" height="100" viewBox="0 0 93 100" fill="none" xmlns="http://www.w3.org/2000/svg"><path d="M71.248 44.768a.943.943 0 0 1-.858-.514s-.858-2.058-2.23-2.058c-.515 0-.858-.343-.858-.858 0-.515.343-.858.858-.858 2.573 0 3.774 2.916 3.945 3.088.172.514 0 .857-.514 1.029-.172.171-.172.171-.343.171zM29.052 84.22h-.171c-.515-.172-.686-.515-.686-1.03.857-3.773 1.2-7.547 1.2-11.492 0-.514.343-.857.858-.857.515 0 .858.343.858.857 0 4.117-.343 7.89-1.201 11.836-.172.342-.515.685-.858.685zM56.154 33.962h-.343c-.515-.171-.686-.686-.515-1.2 0-.172 4.288-9.263 19.211-3.946.515.172.686.687.515 1.03-.172.514-.686.686-1.03.514-13.55-4.802-17.152 2.916-17.152 2.916 0 .515-.343.686-.686.686z" fill="#1A1A1A"/><path d="M62.5 44.082c-3.26 0-6.004-1.372-6.175-1.543-.343-.172-.515-.687-.343-1.201.171-.343.686-.515 1.2-.343 0 0 6.175 3.087 10.292-.343 1.887-1.544 3.602-2.23 5.317-2.059 2.059.343 3.088 1.716 3.088 1.887.343.343.171.858-.172 1.2-.343.344-.857.172-1.2-.17 0 0-.686-.858-1.887-1.03-1.2-.171-2.401.343-3.945 1.544-2.058 1.544-4.117 2.058-6.175 2.058zM41.23 33.962a.943.943 0 0 1-.857-.514c-.172-.343-3.774-7.719-17.153-2.916-.514.171-.857 0-1.029-.515-.171-.514 0-.857.515-1.029 14.922-5.317 19.21 3.774 19.21 3.945.172.515 0 .858-.514 1.2 0-.17 0-.17-.172-.17zM35.056 44.082c-2.059 0-4.117-.514-6.004-2.058-1.372-1.2-2.744-1.715-3.945-1.544-1.2.172-1.887 1.03-1.887 1.03-.343.343-.857.514-1.2.17-.343-.342-.515-.857-.172-1.2 0 0 1.03-1.543 3.088-1.886 1.715-.172 3.43.514 5.317 2.058 4.117 3.602 10.292.514 10.292.343.343-.172.857 0 1.2.343.172.343 0 .858-.343 1.2-.343.172-3.087 1.544-6.346 1.544z" fill="#1A1A1A"/><path d="M26.308 44.769h-.343c-.515-.172-.687-.687-.515-1.03 0-.171 1.2-3.087 3.945-3.087.515 0 .858.343.858.858 0 .514-.343.857-.858.857-1.372 0-2.23 2.058-2.23 2.058a1.31 1.31 0 0 1-.857.344zM48.778 58.148c-1.887 0-3.43-1.03-4.116-1.887a.829.829 0 0 1 0-1.201.829.829 0 0 1 1.2 0c.343.343 2.745 2.744 6.175-.172.343-.343.858-.171 1.2.172.344.343.172.858-.17 1.2-1.544 1.373-3.088 1.888-4.289 1.888zM48.778 73.585c-3.088 0-6.175-1.715-9.091-4.803-.343-.343-.343-.686 0-1.029.171-.171 2.744-4.117 6.003-4.803 1.03-.171 2.058 0 3.088.515.857-.515 1.715-.686 2.572-.515 3.26.515 6.175 4.803 6.347 4.975.171.343.171.686 0 1.029-.172.171-3.43 4.63-8.405 4.974-.172-.343-.343-.343-.514-.343zm-7.376-5.489c2.573 2.573 5.146 3.945 7.719 3.774 3.259-.172 5.831-2.745 6.69-3.774-1.03-1.2-2.917-3.43-4.804-3.602-.686-.171-1.2.172-1.886.515-.343.171-.687.343-1.03 0-.686-.515-1.543-.686-2.23-.515-1.715.343-3.43 2.401-4.46 3.602z" fill="#1A1A1A"/><path d="M48.95 85.077c-6.004 0-8.406-2.744-8.577-2.916L24.42 67.067c-.172-.172-6.004-5.317-6.004-15.609V26.072c0-.514.343-.858.858-.858.515 0 .858.344.858.858v25.386c0 9.434 5.317 14.237 5.317 14.237l15.952 15.094s2.23 2.401 7.376 2.401c5.145 0 7.032-2.23 7.032-2.23.172-.17 10.292-9.948 16.124-15.437 5.832-5.146 5.489-14.923 5.489-14.923V26.93c0-.515.343-.858.857-.858.515 0 .858.343.858.858V50.6c0 .343.343 10.635-6.175 16.295-5.832 5.66-15.952 15.266-16.124 15.438.343 0-1.886 2.744-7.89 2.744z" fill="#1A1A1A"/><path d="M72.792 95.712c-.172 0-.515-.172-.686-.343-.172-.343-5.832-7.376-5.832-23.842 0-.515.343-.858.858-.858.514 0 .857.343.857.858 0 15.952 5.489 22.641 5.489 22.813.343.343.172.857-.171 1.2-.172.172-.344.172-.515.172zM82.226 61.921c-.172 0-.343 0-.515-.172-.343-.343-.514-.857-.171-1.2 0 0 5.488-7.033 3.773-17.496-1.887-11.32-10.978-22.47-27.101-32.761-.343-.172-.515-.858-.172-1.201.343-.343.858-.515 1.201-.172C75.88 19.554 85.141 31.046 87.2 42.882c1.887 11.32-3.774 18.524-4.117 18.867-.343 0-.686.172-.857.172zM36.428 15.437c-.343 0-.686-.343-.858-.686-.171-.514.172-.857.686-1.029C49.121 10.978 52.208 2.916 52.208 2.744c.172-.514.687-.686 1.03-.514.514.171.686.686.514 1.029-.171.343-3.43 9.09-17.324 12.007.171.171 0 .171 0 .171zM.75 38.25H.58c-.515-.171-.686-.686-.515-1.029C4.352 23.156 15.16 19.897 15.502 19.897c.514-.171.857.172 1.029.515.171.514-.172.857-.515 1.029-.171 0-10.463 3.087-14.408 16.295a.943.943 0 0 1-.858.514z" fill="#1A1A1A"/><path d="M81.368 73.585c-.343 0-.514-.172-.686-.343-.343-.343-.171-.858.172-1.2 11.835-8.92 10.291-26.416 10.291-26.587 0-.515.343-.858.858-.858.515 0 .858.343.858.858 0 .686 1.543 18.524-10.978 27.958-.172.172-.343.172-.515.172zM11.213 100h-.857c-.515 0-.858-.514-.686-1.03 0-.514.514-.857 1.029-.685 0 0 4.46.514 7.547-2.402 2.23-2.058 3.43-5.317 3.43-9.777 0-6.175-3.602-12.864-7.375-19.897-4.803-8.92-9.606-18.181-8.062-27.616C8.126 26.93 18.76 24.7 30.081 22.298c5.66-1.2 11.493-2.4 16.467-4.802C60.613 10.806 60.784 1.029 60.784.858c0-.515.344-.858.858-.858.515 0 .858.343.858.858 0 .514-.172 10.977-15.266 18.181-5.146 2.573-11.15 3.774-16.981 4.975-11.15 2.23-20.755 4.288-22.47 14.751-1.544 8.92 3.259 18.01 7.89 26.587 3.945 7.204 7.547 14.065 7.547 20.754 0 4.975-1.372 8.748-4.116 11.15-2.745 2.401-6.175 2.744-7.89 2.744zM61.47 69.811c-.171-.343-.171-1.029.343-1.2.515-.343 1.372-1.03 2.402-1.716.343-.343 1.029-.171 1.2.172.343.343.172 1.029-.171 1.2-.858.515-1.715 1.201-2.573 1.716-.343.343-.858.343-1.2-.172zm4.803-3.602c-.171-.343-.171-.857.172-1.2.857-.686 1.543-1.373 2.23-1.887a.829.829 0 0 1 1.2 0 .83.83 0 0 1 0 1.2c-.686.687-1.372 1.373-2.23 2.059-.343.343-1.029.343-1.372-.172 0 .172 0 .172 0 0zm4.117-4.288a1.093 1.093 0 0 1 0-1.03c.514-.685.857-1.543 1.372-2.572.171-.515.686-.686 1.2-.343.515.172.687.686.344 1.2-.515 1.03-1.03 1.887-1.544 2.745-.343.343-.858.515-1.2.343 0-.171-.172-.171-.172-.343zm2.573-5.489c-.172-.171-.172-.514 0-.857.686-1.544 1.029-2.745 1.029-2.745.171-.514.686-.686 1.2-.686.515.172.687.686.687 1.2 0 0-.344 1.201-1.03 2.917-.171.514-.686.686-1.2.514-.515 0-.686-.171-.686-.343z" fill="#1A1A1A"/><path d="M61.3 69.811c-.344-.514-.172-1.029.342-1.372.515-.343 1.372-1.029 2.401-1.715.515-.343 1.201-.172 1.544.171.343.515.172 1.201-.171 1.544-.858.515-1.715 1.2-2.573 1.715-.172.172-.515.172-.858.172-.171 0-.514-.172-.686-.515zm3.944-2.573c-.343-.343-.686-.514-1.029-.171-1.03.686-1.887 1.372-2.401 1.715-.343.172-.515.686-.172 1.03.172.17.343.342.515.342.171 0 .343 0 .514-.171.858-.515 1.716-1.2 2.573-1.715.172-.344.343-.686 0-1.03zm.858-.857c-.172-.515-.172-1.03.171-1.372.858-.686 1.544-1.373 2.059-1.887.343-.343 1.029-.343 1.543 0 .344.343.344 1.029 0 1.543-.686.687-1.372 1.373-2.23 2.059-.17.171-.514.343-.685.171-.172-.171-.515-.171-.858-.514.171 0 0 0 0 0zm3.773-2.916c0-.172 0-.172 0 0-.343-.515-.857-.515-1.2-.172-.515.687-1.373 1.201-2.23 1.887-.343.172-.343.686-.172.858v.171c.172.172.343.172.515.343.172 0 .343 0 .514-.171.858-.686 1.716-1.372 2.23-2.058.515-.344.515-.687.343-.858zm.344-1.544a1.094 1.094 0 0 1 0-1.03c.514-.685.857-1.543 1.372-2.572.171-.172.343-.515.514-.515.343-.171.515 0 .858 0 .171.172.515.343.515.515.171.343 0 .515 0 .858-.515 1.029-1.03 1.886-1.544 2.744-.343.515-1.03.686-1.372.343a.369.369 0 0 1-.343-.343zm2.916-3.43c0-.172-.172-.172-.344-.343-.171 0-.343-.172-.514 0a.369.369 0 0 0-.343.342c-.515 1.03-.858 1.887-1.372 2.573-.172.172-.172.515 0 .858 0 .172.171.172.171.172.172.171.343.171.515.171.171 0 .343-.171.514-.343.515-.858 1.03-1.715 1.544-2.744 0-.172 0-.515-.171-.687zm-.344-1.887c-.171-.343-.171-.686 0-.858a23.252 23.252 0 0 0 1.03-2.744c.171-.515.686-.858 1.372-.686.343 0 .514.343.686.514.171.172.171.515 0 .858 0 0-.343 1.2-1.03 2.916-.17.343-.342.514-.514.514-.171.172-.514.172-.857 0-.344-.171-.515-.343-.687-.514zm2.573-3.774c-.171-.171-.171-.343-.514-.343-.343-.171-.858.172-.858.515 0 0-.343 1.2-1.03 2.744v.686c0 .172.172.172.344.343.343.172.858 0 1.03-.343a33.518 33.518 0 0 0 1.028-2.916c.172-.343 0-.514 0-.686z" fill="#fff"/><path d="M35.914 69.811c-.343.343-.858.515-1.2.172-.858-.515-1.716-1.2-2.574-1.715-.343-.344-.514-.858-.171-1.201.343-.343.857-.515 1.2-.172 1.03.687 1.887 1.373 2.402 1.716.514.171.686.857.343 1.2zm-4.803-3.43c-.343.343-.858.514-1.2.171-.858-.686-1.716-1.372-2.23-2.058a.829.829 0 0 1 0-1.2.829.829 0 0 1 1.2 0c.515.686 1.372 1.2 2.23 1.886.172.172.343.686 0 1.2zm-4.288-4.117c-.343.343-1.03.172-1.2-.343-.515-.858-1.03-1.715-1.544-2.744-.172-.515 0-1.03.343-1.201.514-.172 1.029 0 1.2.343.515 1.03.858 1.887 1.372 2.573.172.343.172.686 0 1.03 0 .17 0 .17-.171.342zm-2.744-5.317c-.515.171-1.03 0-1.201-.515-.686-1.715-1.03-2.916-1.03-2.916-.17-.514.172-1.029.687-1.2.514-.172 1.029.171 1.2.686 0 0 .344 1.2 1.03 2.744.171.343 0 .515 0 .858-.343 0-.515.171-.686.343z" fill="#1A1A1A"/><path d="M36.085 69.983c-.171.343-.343.343-.686.514-.343 0-.514 0-.858-.171-.857-.515-1.715-1.2-2.572-1.715-.515-.343-.515-1.03-.172-1.544.343-.515 1.03-.515 1.544-.172 1.029.687 1.887 1.373 2.401 1.716.515.171.686.686.343 1.372 0-.172 0-.172 0 0zm-3.773-1.715c.857.514 1.715 1.2 2.573 1.715.171.171.343.171.514.171.172 0 .343-.171.515-.343.171-.343.171-.686-.172-1.029-.514-.343-1.372-1.029-2.401-1.715-.343-.172-.858-.172-1.03.172-.342.343-.342.685 0 1.029zm-1.03-1.887c-.343.343-.514.514-.857.514-.343 0-.515 0-.686-.171-.858-.686-1.716-1.372-2.23-2.058-.343-.343-.343-1.03 0-1.544.343-.343 1.029-.343 1.544 0 .514.514 1.372 1.2 2.058 1.887.343.343.514.857.171 1.372zm-3.602-2.058c.686.686 1.373 1.372 2.23 2.058.172.171.343.171.515.171.171 0 .343-.171.514-.343v-.171c.172-.343.172-.686-.171-.858-.858-.686-1.544-1.372-2.23-1.887-.343-.343-.686-.343-1.03 0l-.17.172c0 .171 0 .514.342.858zm-.514-2.402c0 .172-.172.172-.343.343-.515.343-1.2.172-1.372-.343-.515-.858-1.03-1.715-1.544-2.744-.172-.172-.172-.515 0-.858.171-.343.343-.515.514-.515.172-.171.515-.171.858 0 .343.172.515.343.515.515.514 1.03.857 1.887 1.372 2.573.343.343.343.686 0 1.03.171 0 0 0 0 0zm-2.916-3.43v.514c.515 1.03 1.03 1.887 1.544 2.745.171.171.343.343.514.343.172 0 .343 0 .515-.172.171 0 .171-.171.171-.171.172-.172.172-.515 0-.858-.514-.686-.857-1.544-1.372-2.573a.369.369 0 0 0-.343-.343h-.514c-.344.172-.344.343-.515.515zm.343-1.887c-.172.171-.343.343-.515.343-.343.171-.514.171-.857 0-.343-.172-.515-.343-.515-.515a33.478 33.478 0 0 1-1.029-2.916v-.857c.172-.172.343-.343.686-.515.515-.171 1.2.172 1.372.686 0 0 .343 1.201 1.03 2.745 0 .343 0 .686-.172 1.029zm-2.401-3.774c-.172.172-.172.343 0 .515 0 0 .343 1.2 1.029 2.916.171.343.514.514 1.029.343a.369.369 0 0 0 .343-.343c.171-.172.171-.343 0-.686-.686-1.544-1.03-2.745-1.03-2.745-.17-.343-.514-.686-.857-.514-.343.171-.514.343-.514.514z" fill="#fff"/></svg>