<svg width="93" height="100" viewBox="0 0 93 100" fill="none" xmlns="http://www.w3.org/2000/svg"><path d="M71.248 44.768a.943.943 0 0 1-.858-.514s-.858-2.058-2.23-2.058c-.515 0-.858-.344-.858-.858 0-.515.343-.858.858-.858 2.573 0 3.774 2.916 3.945 3.088.172.514 0 .857-.514 1.029-.172.171-.172.171-.343.171zM29.052 84.22h-.171c-.515-.172-.686-.515-.686-1.03.857-3.773 1.2-7.547 1.2-11.492 0-.514.343-.857.858-.857.515 0 .858.343.858.857 0 4.117-.343 7.89-1.201 11.836-.172.342-.515.685-.858.685zM56.154 33.962h-.343c-.515-.171-.686-.686-.515-1.2 0-.172 4.288-9.263 19.211-3.946.515.172.686.687.515 1.03-.172.514-.686.686-1.03.514-13.378-4.802-16.98 2.573-17.152 2.916 0 .515-.343.686-.686.686z" fill="#C36"/><path d="M62.5 44.082c-3.26 0-6.004-1.372-6.175-1.543-.343-.172-.515-.687-.343-1.201.171-.515.686-.515 1.2-.343 0 0 6.175 3.087 10.292-.343 1.887-1.544 3.602-2.23 5.317-2.059 2.059.343 3.088 1.716 3.088 1.887.343.343.171.858-.172 1.2-.343.344-.857.172-1.2-.17 0 0-.686-.858-1.887-1.03-1.2-.171-2.401.343-3.945 1.544-2.058 1.544-4.117 2.058-6.175 2.058zM41.23 33.962a.943.943 0 0 1-.857-.514c-.172-.343-3.774-7.719-17.153-2.916-.514.171-.857 0-1.029-.515-.171-.514 0-.857.515-1.029 14.922-5.317 19.21 3.774 19.21 3.945.172.515 0 .858-.514 1.2 0-.17 0-.17-.172-.17zM35.056 44.082c-2.059 0-4.117-.514-6.004-2.058-1.372-1.2-2.744-1.715-3.945-1.544a3.166 3.166 0 0 0-1.887 1.03c-.343.343-.857.514-1.2.17-.343-.342-.515-.857-.172-1.2 0 0 1.03-1.543 3.088-1.886 1.715-.172 3.43.514 5.317 2.058 4.117 3.602 10.291.514 10.291.343.344-.172.858 0 1.201.343.172.343 0 .858-.343 1.2-.343.172-3.087 1.544-6.346 1.544z" fill="#C36"/><path d="M26.308 44.768h-.343c-.515-.171-.687-.686-.515-1.029 0-.171 1.2-3.087 3.945-3.087.515 0 .858.343.858.858 0 .514-.343.857-.858.857-1.372 0-2.23 2.058-2.23 2.058a1.31 1.31 0 0 1-.857.343zM48.778 58.148c-1.887 0-3.43-1.03-4.116-1.887a.829.829 0 0 1 0-1.201.83.83 0 0 1 1.2 0c.343.343 2.745 2.744 6.175-.172.343-.343.858-.171 1.2.172.344.343.172.858-.17 1.2-1.544 1.373-3.088 1.888-4.289 1.888zM48.778 73.585c-3.088 0-6.175-1.715-9.091-4.803-.343-.343-.343-.686 0-1.029.171-.171 2.744-4.117 6.003-4.803 1.03-.171 2.058 0 3.088.515.857-.515 1.715-.686 2.572-.515 3.26.515 6.175 4.803 6.347 4.975.171.343.171.686 0 1.029-.172.171-3.43 4.63-8.405 4.974-.171-.343-.343-.343-.514-.343zm-7.376-5.489c2.573 2.573 5.146 3.945 7.719 3.774 3.259-.172 5.831-2.745 6.69-3.774-1.03-1.2-2.917-3.43-4.804-3.602-.686-.171-1.2.172-1.886.515-.343.171-.687.343-1.03 0-.686-.515-1.543-.686-2.23-.515-1.715.343-3.43 2.401-4.46 3.602z" fill="#C36"/><path d="M48.95 85.077c-6.004 0-8.406-2.744-8.577-2.916L24.42 67.067c-.172-.172-6.004-5.317-6.004-15.609V26.072c0-.514.343-.858.858-.858.515 0 .858.344.858.858v25.386c0 9.434 5.317 14.237 5.317 14.237l15.952 15.094s2.23 2.401 7.376 2.401c5.145 0 7.032-2.23 7.032-2.23.172-.17 10.292-9.948 16.124-15.437 5.832-5.146 5.489-14.923 5.489-14.923V26.93c0-.515.343-.858.857-.858.515 0 .858.343.858.858V50.6c0 .343.343 10.635-6.175 16.295-5.832 5.66-15.952 15.266-16.124 15.438.343 0-1.886 2.744-7.89 2.744z" fill="#C36"/><path d="M72.792 95.712c-.172 0-.515-.172-.686-.343-.172-.343-5.832-7.376-5.832-23.842 0-.515.343-.858.858-.858.514 0 .857.343.857.858 0 15.952 5.489 22.641 5.489 22.813.343.343.172.857-.171 1.2-.172.172-.344.172-.515.172zM82.226 61.921c-.172 0-.343 0-.515-.171-.343-.343-.514-.858-.171-1.201 0 0 5.488-7.033 3.773-17.496-1.887-11.32-10.978-22.47-27.101-32.761-.343-.172-.515-.858-.172-1.201.172-.343.858-.515 1.201-.172C75.88 19.554 85.141 31.046 87.2 42.882c1.887 11.32-3.774 18.525-4.117 18.868-.343 0-.686.171-.857.171zM36.428 15.438c-.343 0-.686-.344-.858-.687-.171-.514.172-.857.686-1.029C49.121 10.978 52.208 2.916 52.208 2.744c.172-.514.686-.686 1.03-.514.514.171.686.686.514 1.03-.172.342-3.43 9.09-17.324 12.006.171.171 0 .171 0 .171zM.75 38.25H.58c-.515-.171-.686-.686-.515-1.029C4.352 23.156 15.16 19.897 15.502 19.897c.514-.171.857.172 1.029.515.171.343-.172.857-.515 1.029-.171 0-10.463 3.087-14.408 16.295a.943.943 0 0 1-.858.514z" fill="#C36"/><path d="M81.368 73.585c-.343 0-.514-.172-.686-.343-.343-.343-.171-.858.172-1.2 11.835-8.92 10.291-26.416 10.291-26.587 0-.515.343-.858.858-.858.515 0 .858.343.858.858 0 .686 1.543 18.524-10.978 27.958-.172.172-.343.172-.515.172zM11.213 100h-.857c-.515 0-.858-.514-.686-1.03 0-.514.514-.857 1.029-.685 0 0 4.46.514 7.547-2.402 2.23-2.058 3.43-5.317 3.43-9.777 0-6.175-3.602-12.864-7.375-19.897-4.803-8.92-9.606-18.181-8.062-27.616C8.126 26.93 18.76 24.7 30.081 22.298c5.66-1.2 11.493-2.4 16.467-4.802C60.613 10.806 60.784 1.372 60.784.858c0-.515.344-.858.858-.858.515 0 .858.343.858.858 0 .514-.172 10.977-15.266 18.181-5.146 2.573-11.15 3.774-16.981 4.975-11.15 2.23-20.755 4.288-22.47 14.751-1.544 8.92 3.259 18.01 7.89 26.587 3.945 7.204 7.547 14.065 7.547 20.754 0 4.975-1.372 8.748-4.116 11.15-2.745 2.401-6.175 2.744-7.89 2.744z" fill="#C36"/><path d="M30.082 66.038c-.172 0-.343-.172-.515-.343 0 0-.686-.858-1.372-2.402-.172-.514 0-1.029.515-1.2.514-.172 1.029 0 1.2.514l1.03 2.059c.342.343.171 1.029-.172 1.372 0 .171-.343.171-.686 0zm-2.059-4.631c-.343 0-.514-.343-.686-.686-.343-.687-.514-1.544-.857-2.402-.172-.515.171-1.03.686-1.2.514-.172 1.029.17 1.2.685.344.858.515 1.716.858 2.402.172.514-.171 1.029-.514 1.2-.344.172-.515.172-.687 0zm-1.543-4.803c-.343-.172-.515-.343-.686-.686-.343-1.201-.515-2.059-.515-2.745 0-.514.343-1.029.858-1.029.514 0 1.029.343 1.029.858 0 .171 0 .857.514 2.23.172.514-.171 1.029-.686 1.2-.171.172-.343.172-.514.172z" fill="#C36"/><path d="M30.082 66.38c-.172 0-.515-.17-.687-.342 0 0-.686-.858-1.372-2.573-.171-.515 0-1.2.686-1.544.515-.172 1.373 0 1.544.686.515 1.372 1.03 2.058 1.03 2.058.342.515.342 1.201-.172 1.716h-1.03zm-.687-4.116h-.514c-.343.172-.515.686-.343 1.03.686 1.715 1.372 2.4 1.372 2.4.172.344.686.344 1.03.172.342-.171.342-.686.17-1.029 0 0-.514-.686-1.2-2.058-.172-.343-.343-.515-.515-.515zm-1.372-.514c-.343-.172-.686-.343-.857-.687-.343-.686-.515-1.543-.858-2.4-.171-.344 0-.687 0-.858.172-.344.343-.515.686-.515.686-.172 1.2.171 1.544.686.343.858.514 1.715.857 2.401.172.686-.171 1.201-.686 1.544-.343-.172-.514-.171-.686-.171zm-.343-4.289h-.514c-.172 0-.343.172-.515.343-.171.172-.171.343 0 .515.343.858.515 1.715.858 2.401.171.343.514.515 1.029.515.343-.172.514-.515.514-1.03-.343-.685-.514-1.543-.857-2.4-.172-.172-.343-.344-.515-.344zm-1.372-.686c-.343-.171-.686-.343-.858-.857-.343-1.201-.514-2.23-.514-2.745 0-.686.514-1.2 1.2-1.2.687 0 1.201.514 1.201 1.2 0 .172 0 .686.515 2.059.171.343 0 .686-.172.857-.171.343-.343.515-.686.515-.171.343-.343.343-.686.171zm0-4.288h-.171c-.344 0-.687.343-.687.686 0 .515.172 1.372.515 2.573.172.343.515.686.858.515.171 0 .343-.172.514-.343.172-.172.172-.343 0-.515-.343-1.372-.514-1.887-.514-2.23 0-.343-.172-.514-.515-.686z" fill="#fff"/><path d="M66.788 65.866c-.343-.343-.515-.857-.172-1.372 0 0 .515-.686 1.03-2.058.171-.515.857-.686 1.2-.515.515.172.686.858.515 1.2-.686 1.545-1.2 2.402-1.372 2.402-.172.172-.343.343-.515.343-.172.343-.514.343-.686 0zm2.401-4.46c-.514-.171-.686-.686-.514-1.2.343-.686.514-1.544.857-2.402.172-.514.687-.857 1.201-.686.515.172.858.686.686 1.201-.343.858-.514 1.715-.858 2.401-.171.344-.343.515-.686.687-.343.171-.514.171-.686 0zm1.544-4.802c-.514-.172-.858-.686-.686-1.2.343-1.373.514-1.888.514-2.23 0-.515.515-1.03 1.03-.858.514 0 1.029.514.857 1.029 0 .514-.171 1.372-.514 2.744-.172.343-.343.515-.686.686-.172-.171-.343-.171-.515-.171z" fill="#C36"/><path d="M66.616 66.038c-.514-.343-.686-1.2-.171-1.715 0 0 .514-.687 1.029-2.059.343-.514 1.03-.857 1.544-.686.514.343.857 1.03.686 1.544-.686 1.715-1.372 2.401-1.372 2.573-.172.171-.343.343-.687.343-.343.343-.686.343-1.029 0zm1.2-3.43c-.685 1.371-1.2 2.058-1.2 2.058-.171.343-.171.857.172 1.029.343.171.857.171 1.029-.172 0 0 .515-.686 1.372-2.401.172-.343 0-.858-.343-1.03h-.514l-.515.515zm1.202-1.03c-.686-.171-.858-.858-.686-1.544.343-.686.514-1.544.857-2.401.172-.686.858-1.03 1.544-.686.343.171.514.343.686.514.172.343.172.515 0 .858-.343.858-.515 1.715-.858 2.401-.171.343-.343.687-.857.687-.172.343-.343.343-.686.171zm.514-3.602c-.343.858-.514 1.715-.857 2.401-.172.343 0 .858.514 1.03.343.171.858 0 1.03-.515.342-.686.514-1.544.857-2.402v-.514c-.172-.172-.172-.343-.515-.343h-.514c-.172-.172-.343 0-.515.343zm1.2-1.2c-.342-.172-.514-.344-.685-.515-.172-.343-.172-.515-.172-.858.343-1.372.515-1.887.515-2.058 0-.686.514-1.2 1.2-1.2.687 0 1.201.514 1.201 1.2 0 .514-.171 1.372-.514 2.744-.172.343-.343.686-.858.858-.343 0-.515 0-.686-.172zm0-3.603c0 .343-.17.858-.514 2.23v.515c.172.171.172.343.515.343.343.171.858-.172.858-.515.343-1.2.514-2.058.514-2.573 0-.343-.343-.686-.686-.686h-.171c-.172.172-.515.343-.515.686z" fill="#fff"/></svg>