<svg width="92" height="100" viewBox="0 0 92 100" fill="none" xmlns="http://www.w3.org/2000/svg">
<path d="M70.2831 44.1624C69.9447 44.1624 69.6063 43.9932 69.4371 43.6548C69.4371 43.6548 68.591 41.6243 67.2374 41.6243C66.7298 41.6243 66.3914 41.2859 66.3914 40.7783C66.3914 40.2707 66.7298 39.9323 67.2374 39.9323C69.7755 39.9323 70.9599 42.8088 71.1291 42.978C71.2983 43.4856 71.1291 43.824 70.6215 43.9932C70.4523 44.1624 70.4523 44.1624 70.2831 44.1624Z" fill="#1A1A1A"/>
<path d="M28.6591 83.0795H28.4898C27.9822 82.9103 27.813 82.5719 27.813 82.0643C28.6591 78.3418 28.9975 74.6193 28.9975 70.7276C28.9975 70.2199 29.3359 69.8815 29.8435 69.8815C30.3511 69.8815 30.6895 70.2199 30.6895 70.7276C30.6895 74.7885 30.3511 78.511 29.5051 82.4027C29.3359 82.7411 28.9975 83.0795 28.6591 83.0795Z" fill="#1A1A1A"/>
<path d="M55.3937 33.5025C55.2245 33.5025 55.2245 33.5025 55.0553 33.5025C54.5477 33.3333 54.3785 32.8257 54.5477 32.3181C54.5477 32.1489 58.7778 23.181 73.4986 28.4264C74.0062 28.5956 74.1755 29.1032 74.0062 29.4416C73.837 29.9492 73.3294 30.1184 72.991 29.9492C59.6238 25.2115 56.0705 32.8257 56.0705 32.8257C56.0705 33.3333 55.7321 33.5025 55.3937 33.5025Z" fill="#1A1A1A"/>
<path d="M61.6538 43.4856C58.4389 43.4856 55.7316 42.132 55.5624 41.9627C55.224 41.7935 55.0548 41.2859 55.224 40.7783C55.3932 40.4399 55.9008 40.2707 56.4084 40.4399C56.4084 40.4399 62.4998 43.4856 66.5607 40.1015C68.4219 38.5786 70.114 37.9018 71.806 38.071C73.8365 38.4094 74.8517 39.7631 74.8517 39.9323C75.1901 40.2707 75.0209 40.7783 74.6825 41.1167C74.3441 41.4551 73.8365 41.2859 73.4981 40.9475C73.4981 40.9475 72.8213 40.1015 71.6368 39.9323C70.4524 39.7631 69.268 40.2707 67.7451 41.4551C65.7147 42.978 63.6842 43.4856 61.6538 43.4856Z" fill="#1A1A1A"/>
<path d="M40.6724 33.5026C40.334 33.5026 39.9956 33.3334 39.8264 32.9949C39.6572 32.6565 36.1039 25.3807 22.9059 30.1185C22.3983 30.2877 22.0599 30.1185 21.8907 29.6109C21.7215 29.1032 21.8907 28.7648 22.3983 28.5956C37.1191 23.3503 41.3492 32.3181 41.3492 32.4873C41.5184 32.9949 41.3492 33.3334 40.8416 33.6718C40.8416 33.5026 40.8416 33.5026 40.6724 33.5026Z" fill="#1A1A1A"/>
<path d="M34.5811 43.4856C32.5507 43.4856 30.5202 42.978 28.6589 41.4551C27.3053 40.2707 25.9517 39.7631 24.7672 39.9323C23.5828 40.1015 22.906 40.9475 22.906 40.9475C22.5676 41.2859 22.06 41.4551 21.7215 41.1167C21.3831 40.7783 21.2139 40.2707 21.5523 39.9323C21.5523 39.9323 22.5676 38.4094 24.598 38.071C26.2901 37.9018 27.9821 38.5786 29.8434 40.1015C33.9043 43.6548 39.9957 40.6091 39.9957 40.4399C40.3341 40.2707 40.8417 40.4399 41.1801 40.7783C41.3493 41.1167 41.1801 41.6243 40.8417 41.9627C40.5033 42.132 37.796 43.4856 34.5811 43.4856Z" fill="#1A1A1A"/>
<path d="M25.9514 44.1624C25.7822 44.1624 25.7822 44.1624 25.613 44.1624C25.1054 43.9932 24.9362 43.4856 25.1054 43.1472C25.1054 42.978 26.2899 40.1015 28.9971 40.1015C29.5047 40.1015 29.8432 40.4399 29.8432 40.9476C29.8432 41.4552 29.5047 41.7936 28.9971 41.7936C27.6435 41.7936 26.7975 43.824 26.7975 43.824C26.6283 43.9932 26.2899 44.1624 25.9514 44.1624Z" fill="#1A1A1A"/>
<path d="M48.1179 59.0525C46.2567 59.0525 44.7338 58.0372 44.057 57.1912C43.7186 56.8528 43.7186 56.3452 44.057 56.0068C44.3954 55.6684 44.903 55.6684 45.2414 56.0068C45.5799 56.3452 47.9487 58.714 51.3328 55.8376C51.6712 55.4992 52.1788 55.6684 52.5172 56.0068C52.8557 56.3452 52.6865 56.8528 52.348 57.1912C50.8252 58.5449 49.3024 59.0525 48.1179 59.0525Z" fill="#1A1A1A"/>
<path d="M48.1173 72.5888C45.0716 72.5888 42.0259 70.8967 39.1494 67.8511C38.811 67.5127 38.811 67.1742 39.1494 66.8358C39.3186 66.6666 41.8567 62.7749 45.0716 62.0981C46.0868 61.9289 47.102 62.0981 48.1173 62.6057C48.9633 62.0981 49.8093 61.9289 50.6553 62.0981C53.8702 62.6057 56.7467 66.8358 56.9159 67.005C57.0851 67.3435 57.0851 67.6818 56.9159 68.0203C56.7467 68.1895 53.5318 72.5888 48.6249 72.9272C48.4557 72.5888 48.2865 72.5888 48.1173 72.5888ZM40.8415 67.1742C43.3795 69.7123 45.9176 71.0659 48.4557 70.8967C51.6706 70.7275 54.2086 68.1895 55.0546 67.1742C54.0394 65.9898 52.1782 63.7902 50.3169 63.6209C49.6401 63.4517 49.1325 63.7901 48.4557 64.1285C48.1173 64.2977 47.7788 64.4669 47.4404 64.1285C46.7636 63.6209 45.9176 63.4517 45.2408 63.6209C43.5487 63.9594 41.8567 65.9898 40.8415 67.1742Z" fill="#1A1A1A"/>
<path d="M48.2865 83.9256C42.3643 83.9256 39.9954 81.2183 39.8262 81.0491L24.0902 66.1591C23.921 65.9899 18.168 60.9137 18.168 50.7614V25.7191C18.168 25.2115 18.5064 24.8731 19.0141 24.8731C19.5217 24.8731 19.8601 25.2115 19.8601 25.7191V50.7614C19.8601 60.0677 25.1054 64.8054 25.1054 64.8054L40.8415 79.6955C40.8415 79.6955 43.0411 82.0643 48.1173 82.0643C53.1934 82.0643 55.0547 79.8646 55.0547 79.8646C55.2239 79.6954 65.2069 70.0508 70.9599 64.6362C76.7129 59.5601 76.3745 49.9154 76.3745 49.9154V26.5652C76.3745 26.0575 76.7129 25.7191 77.2205 25.7191C77.7281 25.7191 78.0665 26.0575 78.0665 26.5652V49.9154C78.0665 50.2538 78.4049 60.4061 71.9751 65.9899C66.2222 71.5736 56.2391 81.0491 56.0699 81.2183C56.4083 81.2183 54.2086 83.9256 48.2865 83.9256Z" fill="#1A1A1A"/>
<path d="M67.238 76.1422C67.0688 74.4501 67.0688 72.5889 67.0688 70.5584C67.0688 70.0508 66.7304 69.7124 66.2228 69.7124C65.7152 69.7124 65.3768 70.0508 65.3768 70.5584C65.3768 73.4349 65.546 75.973 65.8844 78.3418C66.2228 77.4958 66.7304 76.819 67.238 76.1422Z" fill="#1A1A1A"/>
<path d="M81.1126 61.0829C80.9434 61.0829 80.7742 61.083 80.6049 60.9137C80.2665 60.5753 80.0973 60.0677 80.4357 59.7293C80.4357 59.7293 85.8503 52.7919 84.1582 42.4704C82.297 31.3029 73.3291 20.3046 57.4239 10.1523C57.0855 9.98312 56.9163 9.30631 57.2547 8.9679C57.5931 8.62949 58.1007 8.46028 58.4391 8.79869C74.852 19.2894 83.989 30.6261 86.0195 42.3012C87.8808 53.4687 82.297 60.5753 81.9586 60.9137C81.6202 60.9137 81.2818 61.0829 81.1126 61.0829Z" fill="#1A1A1A"/>
<path d="M35.9347 15.2284C35.5963 15.2284 35.2579 14.89 35.0887 14.5516C34.9195 14.044 35.2579 13.7056 35.7655 13.5364C48.4559 10.8291 51.5016 2.87649 51.5016 2.70729C51.6708 2.19968 52.1784 2.03048 52.5168 2.19968C53.0244 2.36889 53.1936 2.8765 53.0244 3.21491C52.8552 3.55332 49.6403 12.1828 35.9347 15.0592C36.104 15.2284 35.9347 15.2284 35.9347 15.2284Z" fill="#1A1A1A"/>
<path d="M0.740271 37.7327H0.571066C0.0634517 37.5635 -0.105753 37.0559 0.0634518 36.7175C4.29357 22.8427 14.9535 19.6278 15.2919 19.6278C15.7995 19.4586 16.1379 19.797 16.3071 20.1354C16.4763 20.643 16.1379 20.9814 15.7995 21.1506C15.6303 21.1506 5.478 24.1963 1.58629 37.2251C1.41709 37.5635 1.07868 37.7327 0.740271 37.7327Z" fill="#1A1A1A"/>
<path d="M84.8349 68.0203C84.6657 68.0203 84.4965 68.0203 84.3273 67.8511C83.9889 67.5127 83.8197 67.0051 84.1581 66.6666C90.9263 57.5296 89.9111 45.0085 89.9111 44.8392C89.9111 44.3316 90.2495 43.9932 90.7571 43.9932C91.2647 43.9932 91.6031 44.3316 91.6031 44.8392C91.6031 45.3469 92.7875 58.2064 85.5117 67.6819C85.3425 67.8511 85.1733 68.0203 84.8349 68.0203Z" fill="#1A1A1A"/>
<path d="M11.0615 98.6464C10.5539 98.6464 10.2155 98.6464 10.2155 98.6464C9.70788 98.6464 9.36947 98.1387 9.53868 97.6311C9.53868 97.1235 10.0463 96.7851 10.5539 96.9543C10.5539 96.9543 14.9532 97.4619 17.9989 94.5854C20.1986 92.555 21.383 89.3401 21.383 84.9408C21.383 78.8494 17.8297 72.2504 14.1072 65.313C9.36947 56.5144 4.63174 47.3773 6.15458 38.0711C8.01583 26.5651 18.5065 24.3655 29.674 21.9966C35.2578 20.8122 41.0108 19.6277 45.9177 17.2589C59.7925 10.6599 59.9617 1.01523 59.9617 0.846024C59.9617 0.338409 60.3001 0 60.8077 0C61.3153 0 61.6537 0.338409 61.6537 0.846024C61.6537 1.35364 61.4845 11.6751 46.5945 18.7817C41.5184 21.3198 35.5962 22.5042 29.8432 23.6887C18.8449 25.8883 9.36947 27.9188 7.67742 38.2403C6.15458 47.0389 10.8923 56.0068 15.4608 64.467C19.3525 71.5736 22.9058 78.3418 22.9058 84.9408C22.9058 89.8477 21.5522 93.5702 18.8449 95.9391C16.1377 98.3079 12.7536 98.6464 11.0615 98.6464Z" fill="#1A1A1A"/>
<path d="M86.8653 75.4653C84.158 72.758 80.6047 71.2351 76.713 71.2351C72.8213 71.2351 69.268 72.758 66.5607 75.4653C63.8535 78.1725 62.3306 81.7258 62.3306 85.6175C62.3306 89.5092 63.8535 93.0625 66.5607 95.7698C69.268 98.4771 72.8213 99.9999 76.713 99.9999C80.6047 99.9999 84.158 98.4771 86.8653 95.7698C89.5726 93.0625 91.0954 89.5092 91.0954 85.6175C91.0954 81.7258 89.5726 78.1725 86.8653 75.4653ZM76.713 98.3079C69.7756 98.3079 64.0227 92.5549 64.0227 85.6175C64.0227 78.6801 69.7756 72.9272 76.713 72.9272C83.6504 72.9272 89.4034 78.6801 89.4034 85.6175C89.4034 92.5549 83.6504 98.3079 76.713 98.3079Z" fill="black"/>
<path d="M76.7131 74.6192C70.6217 74.6192 65.7148 79.5261 65.7148 85.6175C65.7148 91.7089 70.6217 96.6158 76.7131 96.6158C82.8045 96.6158 87.7114 91.7089 87.7114 85.6175C87.7114 79.5261 82.8045 74.6192 76.7131 74.6192ZM76.7131 86.9711C76.5439 86.8019 76.3747 86.6327 76.2055 86.4635C76.0363 86.2943 75.6979 86.2943 75.5287 86.1251C75.5287 85.9559 75.6979 85.6175 75.6979 85.4483C75.6979 85.2791 75.6979 84.9407 75.5287 84.7715C75.6979 84.7715 76.0363 84.6023 76.2055 84.4331C76.3747 84.2639 76.5439 84.0947 76.7131 83.9255C76.8823 84.0947 77.0515 84.2639 77.2207 84.4331C77.3899 84.6023 77.7283 84.6023 77.8975 84.7715C77.8975 84.9407 77.7283 85.2791 77.7283 85.4483C77.7283 85.6175 77.7283 85.9559 77.8975 86.1251C77.7283 86.1251 77.3899 86.2943 77.2207 86.4635C77.0515 86.8019 76.8823 86.8019 76.7131 86.9711ZM79.4204 85.6175C79.4204 85.4483 79.4204 84.9407 79.928 84.6023L85.0041 81.7258C85.5117 82.9102 85.8501 84.2639 85.8501 85.6175C85.8501 86.9711 85.5117 88.3248 85.0041 89.5092L79.928 86.6327C79.5896 86.2943 79.4204 85.7867 79.4204 85.6175ZM84.3273 80.2029L79.2512 83.0794C78.7435 83.4178 78.2359 83.2486 78.0667 83.0794C77.8975 82.9102 77.5591 82.741 77.5591 82.0642V76.142C80.2664 76.6496 82.8045 78.0033 84.3273 80.2029ZM75.8671 76.3112V82.2334C75.8671 82.741 75.5287 83.0794 75.3594 83.2486C75.1902 83.4178 74.6826 83.587 74.175 83.2486L69.0989 80.3722C70.6217 78.0033 72.9906 76.6497 75.8671 76.3112ZM68.2529 81.7258L73.329 84.6023C73.8366 84.9407 73.8366 85.4483 73.8366 85.6175C73.8366 85.7867 73.8366 86.2943 73.329 86.6327L68.2529 89.5092C67.7452 88.3248 67.4068 86.9711 67.4068 85.6175C67.4068 84.2639 67.576 82.9102 68.2529 81.7258ZM69.0989 91.0321L74.175 88.1556C74.6826 87.8172 75.1902 87.9864 75.3594 88.1556C75.5287 88.3248 75.8671 88.494 75.8671 89.1708V95.093C72.9906 94.5853 70.6217 93.2317 69.0989 91.0321ZM77.5591 94.9238V89.0016C77.5591 88.494 77.8975 88.1556 78.0667 87.9864C78.2359 87.8172 78.7435 87.648 79.2512 87.9864L84.3273 90.8628C82.8045 93.2317 80.2664 94.5854 77.5591 94.9238Z" fill="black"/>
</svg>
