<svg width="96" height="101" viewBox="0 0 96 101" fill="none" xmlns="http://www.w3.org/2000/svg"><path d="M70.283 44.162a.93.93 0 0 1-.846-.507s-.846-2.03-2.2-2.03c-.507 0-.846-.34-.846-.847 0-.507.339-.846.846-.846 2.538 0 3.723 2.877 3.892 3.046.17.508 0 .846-.508 1.015-.169.17-.169.17-.338.17zM28.659 83.08h-.17c-.507-.17-.676-.508-.676-1.016.846-3.722 1.184-7.445 1.184-11.336 0-.508.339-.846.846-.846.508 0 .846.338.846.846 0 4.06-.338 7.783-1.184 11.675-.17.338-.508.676-.846.676zM55.394 33.502h-.339c-.507-.169-.676-.676-.507-1.184 0-.17 4.23-9.137 18.95-3.892.508.17.677.677.508 1.016-.169.507-.677.676-1.015.507-13.367-4.738-16.92 2.877-16.92 2.877 0 .507-.339.676-.677.676z" fill="#C36"/><path d="M61.654 43.486c-3.215 0-5.922-1.354-6.092-1.523-.338-.17-.507-.677-.338-1.185.17-.338.677-.507 1.184-.338 0 0 6.092 3.046 10.153-.338 1.86-1.523 3.553-2.2 5.245-2.031 2.03.338 3.046 1.692 3.046 1.861.338.339.169.846-.17 1.185-.338.338-.846.169-1.184-.17 0 0-.677-.846-1.861-1.015-1.185-.169-2.369.339-3.892 1.523-2.03 1.523-4.06 2.03-6.091 2.03zM40.672 33.503a.93.93 0 0 1-.846-.508c-.169-.338-3.722-7.614-16.92-2.876-.508.169-.846 0-1.015-.508-.17-.508 0-.846.507-1.015C37.12 23.35 41.35 32.318 41.35 32.487c.17.508 0 .846-.507 1.185 0-.17 0-.17-.17-.17zM34.581 43.486c-2.03 0-4.06-.508-5.922-2.03-1.354-1.185-2.707-1.693-3.892-1.524a3.123 3.123 0 0 0-1.861 1.015c-.338.339-.846.508-1.184.17-.339-.339-.508-.846-.17-1.185 0 0 1.016-1.523 3.046-1.861 1.692-.17 3.384.508 5.245 2.03 4.061 3.554 10.153.508 10.153.339.338-.17.846 0 1.184.338.17.339 0 .846-.338 1.185-.339.169-3.046 1.523-6.26 1.523z" fill="#C36"/><path d="M25.951 44.162h-.338c-.508-.169-.677-.676-.508-1.015 0-.169 1.185-3.045 3.892-3.045.508 0 .846.338.846.846 0 .507-.338.846-.846.846-1.354 0-2.2 2.03-2.2 2.03-.169.17-.507.338-.846.338zM48.118 59.053c-1.861 0-3.384-1.016-4.061-1.862a.818.818 0 0 1 0-1.184.818.818 0 0 1 1.184 0c.339.338 2.708 2.707 6.092-.17.338-.338.846-.169 1.184.17.339.338.17.846-.169 1.184-1.523 1.354-3.046 1.861-4.23 1.861zM48.117 72.589c-3.045 0-6.091-1.692-8.968-4.738-.338-.338-.338-.677 0-1.015.17-.17 2.708-4.061 5.923-4.738 1.015-.17 2.03 0 3.045.508.846-.508 1.692-.677 2.538-.508 3.215.508 6.092 4.738 6.26 4.907.17.339.17.677 0 1.015-.168.17-3.383 4.569-8.29 4.907-.17-.338-.339-.338-.508-.338zm-7.275-5.415c2.538 2.538 5.076 3.892 7.614 3.723 3.215-.17 5.753-2.708 6.599-3.723-1.016-1.184-2.877-3.384-4.738-3.553-.677-.17-1.184.17-1.861.508-.339.169-.677.338-1.016 0-.676-.508-1.522-.677-2.2-.508-1.691.338-3.383 2.369-4.398 3.553z" fill="#C36"/><path d="M48.286 83.926c-5.922 0-8.29-2.708-8.46-2.877L24.09 66.16c-.17-.17-5.922-5.245-5.922-15.398V25.72c0-.508.338-.846.846-.846s.846.338.846.846v25.042c0 9.307 5.245 14.044 5.245 14.044l15.736 14.89s2.2 2.37 7.276 2.37 6.938-2.2 6.938-2.2c.169-.17 10.152-9.814 15.905-15.229 5.753-5.076 5.414-14.72 5.414-14.72v-23.35c0-.508.339-.847.846-.847.508 0 .846.338.846.846v23.35c0 .339.339 10.491-6.09 16.075-5.754 5.584-15.737 15.06-15.906 15.228-.846.846-1.861 2.708-7.784 2.708z" fill="#C36"/><path d="M67.5 80c-.17-2.213-.431-6.525-.431-9.181 0-.664-.338-1.107-.846-1.107s-.846.443-.846 1.107c0 3.763.285 6.582.623 9.681.338-1.107.992.385 1.5-.5zM81.112 61.083c-.169 0-.338 0-.507-.17-.339-.338-.508-.845-.17-1.184 0 0 5.415-6.937 3.723-17.259-1.861-11.167-10.829-22.165-26.734-32.318-.339-.169-.508-.846-.17-1.184.34-.339.847-.508 1.185-.17C74.852 19.29 83.99 30.627 86.02 42.302c1.862 11.168-3.722 18.274-4.06 18.613-.339 0-.677.169-.847.169zM35.935 15.228c-.339 0-.677-.338-.846-.676-.17-.508.169-.846.677-1.016 12.69-2.707 15.736-10.66 15.736-10.829.169-.507.676-.677 1.015-.507.507.169.677.676.507 1.015-.169.338-3.384 8.968-17.09 11.844.17.17 0 .17 0 .17zM.74 37.733H.571c-.508-.17-.677-.677-.508-1.015 4.23-13.875 14.89-17.09 15.229-17.09.508-.17.846.169 1.015.507.17.508-.17.846-.507 1.016-.17 0-10.322 3.045-14.214 16.074a.93.93 0 0 1-.846.508zM84.835 68.02c-.17 0-.338 0-.508-.169-.338-.338-.507-.846-.169-1.184 6.768-9.137 5.753-21.659 5.753-21.828 0-.507.338-.846.846-.846s.846.339.846.846c0 .508 1.184 13.367-6.091 22.843-.17.17-.339.338-.677.338z" fill="#C36"/><path d="M11.062 98.646h-.846c-.508 0-.846-.507-.677-1.015 0-.507.507-.846 1.015-.677 0 0 4.4.508 7.445-2.369 2.2-2.03 3.384-5.245 3.384-9.644 0-6.092-3.553-12.69-7.276-19.628-4.737-8.799-9.475-17.936-7.952-27.242 1.86-11.506 12.352-13.705 23.52-16.074 5.583-1.185 11.336-2.37 16.243-4.738C59.792 10.659 59.962 1.015 59.962.846c0-.508.338-.846.846-.846.507 0 .846.338.846.846s-.17 10.83-15.06 17.936c-5.076 2.538-10.998 3.722-16.75 4.907-10.999 2.2-20.474 4.23-22.167 14.551-1.522 8.799 3.215 17.767 7.784 26.227 3.892 7.107 7.445 13.875 7.445 20.474 0 4.907-1.354 8.63-4.061 10.998-2.707 2.369-6.091 2.707-7.783 2.707z" fill="#C36"/><path fill-rule="evenodd" clip-rule="evenodd" d="M76.006 81.283c-1.262.72-2.148 1.802-2.478 2.46a.75.75 0 0 1-1.342 0c-.362-.725-1.081-1.792-2.124-2.487-1.004-.67-2.333-1.017-4.065-.325-3.426 1.371-4.197 5.521-2.058 8.373 1.146 1.528 3.48 3.867 5.568 5.856a175.487 175.487 0 0 0 3.35 3.105 174.044 174.044 0 0 0 3.35-3.105c2.089-1.99 4.423-4.328 5.569-5.856 1.09-1.454 1.616-3.25 1.441-4.822-.17-1.537-1.005-2.87-2.706-3.55-1.727-.691-3.271-.354-4.505.35zm-3.149 17.99l-.498.56-.021-.019-.061-.054a116.274 116.274 0 0 1-1.078-.975c-.71-.647-1.68-1.543-2.726-2.539-2.076-1.977-4.501-4.398-5.734-6.042-2.621-3.494-1.805-8.863 2.7-10.665 2.234-.894 4.079-.448 5.455.469.854.57 1.516 1.311 1.996 1.997a8.561 8.561 0 0 1 2.371-2.024c1.542-.881 3.568-1.338 5.807-.442 2.265.906 3.414 2.746 3.64 4.778.222 1.998-.443 4.168-1.732 5.887-1.233 1.644-3.659 4.065-5.734 6.042a176.595 176.595 0 0 1-3.804 3.514l-.061.054-.021.019-.499-.56zm0 0l.499.56a.75.75 0 0 1-.997 0l.498-.56zM84.424 78.52a.75.75 0 0 1-.096-1.056l4.04-4.848a.75.75 0 1 1 1.152.96l-4.04 4.848a.75.75 0 0 1-1.056.096zM87.184 83.156a.75.75 0 0 1 .508-.932l6.596-1.943a.75.75 0 1 1 .424 1.438l-6.596 1.944a.75.75 0 0 1-.931-.507zM83.42 94.524a.75.75 0 0 1 1.056-.103l5 4.108a.75.75 0 0 1-.952 1.16l-5-4.11a.75.75 0 0 1-.103-1.055zM86.276 89.697a.75.75 0 0 1 .918-.53L87 89.89l-.194.724a.75.75 0 0 1-.53-.918zm.724.194l-.194.724 6 1.61a.75.75 0 0 0 .388-1.45l-6-1.608-.194.724z" fill="#C36"/></svg>