<svg width="93" height="100" viewBox="0 0 93 100" fill="none" xmlns="http://www.w3.org/2000/svg">
<path d="M71.1255 44.8629C70.7831 44.8629 70.4406 44.6917 70.2694 44.3492C70.2694 44.3492 69.4132 42.2944 68.0433 42.2944C67.5296 42.2944 67.1872 41.952 67.1872 41.4383C67.1872 40.9246 67.5296 40.5821 68.0433 40.5821C70.6118 40.5821 71.8105 43.4931 71.9817 43.6643C72.1529 44.178 71.9817 44.5204 71.468 44.6917C71.2968 44.8629 71.1255 44.8629 71.1255 44.8629Z" fill="#CC3366"/>
<path d="M29.0026 84.2466H28.8313C28.3176 84.0754 28.1464 83.7329 28.1464 83.2192C29.0026 79.4521 29.345 75.685 29.345 71.7466C29.345 71.2329 29.6875 70.8904 30.2012 70.8904C30.7149 70.8904 31.0574 71.2329 31.0574 71.7466C31.0574 75.8562 30.7149 79.6233 29.8587 83.5617C29.6875 83.9041 29.345 84.2466 29.0026 84.2466Z" fill="#CC3366"/>
<path d="M56.0577 34.0753C55.8865 34.0753 55.8865 34.0753 55.7152 34.0753C55.2015 33.9041 55.0303 33.3904 55.2015 32.8767C55.2015 32.7055 59.4824 23.6301 74.3796 28.9384C74.8933 29.1096 75.0646 29.6233 74.8933 29.9658C74.7221 30.4795 74.2084 30.6507 73.8659 30.4795C60.3385 25.6849 56.7426 33.3904 56.7426 33.3904C56.5714 33.9041 56.4002 34.0753 56.0577 34.0753Z" fill="#CC3366"/>
<path d="M62.3928 44.178C59.1394 44.178 56.3996 42.8081 56.2284 42.6369C55.8859 42.4657 55.7147 41.952 55.8859 41.4383C56.0572 41.0958 56.5709 40.9246 57.0846 41.0958C57.0846 41.0958 63.2489 44.178 67.3585 40.7533C69.2421 39.2122 70.9544 38.5273 72.6668 38.6985C74.7216 39.041 75.7489 40.4109 75.7489 40.5821C76.0914 40.9246 75.9202 41.4383 75.5777 41.7807C75.2352 42.1232 74.7216 41.952 74.3791 41.6095C74.3791 41.6095 73.6942 40.7533 72.4955 40.5821C71.2969 40.4109 70.0983 40.9246 68.5572 42.1232C66.5024 43.6643 64.2763 44.178 62.3928 44.178Z" fill="#CC3366"/>
<path d="M41.1599 34.0753C40.8175 34.0753 40.475 33.9041 40.3038 33.5616C40.1325 33.2192 36.5366 25.8561 23.1805 30.6507C22.6668 30.8219 22.3243 30.6507 22.1531 30.137C21.9818 29.6233 22.1531 29.2808 22.6668 29.1096C37.564 23.8013 41.8449 32.8767 41.8449 33.0479C42.0161 33.5616 41.8449 33.9041 41.3312 34.2465C41.3312 34.0753 41.1599 34.0753 41.1599 34.0753Z" fill="#CC3366"/>
<path d="M34.9956 44.178C32.9408 44.178 30.886 43.6643 29.0024 42.1232C27.6326 40.9246 26.2627 40.4109 25.0641 40.5821C23.8655 40.7533 23.1805 41.6095 23.1805 41.6095C22.8381 41.952 22.3244 42.1232 21.9819 41.7807C21.6394 41.4383 21.4682 40.9246 21.8107 40.5821C21.8107 40.5821 22.8381 39.041 24.8929 38.6985C26.6052 38.5273 28.3175 39.2122 30.2011 40.7533C34.3107 44.3492 40.4751 41.267 40.4751 41.0958C40.8175 40.9246 41.3312 41.0958 41.6737 41.4383C41.8449 41.7807 41.6737 42.2944 41.3312 42.6369C40.9888 42.8081 38.249 44.178 34.9956 44.178Z" fill="#CC3366"/>
<path d="M26.2625 44.8631C26.0913 44.8631 26.0913 44.8631 25.92 44.8631C25.4063 44.6919 25.2351 44.1782 25.4063 43.8357C25.4063 43.6645 26.605 40.7535 29.3447 40.7535C29.8584 40.7535 30.2009 41.096 30.2009 41.6097C30.2009 42.1234 29.8584 42.4659 29.3447 42.4659C27.9748 42.4659 27.1187 44.5207 27.1187 44.5207C26.9474 44.6919 26.605 44.8631 26.2625 44.8631Z" fill="#CC3366"/>
<path d="M48.5233 59.9315C46.6397 59.9315 45.0986 58.9041 44.4137 58.0479C44.0712 57.7055 44.0712 57.1918 44.4137 56.8493C44.7562 56.5068 45.2699 56.5068 45.6123 56.8493C45.9548 57.1918 48.3521 59.589 51.7767 56.6781C52.1192 56.3356 52.6329 56.5068 52.9754 56.8493C53.3178 57.1918 53.1466 57.7055 52.8041 58.0479C51.4343 59.4178 49.8932 59.9315 48.5233 59.9315Z" fill="#CC3366"/>
<path d="M48.694 73.6301C45.6118 73.6301 42.5296 71.9177 39.6187 68.8355C39.2762 68.4931 39.2762 68.1506 39.6187 67.8081C39.7899 67.6369 42.3584 63.6985 45.6118 63.0136C46.6392 62.8424 47.6666 63.0136 48.694 63.5273C49.5502 63.0136 50.4063 62.8424 51.2625 63.0136C54.5159 63.5273 57.4269 67.8081 57.5981 67.9794C57.7693 68.3218 57.7693 68.6643 57.5981 69.0068C57.4269 69.178 54.1735 73.63 49.2077 73.9725C49.0365 73.63 48.8652 73.6301 48.694 73.6301ZM41.331 68.1506C43.8995 70.7191 46.468 72.089 49.0365 71.9177C52.2899 71.7465 54.8584 69.178 55.7146 68.1506C54.6872 66.952 52.8036 64.7259 50.92 64.5547C50.2351 64.3835 49.7214 64.7259 49.0365 65.0684C48.694 65.2396 48.3515 65.4109 48.0091 65.0684C47.3241 64.5547 46.468 64.3835 45.7831 64.5547C44.0707 64.8972 42.1872 66.952 41.331 68.1506Z" fill="#CC3366"/>
<path d="M48.8653 85.1028C42.8721 85.1028 40.4748 82.3631 40.3036 82.1918L24.379 67.1233C24.2077 66.9521 18.3858 61.8151 18.3858 51.5411V26.3699C18.3858 25.8562 18.7283 25.5137 19.242 25.5137C19.7557 25.5137 20.0981 25.8562 20.0981 26.3699V51.7124C20.0981 61.1302 25.4064 65.9247 25.4064 65.9247L41.331 80.9932C41.331 80.9932 43.557 83.3904 48.694 83.3904C53.831 83.3904 55.7146 81.1644 55.7146 81.1644C55.8858 80.9932 65.9885 71.2329 71.8105 65.7535C77.6324 60.6165 77.2899 50.8562 77.2899 50.8562V27.0548C77.2899 26.5411 77.6324 26.1987 78.1461 26.1987C78.6598 26.1987 79.0022 26.5411 79.0022 27.0548V50.685C79.0022 51.0274 79.3447 61.3014 72.8379 66.9521C67.0159 72.6028 56.9132 82.1918 56.742 82.363C57.0844 82.363 54.8584 85.1028 48.8653 85.1028Z" fill="#CC3366"/>
<path d="M67.0164 79.7946C67.3589 79.4521 67.8726 79.2809 68.2151 79.1096C67.8726 76.8836 67.7014 74.3151 67.7014 71.4041C67.7014 70.8904 67.3589 70.548 66.8452 70.548C66.3315 70.548 65.989 70.8904 65.989 71.4041C65.989 74.6576 66.1603 77.3973 66.5027 79.9658C66.8452 79.9658 66.8452 79.9658 67.0164 79.7946Z" fill="#CC3366"/>
<path d="M82.0847 61.9862C81.9134 61.9862 81.7422 61.9862 81.571 61.815C81.2285 61.4725 81.0573 60.9588 81.3997 60.6164C81.3997 60.6164 86.8792 53.5958 85.1669 43.1506C83.1121 31.678 74.0367 20.7191 57.9408 10.2739C57.5984 10.1026 57.4271 9.58895 57.7696 9.07525C58.1121 8.73279 58.6258 8.56155 58.9682 8.90402C75.5778 19.5205 84.8244 30.9931 86.8792 42.8081C88.7627 54.1095 83.1121 61.3013 82.7696 61.6438C82.5984 61.815 82.2559 61.9862 82.0847 61.9862Z" fill="#CC3366"/>
<path d="M36.3655 15.5823C36.023 15.5823 35.6806 15.2398 35.5093 14.8973C35.3381 14.3836 35.6806 14.0412 36.1943 13.8699C49.0367 11.1302 52.1189 3.08227 52.1189 2.91104C52.2901 2.39734 52.8038 2.22611 53.1463 2.39734C53.66 2.56858 53.8312 3.08227 53.66 3.42474C53.4888 3.76721 50.2354 12.5001 36.3655 15.411C36.3655 15.5823 36.3655 15.5823 36.3655 15.5823Z" fill="#CC3366"/>
<path d="M0.749144 38.3563H0.577911C0.0642123 38.1851 -0.107021 37.6714 0.0642123 37.3289C4.34503 23.2878 15.1327 20.0344 15.4752 20.0344C15.9889 19.8631 16.3313 20.2056 16.5026 20.5481C16.6738 21.0618 16.3313 21.4042 15.9889 21.5755C15.8176 21.5755 5.54366 24.6577 1.60531 37.8426C1.43408 38.1851 1.09161 38.3563 0.749144 38.3563Z" fill="#CC3366"/>
<path d="M85.8518 69.0068C85.6805 69.0068 85.5093 69.0068 85.3381 68.8356C84.9956 68.4931 84.8244 67.9794 85.1668 67.637C92.0162 58.3904 90.9888 45.7192 90.9888 45.5479C90.9888 45.0342 91.3312 44.6918 91.8449 44.6918C92.3586 44.6918 92.7011 45.0342 92.7011 45.5479C92.7011 46.0616 93.8997 59.0753 86.5367 68.6644C86.3655 68.8356 86.023 69.0068 85.8518 69.0068Z" fill="#CC3366"/>
<path d="M11.1944 100C10.6807 100 10.3382 100 10.3382 100C9.82455 100 9.48208 99.4863 9.65331 98.9726C9.65331 98.4589 10.167 98.1164 10.6807 98.2877C10.6807 98.2877 15.1328 98.8014 18.215 95.8904C20.441 93.8356 21.6396 90.5822 21.6396 86.1301C21.6396 79.9658 18.0437 73.2877 14.2766 66.2671C9.31085 57.363 4.51633 48.1164 6.05742 38.5274C7.94099 26.8836 18.5574 24.6575 29.8588 22.2603C35.5095 21.0616 41.3314 19.863 46.2971 17.4658C60.3382 10.7877 60.5095 1.0274 60.5095 0.856164C60.5095 0.342466 60.8519 0 61.3656 0C61.8793 0 62.2218 0.342466 62.2218 0.856164C62.2218 1.36986 62.0506 11.8151 46.9821 19.0068C41.8451 21.5753 35.8519 22.774 30.03 23.9726C19.0711 26.3699 9.48208 28.2534 7.76975 38.8699C6.22866 47.774 11.0232 56.8493 15.6465 65.411C19.5848 72.6027 23.1807 79.4521 23.1807 86.1301C23.1807 91.0959 21.8109 94.863 19.0711 97.2603C16.3314 99.6575 12.7355 100 11.1944 100Z" fill="#CC3366"/>
<path d="M60.338 91.2672C59.6531 92.9795 59.9956 94.863 61.023 96.4041C62.0504 97.9452 63.7627 98.8014 65.6462 98.8014H84.9956C86.8791 98.8014 88.5915 97.9452 89.6189 96.4041C90.6463 94.863 90.9887 92.9795 90.3038 91.2672L87.3928 83.2192C87.2216 82.8767 86.8791 82.5343 86.5367 82.5343V79.7946C86.5367 79.2809 86.1942 78.9384 85.6805 78.9384H84.8243V78.5959C84.8243 74.1439 81.2284 70.548 76.7764 70.548C76.4339 70.548 76.0915 70.7192 75.9202 71.0617C75.749 71.4041 75.749 71.7466 76.0915 72.0891C76.6052 72.6028 76.6052 73.2877 76.2627 73.8014C75.9202 74.4863 75.4065 74.8288 74.7216 74.8288H71.2969C68.7284 74.8288 66.6736 76.7124 66.3312 79.1096H65.3038C64.7901 79.1096 64.4476 79.4521 64.4476 79.9658V82.7055H64.2764C63.9339 82.7055 63.5915 82.8767 63.4202 83.3904L60.338 91.2672ZM82.9408 79.1096H68.0435C68.386 77.7398 69.7558 76.7124 71.2969 76.7124H74.7216C76.0915 76.7124 77.2901 75.8562 77.8038 74.6576C78.1463 73.9726 78.1462 73.2877 78.1462 72.6028C80.886 73.2877 82.9408 75.8562 82.9408 78.7672V79.1096ZM84.6531 82.7055H65.9887V80.8219H84.6531V82.7055ZM62.5641 95.548C61.8791 94.5206 61.7079 93.1507 62.0504 91.9521L64.6189 84.5891H86.1942L88.7627 91.9521C89.2764 93.1507 88.9339 94.5206 88.249 95.548C87.5641 96.5754 86.3654 97.2603 84.9956 97.2603H65.6462C64.4476 97.0891 63.249 96.5754 62.5641 95.548Z" fill="#CC3366"/>
</svg>
