<svg width="100" height="100" viewBox="0 0 100 100" fill="none" xmlns="http://www.w3.org/2000/svg"><path d="M50.313 75v18.281M43.281 53.594c.782-5 2.969-9.844 6.719-13.75l.156-.157.157.157c3.906 3.906 6.093 8.75 6.874 13.906M56.25 73.906c-.938.625-3.281 1.094-6.094 1.094-2.968 0-5.468-.469-6.25-1.25" stroke="#C36" stroke-width="1.5" stroke-miterlimit="10" stroke-linecap="round" stroke-linejoin="round"/><path d="M50.469 71.25c-1.094-10.313 6.093-20 16.718-21.563v.157c.47 3.593 0 7.187-1.25 10.312" stroke="#C36" stroke-width="1.5" stroke-miterlimit="10" stroke-linecap="round" stroke-linejoin="round"/><path d="M50.156 70c.469-9.844-6.562-18.75-16.718-20.313h-.157v.157c-.468 3.75 0 7.343 1.407 10.468" stroke="#C36" stroke-width="1.5" stroke-miterlimit="10" stroke-linecap="round" stroke-linejoin="round"/><path d="M50.156 72.031c-10 4.531-21.718.313-26.25-9.531l-.156-.156.156-.157c9.844-4.53 21.407-.312 26.094 9.532l.156.312zM50.156 72.031c10 4.531 21.563.313 26.25-9.531l.156-.156-.156-.157c-9.844-4.53-21.406-.312-26.094 9.532l-.156.312z" stroke="#C36" stroke-width="1.5" stroke-miterlimit="10" stroke-linecap="round" stroke-linejoin="round"/><path d="M30.938 3.75c1.093 7.969-.313 16.25-4.22 23.281-3.593 6.407-8.75 12.032-11.25 19.063-6.25 17.656 4.688 35.468 13.126 50.312M70.156 3.75c-1.094 7.969.313 16.25 4.219 23.281 3.594 6.407 8.75 12.032 11.25 19.063 6.25 17.656-4.688 35.468-13.125 50.312" stroke="#C36" stroke-width="1.5" stroke-miterlimit="10" stroke-linecap="round" stroke-linejoin="round"/><path d="M50.625 33.906a1.406 1.406 0 1 0 0-2.812 1.406 1.406 0 0 0 0 2.812z" fill="#C36"/></svg>