<svg width="93" height="100" viewBox="0 0 93 100" fill="none" xmlns="http://www.w3.org/2000/svg"><path d="M70.883 44.54a.938.938 0 0 1-.853-.513s-.854-2.047-2.219-2.047c-.512 0-.853-.342-.853-.854s.341-.853.853-.853c2.56 0 3.754 2.901 3.925 3.072.17.512 0 .853-.512 1.024-.17.17-.17.17-.341.17zM28.904 83.788h-.171c-.512-.17-.683-.512-.683-1.023.854-3.755 1.195-7.51 1.195-11.434 0-.512.341-.853.853-.853s.853.341.853.853c0 4.096-.34 7.85-1.194 11.775-.17.341-.512.682-.853.682zM55.866 33.788h-.34c-.513-.17-.684-.682-.513-1.194 0-.17 4.266-9.215 19.113-3.925.512.17.682.683.512 1.024-.171.512-.683.682-1.024.512-13.481-4.778-17.065 2.9-17.065 2.9 0 .513-.341.684-.683.684z" fill="#C36"/><path d="M62.18 43.857c-3.242 0-5.973-1.365-6.144-1.536-.34-.17-.511-.683-.34-1.195.17-.341.682-.512 1.194-.341 0 0 6.143 3.072 10.239-.341 1.877-1.536 3.583-2.219 5.29-2.048 2.047.341 3.071 1.706 3.071 1.877.342.341.171.853-.17 1.195-.341.34-.853.17-1.195-.171 0 0-.682-.853-1.877-1.024-1.195-.17-2.389.341-3.925 1.536-2.048 1.536-4.095 2.048-6.143 2.048zM41.02 33.788a.939.939 0 0 1-.854-.511c-.17-.342-3.754-7.68-17.065-2.902-.512.171-.853 0-1.023-.512-.171-.511 0-.853.511-1.023 14.847-5.29 19.113 3.754 19.113 3.924.17.512 0 .854-.512 1.195 0-.17 0-.17-.17-.17zM34.876 43.857c-2.048 0-4.095-.512-5.972-2.048-1.366-1.195-2.73-1.707-3.925-1.536-1.195.17-1.878 1.024-1.878 1.024-.34.341-.853.512-1.194.17-.341-.34-.512-.853-.17-1.194 0 0 1.023-1.536 3.07-1.877 1.707-.17 3.414.512 5.291 2.048 4.096 3.583 10.239.512 10.239.341.341-.17.853 0 1.194.341.171.342 0 .854-.34 1.195-.342.17-3.073 1.536-6.315 1.536z" fill="#C36"/><path d="M26.173 44.54h-.341c-.512-.172-.683-.683-.512-1.025 0-.17 1.194-3.071 3.925-3.071.511 0 .853.34.853.853 0 .512-.341.853-.853.853-1.366 0-2.219 2.048-2.219 2.048-.17.17-.512.341-.853.341zM48.529 59.556c-1.878 0-3.414-1.024-4.096-1.877a.825.825 0 0 1 0-1.194.825.825 0 0 1 1.194 0c.342.34 2.73 2.73 6.144-.171.341-.341.853-.17 1.194.17.342.342.171.854-.17 1.195-1.536 1.365-3.072 1.877-4.267 1.877zM48.528 73.208c-3.072 0-6.143-1.706-9.044-4.778-.342-.341-.342-.683 0-1.024.17-.17 2.73-4.095 5.972-4.778 1.024-.17 2.048 0 3.072.512.853-.512 1.706-.683 2.56-.512 3.242.512 6.143 4.778 6.313 4.949.171.341.171.682 0 1.024-.17.17-3.413 4.607-8.361 4.948-.17-.34-.342-.34-.512-.34zm-7.338-5.46c2.56 2.56 5.12 3.924 7.68 3.754 3.241-.171 5.801-2.73 6.654-3.755-1.023-1.194-2.9-3.413-4.778-3.583-.682-.17-1.194.17-1.877.512-.341.17-.682.341-1.024 0-.682-.512-1.536-.683-2.218-.512-1.707.341-3.413 2.389-4.437 3.583z" fill="#C36"/><path d="M48.699 84.642c-5.973 0-8.362-2.73-8.533-2.901l-15.87-15.017c-.17-.171-5.973-5.29-5.973-15.53V26.11c0-.512.341-.853.853-.853s.854.341.854.853v25.256c0 9.386 5.29 14.164 5.29 14.164l15.87 15.017s2.218 2.39 7.338 2.39 6.996-2.22 6.996-2.22c.171-.17 10.24-9.897 16.041-15.358 5.802-5.119 5.461-14.846 5.461-14.846v-23.72c0-.512.341-.853.853-.853s.854.34.854.853v23.55c0 .34.34 10.58-6.144 16.211-5.802 5.631-15.87 15.188-16.04 15.358.34 0-1.878 2.73-7.85 2.73z" fill="#C36"/><path d="M72.42 95.222c-.171 0-.513-.17-.683-.341-.171-.342-5.802-7.338-5.802-23.72 0-.513.34-.854.853-.854.512 0 .853.341.853.853 0 15.87 5.46 22.526 5.46 22.697.342.341.171.853-.17 1.194-.17.17-.341.17-.512.17zM81.805 61.604c-.171 0-.342 0-.512-.17-.342-.342-.512-.854-.17-1.195 0 0 5.46-6.997 3.753-17.406C83 31.57 73.955 20.478 57.914 10.239c-.341-.17-.512-.853-.17-1.195.34-.341.852-.512 1.194-.17 16.553 10.58 25.768 22.013 27.816 33.788 1.877 11.263-3.755 18.43-4.096 18.771-.341 0-.683.171-.853.171zM36.241 15.358c-.34 0-.682-.341-.853-.682-.17-.512.17-.854.683-1.024C48.869 10.922 51.94 2.9 51.94 2.73c.17-.512.683-.682 1.024-.512.512.171.682.683.512 1.024-.17.342-3.413 9.045-17.236 11.946.171.17 0 .17 0 .17zM.747 38.054H.576c-.512-.17-.683-.682-.512-1.023C4.33 23.038 15.081 19.795 15.422 19.795c.512-.17.854.17 1.024.512.17.512-.17.853-.512 1.024-.17 0-10.41 3.072-14.334 16.212a.938.938 0 0 1-.853.511zM85.559 68.6c-.17 0-.341 0-.512-.17-.341-.341-.512-.853-.17-1.195 6.825-9.215 5.801-21.843 5.801-22.013 0-.512.341-.853.853-.853s.854.34.854.853c0 .512 1.194 13.481-6.144 23.037-.17.171-.34.342-.682.342z" fill="#C36"/><path d="M11.156 99.488h-.853c-.512 0-.854-.512-.683-1.024 0-.512.512-.853 1.024-.682 0 0 4.437.511 7.508-2.39 2.219-2.047 3.413-5.29 3.413-9.727 0-6.143-3.583-12.798-7.337-19.795-4.779-8.873-9.557-18.088-8.02-27.474 1.876-11.604 12.457-13.823 23.72-16.212 5.63-1.194 11.433-2.389 16.381-4.778C60.303 10.751 60.474 1.024 60.474.853c0-.512.342-.853.854-.853s.853.341.853.853-.17 10.922-15.188 18.089c-5.12 2.56-11.092 3.754-16.894 4.949-11.092 2.218-20.649 4.266-22.355 14.676-1.536 8.873 3.242 17.918 7.85 26.45C19.518 72.184 23.1 79.01 23.1 85.665c0 4.95-1.365 8.704-4.095 11.093-2.73 2.389-6.144 2.73-7.85 2.73z" fill="#C36"/><path d="M73.955 99.147c8.859 0 16.04-7.182 16.04-16.041 0-8.86-7.181-16.041-16.04-16.041-8.86 0-16.041 7.181-16.041 16.04 0 8.86 7.182 16.042 16.04 16.042z" fill="#fff"/><path d="M73.955 100c-3.925 0-7.68-1.365-10.751-3.925-3.413-2.901-5.631-6.997-5.973-11.433-.341-4.437 1.024-8.874 3.755-12.287 2.9-3.413 6.996-5.632 11.433-5.973 4.437-.341 8.874 1.024 12.287 3.754 3.413 2.901 5.631 6.997 5.972 11.434.342 4.437-1.023 8.874-3.754 12.287-2.9 3.412-6.997 5.631-11.433 5.972-.512.17-1.024.17-1.536.17zm0-31.911H72.59c-4.096.341-7.68 2.218-10.24 5.46-2.559 3.072-3.754 6.997-3.412 11.093.341 4.095 2.218 7.679 5.46 10.239 3.072 2.56 6.997 3.754 11.093 3.412 4.095-.34 7.679-2.218 10.239-5.46 2.56-3.072 3.754-6.997 3.412-11.093-.34-4.095-2.218-7.679-5.46-10.238-2.73-2.219-6.144-3.413-9.727-3.413z" fill="#C36"/><path d="M75.49 93.003h-.34c-.171 0-.512-.17-.683-.17-.17 0-.341 0-.341-.171h-1.024c-.512 0-1.195.17-1.877 0-.512-.17-1.024-.512-1.365-.683-.171-.17-.342-.17-.342-.34-1.024-.683-2.9-.683-4.778-.683-2.048 0-4.266 0-5.802-1.024-.341-.342-.512-.854-.17-1.195.34-.341.853-.512 1.194-.17 1.024.682 2.9.682 4.778.682 2.048 0 4.266 0 5.631 1.024.171.17.342.17.512.341.342.17.512.341.683.512.341.17.683 0 1.194 0 .512 0 1.024-.17 1.536 0 .171 0 .342.17.683.17.17 0 .341.171.512.171.683.171 1.365-.34 2.048-1.023 1.024-.683 2.218-1.536 3.583-1.024.342.17.683.341.853.512.171.17.513.34.683.34.17 0 .341-.17.683-.17.682-.341 1.877-1.194 2.73-2.047 1.024-.854 2.219-1.707 3.072-2.048.341-.17.853 0 1.194.341.17.341 0 .853-.341 1.195-.683.34-1.706 1.194-2.73 2.047-1.024.854-2.219 1.707-3.072 2.048-.341.17-.853.512-1.365.341-.683 0-1.024-.34-1.536-.511-.17-.171-.341-.171-.512-.342-.512-.17-1.195.17-2.048.853-1.194.342-2.048 1.024-3.242 1.024zM73.955 85.324c-.511 0-.853-.341-.853-.853v-4.266c0-.512.341-.854.853-.854s.854.342.854.854v4.266c.17.512-.342.853-.854.853z" fill="#C36"/><path d="M77.027 82.252c0 .512-.342.854-.853.854h-4.267c-.512 0-.853-.342-.853-.853 0-.513.341-.854.853-.854h4.267c.511 0 .853.341.853.853z" fill="#C36"/><path d="M73.955 88.908c-3.925 0-6.314-2.56-6.314-6.656 0-4.266 5.46-9.215 5.802-9.385a.825.825 0 0 1 1.195 0c.17.17 5.802 4.949 5.802 9.385-.17 4.096-2.56 6.656-6.485 6.656zm0-14.164c-1.706 1.536-4.607 4.949-4.607 7.508 0 3.072 1.706 4.95 4.607 4.95 2.901 0 4.608-1.878 4.608-4.95 0-2.56-2.901-5.972-4.608-7.508z" fill="#C36"/></svg>