<svg width="102" height="100" viewBox="0 0 102 100" fill="none" xmlns="http://www.w3.org/2000/svg"><path d="M94.06 66.38s-.171 0 0 0c-.514 0-.857-.342-.857-.857v-3.087l-1.715 2.401c-.344.343-.858.515-1.201.171-.343-.343-.515-.857-.172-1.2l3.43-4.631c.172-.343.687-.515 1.03-.343a.943.943 0 0 1 .515.857l-.172 5.832c0 .343-.515.858-.858.858zM88.057 78.902h-.343a.943.943 0 0 1-.514-.857l.171-5.832c0-.515.343-.858.858-.858.514 0 .858.343.858.858V75.3l1.715-2.401c.343-.343.857-.515 1.2-.172.344.343.515.858.172 1.2l-3.43 4.632c-.172.172-.515.343-.687.343zM86.514 69.983c-.172 0-.343 0-.515-.172l-4.631-3.43c-.343-.172-.515-.686-.343-1.03.171-.343.343-.686.857-.514l5.832.171c.515 0 .858.344.858.858 0 .515-.343.858-.858.858h-3.087l2.401 1.715c.343.343.515.858.172 1.2 0 .344-.343.344-.686.344zM100.236 72.727l-5.832-.171c-.514 0-.858-.343-.858-.858 0-.514.343-.857.858-.857h3.088l-2.402-1.716c-.343-.343-.514-.857-.171-1.2.343-.343.857-.515 1.2-.172l4.632 3.43c.343.172.514.687.343 1.03a.944.944 0 0 1-.858.514zM74.507 56.604c-.343.343-.858.514-1.2.171l-1.03-.686.343 1.2c.171.515-.172.858-.515 1.03-.514.171-.857-.172-1.029-.515l-1.2-3.773c-.172-.343 0-.686.343-1.03a1.094 1.094 0 0 1 1.029 0l3.087 2.402c.343.343.343.858.172 1.2zM78.967 65.009l-.171.171a1.093 1.093 0 0 1-1.03 0L74.68 62.78c-.343-.343-.343-.858-.172-1.2.343-.344.858-.516 1.201-.172l1.03.686-.344-1.201c-.171-.515.172-.858.515-1.03.514-.17.857.172 1.029.515l1.2 3.774c0 .343 0 .686-.171.858zM73.478 62.264l-.343.343-3.774 1.2c-.343.172-.686 0-1.029-.342a1.094 1.094 0 0 1 0-1.03l2.402-3.087c.343-.343.857-.514 1.2-.171.343.343.515.857.172 1.2l-.686 1.03 1.2-.343c.515-.172.858.171 1.03.514 0 .172 0 .343-.172.686zM80.51 55.746s0 .172 0 0l-2.4 3.088c-.344.343-.859.514-1.202.171-.343-.343-.343-.858-.171-1.2l.686-1.03-1.2.343c-.515.172-.858-.171-1.03-.514-.171-.515.172-.858.515-1.03l3.773-1.2c.343-.172.687 0 1.03.343.343.343.343.858 0 1.03zM29.052 84.22h-.171c-.515-.172-.686-.515-.686-1.03.857-3.773 1.2-7.547 1.2-11.492 0-.514.343-.857.858-.857.515 0 .858.343.858.857 0 4.117-.343 7.89-1.201 11.835-.172.343-.515.686-.858.686zM56.154 33.962h-.343c-.515-.171-.686-.686-.515-1.2 0-.172 4.288-9.263 19.211-3.945.515.171.686.686.515 1.029-.172.514-.686.686-1.03.514-13.379-4.802-16.98 2.573-17.152 2.916 0 .515-.343.686-.686.686zM62.5 44.082c-3.26 0-6.004-1.372-6.175-1.543-.343-.172-.515-.687-.343-1.201.171-.343.686-.515 1.2-.343 0 0 6.175 3.087 10.292-.343 1.887-1.544 3.602-2.23 5.317-2.059 2.059.343 3.088 1.716 3.088 1.887.343.343.171.858-.172 1.201-.343.343-.857.172-1.2-.172 0 0-.687-.857-1.887-1.029-1.2-.171-2.401.343-3.945 1.544-2.059 1.544-4.117 2.058-6.175 2.058zM41.23 33.962a.943.943 0 0 1-.857-.514c-.172-.343-3.774-7.719-17.153-2.916-.514.171-.857 0-1.029-.515-.171-.514 0-.857.515-1.029 14.923-5.317 19.21 3.774 19.21 3.945.172.515 0 .858-.514 1.2 0-.17 0-.17-.171-.17zM35.056 44.082c-2.059 0-4.117-.514-6.004-2.058-1.372-1.2-2.744-1.715-3.945-1.544-1.2.172-1.887 1.03-1.887 1.03-.343.343-.857.514-1.2.171-.343-.343-.515-.858-.172-1.2 0 0 1.03-1.544 3.088-1.888 1.715-.171 3.43.515 5.317 2.059 4.117 3.602 10.291.514 10.291.343.344-.172.858 0 1.201.343.172.343 0 .858-.343 1.2-.343.172-3.087 1.544-6.346 1.544z" fill="#C36"/><path d="M26.308 44.768h-.343c-.515-.171-.687-.686-.515-1.029 0-.171 1.2-3.087 3.945-3.087.515 0 .858.343.858.857 0 .515-.343.858-.858.858-1.372 0-2.23 2.058-2.23 2.058a1.31 1.31 0 0 1-.857.343zM48.778 59.863c-1.887 0-3.43-1.03-4.116-1.887a.829.829 0 0 1 0-1.2.83.83 0 0 1 1.2 0c.343.342 2.745 2.744 6.175-.172.343-.343.858-.172 1.2.171.344.343.172.858-.17 1.201-1.544 1.372-3.088 1.887-4.289 1.887zM48.778 73.585c-3.088 0-6.175-1.715-9.091-4.803-.343-.343-.343-.686 0-1.03.171-.17 2.744-4.116 6.003-4.802 1.03-.171 2.058 0 3.088.515.857-.515 1.715-.686 2.572-.515 3.26.515 6.175 4.803 6.347 4.974.171.343.171.687 0 1.03-.172.171-3.43 4.63-8.405 4.974-.171-.343-.343-.343-.514-.343zm-7.376-5.489c2.573 2.573 5.146 3.945 7.719 3.774 3.259-.172 5.831-2.745 6.69-3.774-1.03-1.2-2.917-3.43-4.804-3.602-.686-.172-1.2.171-1.886.514-.343.172-.687.344-1.03 0-.686-.514-1.543-.686-2.23-.514-1.715.343-3.43 2.401-4.46 3.602zM78.623 51.458c-.514 0-.857-.343-.857-.858V26.93c0-.515.343-.858.857-.858.515 0 .858.343.858.858V50.6c0 .515-.343.858-.858.858z" fill="#C36"/><path d="M48.95 85.077c-6.004 0-8.406-2.744-8.577-2.916L24.42 67.067c-.172-.171-6.004-5.317-6.004-15.609V26.244c0-.515.343-.858.858-.858.515 0 .858.343.858.858V51.63c0 9.434 5.317 14.236 5.317 14.236l15.952 15.095s2.23 2.401 7.376 2.401c5.145 0 7.032-2.23 7.032-2.23.172-.171 10.292-9.948 16.124-15.437a.829.829 0 0 1 1.2 0 .829.829 0 0 1 0 1.2c-6.003 5.66-15.952 15.266-16.123 15.438.171 0-2.059 2.744-8.062 2.744z" fill="#C36"/><path d="M72.792 95.712c-.172 0-.515-.172-.686-.343-.172-.343-5.832-7.376-5.832-23.842 0-.515.343-.858.858-.858.514 0 .857.343.857.858 0 15.952 5.489 22.641 5.489 22.813.343.343.172.857-.171 1.2-.172.172-.344.172-.515.172zM82.226 61.921c-.172 0-.343 0-.515-.172-.343-.343-.514-.857-.171-1.2 0 0 5.488-7.033 3.773-17.496-1.887-11.32-10.978-22.47-27.101-32.761-.343-.172-.515-.858-.172-1.201.172-.343.858-.515 1.201-.172C75.88 19.554 85.141 31.046 87.2 42.882c1.887 11.32-3.774 18.524-4.117 18.867-.343 0-.686.172-.857.172zM36.428 15.437c-.343 0-.686-.343-.858-.686-.171-.514.172-.857.686-1.029C49.121 10.978 52.208 2.916 52.208 2.744c.172-.514.686-.686 1.03-.514.514.171.686.686.514 1.029-.172.343-3.43 9.09-17.324 12.007.171.171 0 .171 0 .171zM.75 38.25H.58c-.515-.171-.686-.686-.515-1.029C4.352 23.156 15.16 19.897 15.502 19.897c.514-.171.857.172 1.029.515.171.514-.172.857-.515 1.029-.171 0-10.463 3.087-14.408 16.295a.943.943 0 0 1-.858.514z" fill="#C36"/><path d="M11.213 100h-.857c-.515 0-.858-.515-.686-1.03 0-.514.514-.857 1.029-.685 0 0 4.46.514 7.547-2.402 2.23-2.058 3.43-5.317 3.43-9.777 0-6.175-3.602-12.864-7.375-19.897-4.803-8.92-9.606-18.182-8.062-27.616C8.126 26.93 18.76 24.7 30.081 22.298c5.66-1.2 11.493-2.4 16.467-4.802C60.613 10.806 60.784 1.372 60.784.858c0-.515.344-.858.858-.858.515 0 .858.343.858.858 0 .514-.172 10.977-15.266 18.181-5.146 2.573-11.15 3.774-16.981 4.975-11.15 2.23-20.755 4.288-22.47 14.751-1.544 8.92 3.259 18.01 7.89 26.587 3.945 7.204 7.547 14.065 7.547 20.754 0 4.975-1.372 8.748-4.116 11.15-2.745 2.401-6.175 2.744-7.89 2.744zM76.222 73.756c-.343.343-.858.515-1.2.172l-1.03-.686.343 1.2c.172.515-.171.858-.514 1.03-.515.171-.858-.172-1.03-.515l-1.2-3.774c-.172-.343 0-.686.343-1.029a1.094 1.094 0 0 1 1.029 0l3.088 2.402c.343.343.343.857.171 1.2zM80.682 82.161l-.171.172a1.094 1.094 0 0 1-1.03 0l-3.087-2.402c-.343-.343-.343-.857-.172-1.2.344-.343.858-.515 1.201-.172l1.03.686-.344-1.2c-.171-.515.172-.858.515-1.03.514-.171.858.172 1.029.515l1.2 3.773c0 .344 0 .687-.17.858zM75.193 79.417l-.343.343-3.773 1.2c-.343.172-.686 0-1.03-.343a1.094 1.094 0 0 1 0-1.029l2.402-3.087c.343-.343.857-.515 1.2-.172.344.343.515.858.172 1.201l-.686 1.03 1.2-.344c.515-.171.858.172 1.03.515 0 .171 0 .343-.172.686zM82.226 72.899s0 .171 0 0l-2.402 3.087c-.343.343-.857.515-1.2.172-.343-.343-.343-.858-.172-1.201l.686-1.03-1.2.344c-.515.171-.858-.172-1.03-.515-.171-.514.172-.857.515-1.029l3.773-1.2c.344-.172.687 0 1.03.343.343.343.343.857 0 1.029z" fill="#C36"/></svg>