<svg width="93" height="100" viewBox="0 0 93 100" fill="none" xmlns="http://www.w3.org/2000/svg">
<path d="M29.0523 84.2196H28.8808C28.3662 84.048 28.1947 83.705 28.1947 83.1904C29.0523 79.4168 29.3954 75.6432 29.3954 71.6981C29.3954 71.1835 29.7384 70.8405 30.253 70.8405C30.7676 70.8405 31.1106 71.1835 31.1106 71.6981C31.1106 75.8148 30.7676 79.5883 29.9099 83.5335C29.7384 83.8765 29.3954 84.2196 29.0523 84.2196Z" fill="#1A1A1A"/>
<path d="M56.1534 33.9623C55.9819 33.9623 55.9819 33.9623 55.8104 33.9623C55.2958 33.7907 55.1243 33.2762 55.2958 32.7616C55.2958 32.59 59.584 23.4991 74.5068 28.8165C75.0214 28.988 75.1929 29.5026 75.0214 29.8456C74.8498 30.1887 74.3353 30.5317 73.9922 30.3602C60.4416 25.5575 56.8396 33.2761 56.8396 33.2761C56.8396 33.7907 56.4965 33.9623 56.1534 33.9623Z" fill="#1A1A1A"/>
<path d="M62.5002 44.0823C59.2412 44.0823 56.4968 42.7101 56.3253 42.5386C55.9822 42.3671 55.8107 41.8525 55.9822 41.3379C56.1537 40.9949 56.6683 40.8233 57.1829 40.9948C57.1829 40.9948 63.3578 44.0823 67.4745 40.6518C69.3613 39.1081 71.0766 38.422 72.7918 38.5935C74.8501 38.9365 75.8793 40.3087 75.8793 40.4803C76.2223 40.8233 76.0508 41.3379 75.7078 41.681C75.3647 42.024 74.8501 41.8525 74.5071 41.5094C74.5071 41.5094 73.821 40.6518 72.6203 40.4803C71.4196 40.3087 70.2189 40.8233 68.6752 42.024C66.6168 43.5677 64.387 44.0823 62.5002 44.0823Z" fill="#1A1A1A"/>
<path d="M41.2305 33.9623C40.8875 33.9623 40.5444 33.7907 40.3729 33.4477C40.2014 33.1046 36.5993 25.729 23.2202 30.5317C22.7057 30.7033 22.3626 30.5317 22.1911 30.0172C22.0196 29.5026 22.1911 29.1595 22.7057 28.988C37.6285 23.6707 41.9167 32.7616 41.9167 32.9331C42.0882 33.4477 41.9167 33.7907 41.4021 34.1338C41.4021 33.9623 41.4021 33.9623 41.2305 33.9623Z" fill="#1A1A1A"/>
<path d="M35.0557 44.0823C32.9973 44.0823 30.939 43.5677 29.0522 42.024C27.68 40.8233 26.3078 40.3087 25.1071 40.4803C23.9064 40.6518 23.2203 41.5094 23.2203 41.5094C22.8773 41.8525 22.3627 42.024 22.0196 41.681C21.6766 41.3379 21.505 40.8233 21.8481 40.4803C21.8481 40.4803 22.8773 38.9365 24.9356 38.5935C26.6508 38.422 28.3661 39.1081 30.2529 40.6518C34.3695 44.2539 40.5445 41.1664 40.5445 40.9948C40.8876 40.8233 41.4021 40.9949 41.7452 41.3379C41.9167 41.681 41.7452 42.1955 41.4021 42.5386C41.0591 42.7101 38.3147 44.0823 35.0557 44.0823Z" fill="#1A1A1A"/>
<path d="M26.308 44.7684C26.1364 44.7684 26.1365 44.7684 25.9649 44.7684C25.4503 44.5969 25.2788 44.0823 25.4503 43.7393C25.4503 43.5677 26.651 40.6518 29.3955 40.6518C29.91 40.6518 30.2531 40.9948 30.2531 41.5094C30.2531 42.024 29.91 42.3671 29.3955 42.3671C28.0232 42.3671 27.1656 44.4254 27.1656 44.4254C26.9941 44.5969 26.651 44.7684 26.308 44.7684Z" fill="#1A1A1A"/>
<path d="M48.6065 59.8628C46.7197 59.8628 45.176 58.8336 44.4899 57.976C44.1468 57.6329 44.1468 57.1184 44.4899 56.7753C44.8329 56.4323 45.3475 56.4323 45.6905 56.7753C46.0336 57.1184 48.435 59.5197 51.8655 56.6038C52.2085 56.2607 52.7231 56.4323 53.0662 56.7753C53.4092 57.1184 53.2377 57.6329 52.8947 57.976C51.5224 59.3482 49.9787 59.8628 48.6065 59.8628Z" fill="#1A1A1A"/>
<path d="M48.778 73.5849C45.6905 73.5849 42.603 71.8696 39.687 68.7822C39.344 68.4391 39.344 68.0961 39.687 67.753C39.8586 67.5815 42.4315 63.6364 45.6905 62.9503C46.7196 62.7787 47.7488 62.9503 48.778 63.4648C49.6356 62.9503 50.4932 62.7787 51.3509 62.9503C54.6099 63.4648 57.5258 67.753 57.6973 67.9245C57.8689 68.2676 57.8689 68.6106 57.6973 68.9537C57.5258 69.1252 54.2668 73.5849 49.2925 73.928C49.121 73.5849 48.9495 73.5849 48.778 73.5849ZM41.4023 68.0961C43.9752 70.669 46.5481 72.0412 49.121 71.8696C52.38 71.6981 54.9529 69.1252 55.8105 68.0961C54.7814 66.8954 52.8946 64.6655 51.0078 64.494C50.3217 64.3225 49.8071 64.6655 49.121 65.0086C48.7779 65.1801 48.4349 65.3516 48.0918 65.0086C47.4057 64.494 46.5481 64.3225 45.862 64.494C44.1467 64.8371 42.2599 66.8954 41.4023 68.0961Z" fill="#1A1A1A"/>
<path d="M78.6233 51.458C78.1087 51.458 77.7657 51.1149 77.7657 50.6003V26.9297C77.7657 26.4151 78.1087 26.072 78.6233 26.072C79.1379 26.072 79.481 26.4151 79.481 26.9297V50.6003C79.481 51.1149 79.1379 51.458 78.6233 51.458Z" fill="#1A1A1A"/>
<path d="M56.6682 82.5043C56.4967 82.5043 56.1536 82.3328 55.9821 82.1612C55.639 81.8182 55.639 81.3036 55.9821 80.9606C56.1536 80.789 66.1021 71.1835 72.1056 65.5232C72.4486 65.1801 72.9632 65.1801 73.3062 65.5232C73.6493 65.8662 73.6493 66.3808 73.3062 66.7238C67.3028 72.3842 57.3543 81.9897 57.1828 82.1612C57.0112 82.5043 56.8397 82.5043 56.6682 82.5043Z" fill="#1A1A1A"/>
<path d="M47.5773 85.0772C47.5773 85.0772 47.4057 85.0772 47.5773 85.0772C42.603 84.7341 40.5447 82.3328 40.3732 82.3328L24.4212 67.2384C24.2497 67.0669 18.4178 61.9211 18.4178 51.6295V26.2436C18.4178 25.729 18.7608 25.3859 19.2754 25.3859C19.79 25.3859 20.133 25.729 20.133 26.2436V51.6295C20.133 61.0635 25.4504 65.8662 25.4504 65.8662L41.4023 80.9606C41.4023 80.9606 43.1176 82.8473 47.4058 83.1904C47.9203 83.1904 48.2634 83.705 48.2634 84.048C48.2634 84.7341 47.9203 85.0772 47.5773 85.0772Z" fill="#1A1A1A"/>
<path d="M72.7915 95.7118C72.62 95.7118 72.2769 95.5403 72.1054 95.3688C71.9339 95.0257 66.2735 87.9931 66.2735 71.5266C66.2735 71.012 66.6166 70.669 67.1311 70.669C67.6457 70.669 67.9888 71.012 67.9888 71.5266C67.9888 87.4786 73.4776 94.1681 73.4776 94.3396C73.8207 94.6827 73.6491 95.1973 73.3061 95.5403C73.1345 95.7118 72.963 95.7118 72.7915 95.7118Z" fill="#1A1A1A"/>
<path d="M82.2256 61.9211C82.0541 61.9211 81.8826 61.9211 81.711 61.7496C81.368 61.4065 81.1964 60.8919 81.5395 60.5489C81.5395 60.5489 87.0283 53.5163 85.3131 43.0532C83.4263 31.7324 74.3354 20.5832 58.2119 10.2916C57.8688 10.1201 57.6973 9.43396 58.0404 9.09091C58.3834 8.74786 58.898 8.57633 59.241 8.91938C75.8791 19.554 85.1416 31.0463 87.1999 42.8817C89.0867 54.2024 83.4263 61.4065 83.0832 61.7496C82.7402 61.7496 82.3971 61.9211 82.2256 61.9211Z" fill="#1A1A1A"/>
<path d="M36.4279 15.4374C36.0848 15.4374 35.7417 15.0943 35.5702 14.7513C35.3987 14.2367 35.7418 13.8936 36.2563 13.7221C49.1208 10.9777 52.2083 2.91594 52.2083 2.74441C52.3798 2.22983 52.8944 2.05831 53.2375 2.22983C53.752 2.40136 53.9236 2.91594 53.7521 3.25899C53.5805 3.60205 50.3215 12.3499 36.4279 15.2659C36.5994 15.4374 36.4279 15.4374 36.4279 15.4374Z" fill="#1A1A1A"/>
<path d="M0.750444 38.2504H0.578907C0.0643269 38.0789 -0.107205 37.5643 0.0643217 37.2213C4.35249 23.1561 15.1587 19.8971 15.5017 19.8971C16.0163 19.7256 16.3594 20.0686 16.5309 20.4117C16.7024 20.9262 16.3594 21.2693 16.0163 21.4408C15.8448 21.4408 5.55319 24.5283 1.60808 37.7358C1.43655 38.0789 1.0935 38.2504 0.750444 38.2504Z" fill="#1A1A1A"/>
<path d="M11.2137 100C10.6991 100 10.3561 100 10.3561 100C9.8415 100 9.49846 99.4854 9.66999 98.9708C9.66999 98.4563 10.1846 98.1132 10.6991 98.2847C10.6991 98.2847 15.1588 98.7993 18.2463 95.8834C20.4762 93.825 21.6768 90.566 21.6768 86.1063C21.6768 79.9314 18.0748 73.2419 14.3012 66.2093C9.49846 57.2899 4.69572 48.0274 6.23946 38.5935C8.12625 26.9297 18.7609 24.6998 30.0816 22.2985C35.742 21.0978 41.5739 19.8971 46.5482 17.4957C60.6134 10.8062 60.7849 1.37221 60.7849 0.857633C60.7849 0.343053 61.128 0 61.6425 0C62.1571 0 62.5002 0.343053 62.5002 0.857633C62.5002 1.37221 62.3286 11.8353 47.2343 19.0395C42.0885 21.6124 36.0851 22.813 30.2532 24.0137C19.104 26.2436 9.49845 28.3019 7.78318 38.765C6.23945 47.6844 11.0422 56.7753 15.6734 65.3516C19.6185 72.5557 23.2206 79.4168 23.2206 86.1063C23.2206 91.0806 21.8484 94.8542 19.104 97.2556C16.3595 99.657 12.7575 100 11.2137 100Z" fill="#1A1A1A"/>
<path d="M70.047 64.837C69.7039 64.494 69.8755 63.9794 70.2185 63.6364L72.9629 61.578C73.306 61.235 73.8205 61.4065 74.1636 61.7496C74.5067 62.0926 74.3351 62.6072 73.9921 62.9503L71.2477 65.0086C70.9046 65.1801 70.39 65.1801 70.047 64.837Z" fill="black"/>
<path d="M76.908 59.6912C76.565 59.3482 76.7365 58.8336 77.0796 58.4906L79.824 56.4322C80.167 56.0892 80.6816 56.2607 81.0247 56.6038C81.3677 56.9468 81.1962 57.4614 80.8531 57.8045L78.1087 59.8628C77.7657 60.0343 77.2511 60.0343 76.908 59.6912Z" fill="black"/>
<path d="M79.6526 66.2093C79.3095 66.5523 78.7949 66.3808 78.4518 66.0377L76.3935 63.2933C76.0505 62.9503 76.222 62.4357 76.5651 62.0926C76.9081 61.7496 77.4227 61.9211 77.7658 62.2642L79.8241 65.0086C80.1671 65.3516 79.9956 65.8662 79.6526 66.2093Z" fill="black"/>
<path d="M74.5067 59.3482C74.1637 59.6913 73.6491 59.5197 73.306 59.1767L71.2477 56.4323C70.9046 56.0892 71.0762 55.5746 71.4192 55.2316C71.7623 54.8885 72.2769 55.06 72.6199 55.4031L74.6782 58.1475C75.0213 58.4906 74.8498 59.0051 74.5067 59.3482Z" fill="black"/>
<path d="M46.5481 87.6501C46.5481 87.1355 46.7196 86.7924 47.2342 86.6209L50.6648 85.9348C51.1793 85.9348 51.5224 86.1063 51.6939 86.6209C51.6939 87.1355 51.5224 87.4785 51.0078 87.6501L47.5773 88.3362C47.0627 88.3362 46.5481 87.9931 46.5481 87.6501Z" fill="black"/>
<path d="M54.9528 86.1063C54.9528 85.5918 55.1243 85.2487 55.6389 85.0772L59.0694 84.3911C59.584 84.3911 59.927 84.5626 60.0986 85.0772C60.0986 85.5918 59.927 85.9348 59.4125 86.1063L55.9819 86.7924C55.4673 86.7924 54.9528 86.6209 54.9528 86.1063Z" fill="black"/>
<path d="M54.4379 93.1389C53.9233 93.1389 53.5803 92.9674 53.4087 92.4528L52.7226 89.0223C52.7226 88.5077 52.8942 88.1646 53.4087 87.9931C53.9233 87.9931 54.2664 88.1646 54.4379 88.6792L55.124 92.1098C55.2955 92.6243 54.9525 92.9674 54.4379 93.1389Z" fill="black"/>
<path d="M52.8944 84.7341C52.3799 84.7341 52.0368 84.5626 51.8653 84.048L51.1792 80.6175C51.1792 80.1029 51.3507 79.7599 51.8653 79.5883C52.3798 79.5883 52.7229 79.7599 52.8944 80.2744L53.5805 83.705C53.7521 84.2195 53.409 84.5626 52.8944 84.7341Z" fill="black"/>
<path d="M23.735 59.6913C23.3919 59.3482 23.5635 58.8336 23.9065 58.4906L26.6509 56.4323C26.994 56.0892 27.5086 56.2607 27.8516 56.6038C28.1947 56.9468 28.0232 57.4614 27.6801 57.8045L24.9357 59.8628C24.5926 60.0343 24.078 60.0343 23.735 59.6913Z" fill="black"/>
<path d="M30.596 54.5455C30.253 54.2024 30.4245 53.6878 30.7676 53.3448L33.512 51.2865C33.855 50.9434 34.3696 51.1149 34.7127 51.458C35.0557 51.801 34.8842 52.3156 34.5412 52.6587L31.7967 54.717C31.4537 54.8885 30.9391 54.8885 30.596 54.5455Z" fill="black"/>
<path d="M33.3405 61.0635C32.9975 61.4065 32.4829 61.235 32.1398 60.892L30.0815 58.1475C29.7385 57.8045 29.91 57.2899 30.2531 56.9469C30.5961 56.6038 31.1107 56.7753 31.4537 57.1184L33.5121 59.8628C33.8551 60.2059 33.6836 60.7204 33.3405 61.0635Z" fill="black"/>
<path d="M28.1946 54.2024C27.8516 54.5455 27.337 54.3739 26.9939 54.0309L24.9356 51.2865C24.5926 50.9434 24.7641 50.4288 25.1072 50.0858C25.4502 49.7427 25.9648 49.9143 26.3078 50.2573L28.3661 53.0017C28.7092 53.3448 28.5377 53.8594 28.1946 54.2024Z" fill="black"/>
<path d="M81.3679 73.5849C81.0249 73.5849 80.8533 73.4134 80.6818 73.2419C80.3387 72.8988 80.5103 72.3842 80.8533 72.0412C92.6887 63.1218 91.1449 45.6261 91.1449 45.4545C91.1449 44.94 91.488 44.5969 92.0026 44.5969C92.5171 44.5969 92.8602 44.94 92.8602 45.4545C92.8602 46.1406 94.4039 63.9794 81.8825 73.4134C81.711 73.5849 81.5395 73.5849 81.3679 73.5849Z" fill="#1A1A1A"/>
</svg>
